<svg class="plot-d6a7b5" fill="currentColor" font-family="system-ui, sans-serif" font-size="10" text-anchor="middle" width="640" height="400" viewBox="0 0 640 400" xmlns="http://www.w3.org/2000/svg" xmlns:xlink="http://www.w3.org/1999/xlink" color="#1e90ff"><style>:where(.plot-d6a7b5){--plot-background: white;display:block;height:intrinsic;max-width:100%}:where(.plot-d6a7b5 text),:where(.plot-d6a7b5 tspan){white-space:pre}</style><g aria-label="y-axis tick" fill="none" stroke="currentColor"><path transform="translate(40,370)" d="M0,0L-6,0"/><path transform="translate(40,331.53846153846155)" d="M0,0L-6,0"/><path transform="translate(40,293.07692307692304)" d="M0,0L-6,0"/><path transform="translate(40,254.61538461538464)" d="M0,0L-6,0"/><path transform="translate(40,216.15384615384616)" d="M0,0L-6,0"/><path transform="translate(40,177.69230769230765)" d="M0,0L-6,0"/><path transform="translate(40,139.23076923076923)" d="M0,0L-6,0"/><path transform="translate(40,100.76923076923076)" d="M0,0L-6,0"/><path transform="translate(40,62.307692307692314)" d="M0,0L-6,0"/><path transform="translate(40,23.846153846153832)" d="M0,0L-6,0"/></g><g aria-label="y-axis tick label" text-anchor="end" font-variant="tabular-nums"><text y=".32em" transform="translate(-9,0) translate(40,370)">0</text><text y=".32em" transform="translate(-9,0) translate(40,331.53846153846155)">100</text><text y=".32em" transform="translate(-9,0) translate(40,293.07692307692304)">200</text><text y=".32em" transform="translate(-9,0) translate(40,254.61538461538464)">300</text><text y=".32em" transform="translate(-9,0) translate(40,216.15384615384616)">400</text><text y=".32em" transform="translate(-9,0) translate(40,177.69230769230765)">500</text><text y=".32em" transform="translate(-9,0) translate(40,139.23076923076923)">600</text><text y=".32em" transform="translate(-9,0) translate(40,100.76923076923076)">700</text><text y=".32em" transform="translate(-9,0) translate(40,62.307692307692314)">800</text><text y=".32em" transform="translate(-9,0) translate(40,23.846153846153832)">900</text></g><g aria-label="y-axis label" text-anchor="start"><text y=".71em" transform="translate(-37,-17) translate(40,20)">↑ Frequency</text></g><g aria-label="x-axis tick" fill="none" stroke="currentColor"><path transform="translate(40,370)" d="M0,0L0,6"/><path transform="translate(101.05263157894737,370)" d="M0,0L0,6"/><path transform="translate(162.10526315789474,370)" d="M0,0L0,6"/><path transform="translate(223.1578947368421,370)" d="M0,0L0,6"/><path transform="translate(284.2105263157894,370)" d="M0,0L0,6"/><path transform="translate(345.2631578947369,370)" d="M0,0L0,6"/><path transform="translate(406.3157894736843,370)" d="M0,0L0,6"/><path transform="translate(467.36842105263156,370)" d="M0,0L0,6"/><path transform="translate(528.421052631579,370)" d="M0,0L0,6"/><path transform="translate(589.4736842105264,370)" d="M0,0L0,6"/></g><g aria-label="x-axis tick label" font-variant="tabular-nums"><text y=".71em" transform="translate(0,9) translate(40,370)">0.4</text><text y=".71em" transform="translate(0,9) translate(101.05263157894737,370)">0.6</text><text y=".71em" transform="translate(0,9) translate(162.10526315789474,370)">0.8</text><text y=".71em" transform="translate(0,9) translate(223.1578947368421,370)">1.0</text><text y=".71em" transform="translate(0,9) translate(284.2105263157894,370)">1.2</text><text y=".71em" transform="translate(0,9) translate(345.2631578947369,370)">1.4</text><text y=".71em" transform="translate(0,9) translate(406.3157894736843,370)">1.6</text><text y=".71em" transform="translate(0,9) translate(467.36842105263156,370)">1.8</text><text y=".71em" transform="translate(0,9) translate(528.421052631579,370)">2.0</text><text y=".71em" transform="translate(0,9) translate(589.4736842105264,370)">2.2</text></g><g aria-label="x-axis label" text-anchor="end"><text transform="translate(17,27) translate(620,370)">Airspeed Multiplier →</text></g><g aria-label="rect"><rect x="40.5" y="316.538" width="14.263" height="53.462"/><rect x="86.289" y="142.308" width="14.263" height="227.692"/><rect x="147.342" y="268.462" width="14.263" height="101.538"/><rect x="162.605" y="325" width="14.263" height="45"/><rect x="223.658" y="20" width="14.263" height="350"/><rect x="254.184" y="193.846" width="14.263" height="176.154"/><rect x="376.289" y="357.692" width="14.263" height="12.308"/><rect x="528.921" y="363.846" width="14.263" height="6.154"/><rect x="605.237" y="364.615" width="14.263" height="5.385"/></g></svg>