<svg class="plot-d6a7b5" fill="currentColor" font-family="system-ui, sans-serif" font-size="10" text-anchor="middle" width="640" height="400" viewBox="0 0 640 400" xmlns="http://www.w3.org/2000/svg" xmlns:xlink="http://www.w3.org/1999/xlink" color="#1e90ff"><style>:where(.plot-d6a7b5){--plot-background: white;display:block;height:intrinsic;max-width:100%}:where(.plot-d6a7b5 text),:where(.plot-d6a7b5 tspan){white-space:pre}</style><g aria-label="y-axis tick" fill="none" stroke="currentColor"><path transform="translate(40,370)" d="M0,0L-6,0"/><path transform="translate(40,338.5251798561151)" d="M0,0L-6,0"/><path transform="translate(40,307.0503597122302)" d="M0,0L-6,0"/><path transform="translate(40,275.57553956834533)" d="M0,0L-6,0"/><path transform="translate(40,244.10071942446044)" d="M0,0L-6,0"/><path transform="translate(40,212.62589928057557)" d="M0,0L-6,0"/><path transform="translate(40,181.15107913669067)" d="M0,0L-6,0"/><path transform="translate(40,149.67625899280577)" d="M0,0L-6,0"/><path transform="translate(40,118.20143884892087)" d="M0,0L-6,0"/><path transform="translate(40,86.72661870503599)" d="M0,0L-6,0"/><path transform="translate(40,55.25179856115109)" d="M0,0L-6,0"/><path transform="translate(40,23.776978417266204)" d="M0,0L-6,0"/></g><g aria-label="y-axis tick label" text-anchor="end" font-variant="tabular-nums"><text y=".32em" transform="translate(-9,0) translate(40,370)">0</text><text y=".32em" transform="translate(-9,0) translate(40,338.5251798561151)">50</text><text y=".32em" transform="translate(-9,0) translate(40,307.0503597122302)">100</text><text y=".32em" transform="translate(-9,0) translate(40,275.57553956834533)">150</text><text y=".32em" transform="translate(-9,0) translate(40,244.10071942446044)">200</text><text y=".32em" transform="translate(-9,0) translate(40,212.62589928057557)">250</text><text y=".32em" transform="translate(-9,0) translate(40,181.15107913669067)">300</text><text y=".32em" transform="translate(-9,0) translate(40,149.67625899280577)">350</text><text y=".32em" transform="translate(-9,0) translate(40,118.20143884892087)">400</text><text y=".32em" transform="translate(-9,0) translate(40,86.72661870503599)">450</text><text y=".32em" transform="translate(-9,0) translate(40,55.25179856115109)">500</text><text y=".32em" transform="translate(-9,0) translate(40,23.776978417266204)">550</text></g><g aria-label="y-axis label" text-anchor="start"><text y=".71em" transform="translate(-37,-17) translate(40,20)">↑ Frequency</text></g><g aria-label="x-axis tick" fill="none" stroke="currentColor"><path transform="translate(40,370)" d="M0,0L0,6"/><path transform="translate(120.55555555555556,370)" d="M0,0L0,6"/><path transform="translate(201.11111111111111,370)" d="M0,0L0,6"/><path transform="translate(281.66666666666663,370)" d="M0,0L0,6"/><path transform="translate(362.22222222222223,370)" d="M0,0L0,6"/><path transform="translate(442.77777777777777,370)" d="M0,0L0,6"/><path transform="translate(523.3333333333333,370)" d="M0,0L0,6"/><path transform="translate(603.8888888888888,370)" d="M0,0L0,6"/></g><g aria-label="x-axis tick label" font-variant="tabular-nums"><text y=".71em" transform="translate(0,9) translate(40,370)">0.0</text><text y=".71em" transform="translate(0,9) translate(120.55555555555556,370)">0.5</text><text y=".71em" transform="translate(0,9) translate(201.11111111111111,370)">1.0</text><text y=".71em" transform="translate(0,9) translate(281.66666666666663,370)">1.5</text><text y=".71em" transform="translate(0,9) translate(362.22222222222223,370)">2.0</text><text y=".71em" transform="translate(0,9) translate(442.77777777777777,370)">2.5</text><text y=".71em" transform="translate(0,9) translate(523.3333333333333,370)">3.0</text><text y=".71em" transform="translate(0,9) translate(603.8888888888888,370)">3.5</text></g><g aria-label="x-axis label" text-anchor="end"><text transform="translate(17,27) translate(620,370)">Damage Multiplier →</text></g><g aria-label="rect"><rect x="40.5" y="20" width="31.222" height="350"/><rect x="72.722" y="171.709" width="31.222" height="198.291"/><rect x="104.944" y="317.122" width="31.222" height="52.878"/><rect x="137.167" y="294.46" width="31.222" height="75.54"/><rect x="169.389" y="194.371" width="31.222" height="175.629"/><rect x="201.611" y="94.91" width="31.222" height="275.09"/><rect x="233.833" y="257.95" width="31.222" height="112.05"/><rect x="266.056" y="312.716" width="31.222" height="57.284"/><rect x="298.278" y="158.489" width="31.222" height="211.511"/><rect x="330.5" y="355.522" width="31.222" height="14.478"/><rect x="362.722" y="357.41" width="31.222" height="12.59"/><rect x="394.944" y="357.41" width="31.222" height="12.59"/><rect x="459.389" y="312.716" width="31.222" height="57.284"/><rect x="588.278" y="357.41" width="31.222" height="12.59"/></g></svg>