<svg class="plot-d6a7b5" fill="currentColor" font-family="system-ui, sans-serif" font-size="10" text-anchor="middle" width="640" height="400" viewBox="0 0 640 400" xmlns="http://www.w3.org/2000/svg" xmlns:xlink="http://www.w3.org/1999/xlink" color="#1e90ff"><style>:where(.plot-d6a7b5){--plot-background: white;display:block;height:intrinsic;max-width:100%}:where(.plot-d6a7b5 text),:where(.plot-d6a7b5 tspan){white-space:pre}</style><g aria-label="y-axis tick" fill="none" stroke="currentColor"><path transform="translate(40,370)" d="M0,0L-6,0"/><path transform="translate(40,342.3538704581359)" d="M0,0L-6,0"/><path transform="translate(40,314.70774091627175)" d="M0,0L-6,0"/><path transform="translate(40,287.06161137440756)" d="M0,0L-6,0"/><path transform="translate(40,259.41548183254343)" d="M0,0L-6,0"/><path transform="translate(40,231.7693522906793)" d="M0,0L-6,0"/><path transform="translate(40,204.12322274881518)" d="M0,0L-6,0"/><path transform="translate(40,176.47709320695103)" d="M0,0L-6,0"/><path transform="translate(40,148.8309636650869)" d="M0,0L-6,0"/><path transform="translate(40,121.18483412322274)" d="M0,0L-6,0"/><path transform="translate(40,93.53870458135862)" d="M0,0L-6,0"/><path transform="translate(40,65.89257503949446)" d="M0,0L-6,0"/><path transform="translate(40,38.246445497630326)" d="M0,0L-6,0"/></g><g aria-label="y-axis tick label" text-anchor="end" font-variant="tabular-nums"><text y=".32em" transform="translate(-9,0) translate(40,370)">0</text><text y=".32em" transform="translate(-9,0) translate(40,342.3538704581359)">50</text><text y=".32em" transform="translate(-9,0) translate(40,314.70774091627175)">100</text><text y=".32em" transform="translate(-9,0) translate(40,287.06161137440756)">150</text><text y=".32em" transform="translate(-9,0) translate(40,259.41548183254343)">200</text><text y=".32em" transform="translate(-9,0) translate(40,231.7693522906793)">250</text><text y=".32em" transform="translate(-9,0) translate(40,204.12322274881518)">300</text><text y=".32em" transform="translate(-9,0) translate(40,176.47709320695103)">350</text><text y=".32em" transform="translate(-9,0) translate(40,148.8309636650869)">400</text><text y=".32em" transform="translate(-9,0) translate(40,121.18483412322274)">450</text><text y=".32em" transform="translate(-9,0) translate(40,93.53870458135862)">500</text><text y=".32em" transform="translate(-9,0) translate(40,65.89257503949446)">550</text><text y=".32em" transform="translate(-9,0) translate(40,38.246445497630326)">600</text></g><g aria-label="y-axis label" text-anchor="start"><text y=".71em" transform="translate(-37,-17) translate(40,20)">↑ Frequency</text></g><g aria-label="x-axis tick" fill="none" stroke="currentColor"><path transform="translate(40,370)" d="M0,0L0,6"/><path transform="translate(120.55555555555556,370)" d="M0,0L0,6"/><path transform="translate(201.11111111111111,370)" d="M0,0L0,6"/><path transform="translate(281.66666666666663,370)" d="M0,0L0,6"/><path transform="translate(362.22222222222223,370)" d="M0,0L0,6"/><path transform="translate(442.77777777777777,370)" d="M0,0L0,6"/><path transform="translate(523.3333333333333,370)" d="M0,0L0,6"/><path transform="translate(603.8888888888888,370)" d="M0,0L0,6"/></g><g aria-label="x-axis tick label" font-variant="tabular-nums"><text y=".71em" transform="translate(0,9) translate(40,370)">0.0</text><text y=".71em" transform="translate(0,9) translate(120.55555555555556,370)">0.5</text><text y=".71em" transform="translate(0,9) translate(201.11111111111111,370)">1.0</text><text y=".71em" transform="translate(0,9) translate(281.66666666666663,370)">1.5</text><text y=".71em" transform="translate(0,9) translate(362.22222222222223,370)">2.0</text><text y=".71em" transform="translate(0,9) translate(442.77777777777777,370)">2.5</text><text y=".71em" transform="translate(0,9) translate(523.3333333333333,370)">3.0</text><text y=".71em" transform="translate(0,9) translate(603.8888888888888,370)">3.5</text></g><g aria-label="x-axis label" text-anchor="end"><text transform="translate(17,27) translate(620,370)">Damage Multiplier →</text></g><g aria-label="rect"><rect x="40.5" y="81.374" width="31.222" height="288.626"/><rect x="72.722" y="236.746" width="31.222" height="133.254"/><rect x="104.944" y="329.084" width="31.222" height="40.916"/><rect x="137.167" y="296.461" width="31.222" height="73.539"/><rect x="169.389" y="236.746" width="31.222" height="133.254"/><rect x="201.611" y="20" width="31.222" height="350"/><rect x="233.833" y="283.744" width="31.222" height="86.256"/><rect x="266.056" y="325.213" width="31.222" height="44.787"/><rect x="298.278" y="142.196" width="31.222" height="227.804"/><rect x="330.5" y="359.494" width="31.222" height="10.506"/><rect x="362.722" y="364.471" width="31.222" height="5.529"/><rect x="459.389" y="325.213" width="31.222" height="44.787"/><rect x="588.278" y="364.471" width="31.222" height="5.529"/></g></svg>