<svg class="plot-d6a7b5" fill="currentColor" font-family="system-ui, sans-serif" font-size="10" text-anchor="middle" width="640" height="400" viewBox="0 0 640 400" xmlns="http://www.w3.org/2000/svg" xmlns:xlink="http://www.w3.org/1999/xlink" color="#1e90ff"><style>:where(.plot-d6a7b5){--plot-background: white;display:block;height:intrinsic;max-width:100%}:where(.plot-d6a7b5 text),:where(.plot-d6a7b5 tspan){white-space:pre}</style><g aria-label="y-axis tick" fill="none" stroke="currentColor"><path transform="translate(40,370)" d="M0,0L-6,0"/><path transform="translate(40,327.62711864406776)" d="M0,0L-6,0"/><path transform="translate(40,285.2542372881356)" d="M0,0L-6,0"/><path transform="translate(40,242.88135593220338)" d="M0,0L-6,0"/><path transform="translate(40,200.5084745762712)" d="M0,0L-6,0"/><path transform="translate(40,158.135593220339)" d="M0,0L-6,0"/><path transform="translate(40,115.76271186440677)" d="M0,0L-6,0"/><path transform="translate(40,73.38983050847459)" d="M0,0L-6,0"/><path transform="translate(40,31.01694915254237)" d="M0,0L-6,0"/></g><g aria-label="y-axis tick label" text-anchor="end" font-variant="tabular-nums"><text y=".32em" transform="translate(-9,0) translate(40,370)">0</text><text y=".32em" transform="translate(-9,0) translate(40,327.62711864406776)">100</text><text y=".32em" transform="translate(-9,0) translate(40,285.2542372881356)">200</text><text y=".32em" transform="translate(-9,0) translate(40,242.88135593220338)">300</text><text y=".32em" transform="translate(-9,0) translate(40,200.5084745762712)">400</text><text y=".32em" transform="translate(-9,0) translate(40,158.135593220339)">500</text><text y=".32em" transform="translate(-9,0) translate(40,115.76271186440677)">600</text><text y=".32em" transform="translate(-9,0) translate(40,73.38983050847459)">700</text><text y=".32em" transform="translate(-9,0) translate(40,31.01694915254237)">800</text></g><g aria-label="y-axis label" text-anchor="start"><text y=".71em" transform="translate(-37,-17) translate(40,20)">↑ Frequency</text></g><g aria-label="x-axis tick" fill="none" stroke="currentColor"><path transform="translate(78.66666666666669,370)" d="M0,0L0,6"/><path transform="translate(156,370)" d="M0,0L0,6"/><path transform="translate(233.33333333333331,370)" d="M0,0L0,6"/><path transform="translate(310.6666666666666,370)" d="M0,0L0,6"/><path transform="translate(388,370)" d="M0,0L0,6"/><path transform="translate(465.3333333333333,370)" d="M0,0L0,6"/><path transform="translate(542.6666666666666,370)" d="M0,0L0,6"/><path transform="translate(620,370)" d="M0,0L0,6"/></g><g aria-label="x-axis tick label" font-variant="tabular-nums"><text y=".71em" transform="translate(0,9) translate(78.66666666666669,370)">0.8</text><text y=".71em" transform="translate(0,9) translate(156,370)">1.0</text><text y=".71em" transform="translate(0,9) translate(233.33333333333331,370)">1.2</text><text y=".71em" transform="translate(0,9) translate(310.6666666666666,370)">1.4</text><text y=".71em" transform="translate(0,9) translate(388,370)">1.6</text><text y=".71em" transform="translate(0,9) translate(465.3333333333333,370)">1.8</text><text y=".71em" transform="translate(0,9) translate(542.6666666666666,370)">2.0</text><text y=".71em" transform="translate(0,9) translate(620,370)">2.2</text></g><g aria-label="x-axis label" text-anchor="end"><text transform="translate(17,27) translate(620,370)">Gravity Multiplier →</text></g><g aria-label="rect"><rect x="40.5" y="200.508" width="37.667" height="169.492"/><rect x="79.167" y="78.475" width="37.667" height="291.525"/><rect x="156.5" y="20" width="37.667" height="350"/><rect x="233.833" y="358.559" width="37.667" height="11.441"/><rect x="427.167" y="20.847" width="37.667" height="349.153"/><rect x="581.833" y="357.288" width="37.667" height="12.712"/></g></svg>