<svg class="plot-d6a7b5" fill="currentColor" font-family="system-ui, sans-serif" font-size="10" text-anchor="middle" width="640" height="400" viewBox="0 0 640 400" xmlns="http://www.w3.org/2000/svg" xmlns:xlink="http://www.w3.org/1999/xlink" color="#1e90ff"><style>:where(.plot-d6a7b5){--plot-background: white;display:block;height:intrinsic;max-width:100%}:where(.plot-d6a7b5 text),:where(.plot-d6a7b5 tspan){white-space:pre}</style><g aria-label="y-axis tick" fill="none" stroke="currentColor"><path transform="translate(40,370)" d="M0,0L-6,0"/><path transform="translate(40,336.3784822286263)" d="M0,0L-6,0"/><path transform="translate(40,302.75696445725265)" d="M0,0L-6,0"/><path transform="translate(40,269.135446685879)" d="M0,0L-6,0"/><path transform="translate(40,235.51392891450527)" d="M0,0L-6,0"/><path transform="translate(40,201.8924111431316)" d="M0,0L-6,0"/><path transform="translate(40,168.27089337175792)" d="M0,0L-6,0"/><path transform="translate(40,134.64937560038427)" d="M0,0L-6,0"/><path transform="translate(40,101.02785782901056)" d="M0,0L-6,0"/><path transform="translate(40,67.4063400576369)" d="M0,0L-6,0"/><path transform="translate(40,33.78482228626321)" d="M0,0L-6,0"/></g><g aria-label="y-axis tick label" text-anchor="end" font-variant="tabular-nums"><text y=".32em" transform="translate(-9,0) translate(40,370)">0</text><text y=".32em" transform="translate(-9,0) translate(40,336.3784822286263)">200</text><text y=".32em" transform="translate(-9,0) translate(40,302.75696445725265)">400</text><text y=".32em" transform="translate(-9,0) translate(40,269.135446685879)">600</text><text y=".32em" transform="translate(-9,0) translate(40,235.51392891450527)">800</text><text y=".32em" transform="translate(-9,0) translate(40,201.8924111431316)">1,000</text><text y=".32em" transform="translate(-9,0) translate(40,168.27089337175792)">1,200</text><text y=".32em" transform="translate(-9,0) translate(40,134.64937560038427)">1,400</text><text y=".32em" transform="translate(-9,0) translate(40,101.02785782901056)">1,600</text><text y=".32em" transform="translate(-9,0) translate(40,67.4063400576369)">1,800</text><text y=".32em" transform="translate(-9,0) translate(40,33.78482228626321)">2,000</text></g><g aria-label="y-axis label" text-anchor="start"><text y=".71em" transform="translate(-37,-17) translate(40,20)">↑ Frequency</text></g><g aria-label="x-axis tick" fill="none" stroke="currentColor"><path transform="translate(122.85714285714286,370)" d="M0,0L0,6"/><path transform="translate(233.33333333333331,370)" d="M0,0L0,6"/><path transform="translate(343.8095238095238,370)" d="M0,0L0,6"/><path transform="translate(454.28571428571433,370)" d="M0,0L0,6"/><path transform="translate(564.7619047619047,370)" d="M0,0L0,6"/></g><g aria-label="x-axis tick label" font-variant="tabular-nums"><text y=".71em" transform="translate(0,9) translate(122.85714285714286,370)">0.4</text><text y=".71em" transform="translate(0,9) translate(233.33333333333331,370)">0.6</text><text y=".71em" transform="translate(0,9) translate(343.8095238095238,370)">0.8</text><text y=".71em" transform="translate(0,9) translate(454.28571428571433,370)">1.0</text><text y=".71em" transform="translate(0,9) translate(564.7619047619047,370)">1.2</text></g><g aria-label="x-axis label" text-anchor="end"><text transform="translate(17,27) translate(620,370)">Draw Speed Multiplier →</text></g><g aria-label="rect"><rect x="40.5" y="356.551" width="26.619" height="13.449"/><rect x="454.786" y="20" width="26.619" height="350"/><rect x="592.881" y="306.119" width="26.619" height="63.881"/></g></svg>