<svg class="plot-d6a7b5" fill="currentColor" font-family="system-ui, sans-serif" font-size="10" text-anchor="middle" width="640" height="400" viewBox="0 0 640 400" xmlns="http://www.w3.org/2000/svg" xmlns:xlink="http://www.w3.org/1999/xlink" color="#1e90ff"><style>:where(.plot-d6a7b5){--plot-background: white;display:block;height:intrinsic;max-width:100%}:where(.plot-d6a7b5 text),:where(.plot-d6a7b5 tspan){white-space:pre}</style><g aria-label="y-axis tick" fill="none" stroke="currentColor"><path transform="translate(40,370)" d="M0,0L-6,0"/><path transform="translate(40,329.1121495327103)" d="M0,0L-6,0"/><path transform="translate(40,288.22429906542055)" d="M0,0L-6,0"/><path transform="translate(40,247.33644859813083)" d="M0,0L-6,0"/><path transform="translate(40,206.4485981308411)" d="M0,0L-6,0"/><path transform="translate(40,165.56074766355138)" d="M0,0L-6,0"/><path transform="translate(40,124.6728971962617)" d="M0,0L-6,0"/><path transform="translate(40,83.78504672897195)" d="M0,0L-6,0"/><path transform="translate(40,42.89719626168225)" d="M0,0L-6,0"/></g><g aria-label="y-axis tick label" text-anchor="end" font-variant="tabular-nums"><text y=".32em" transform="translate(-9,0) translate(40,370)">0</text><text y=".32em" transform="translate(-9,0) translate(40,329.1121495327103)">100</text><text y=".32em" transform="translate(-9,0) translate(40,288.22429906542055)">200</text><text y=".32em" transform="translate(-9,0) translate(40,247.33644859813083)">300</text><text y=".32em" transform="translate(-9,0) translate(40,206.4485981308411)">400</text><text y=".32em" transform="translate(-9,0) translate(40,165.56074766355138)">500</text><text y=".32em" transform="translate(-9,0) translate(40,124.6728971962617)">600</text><text y=".32em" transform="translate(-9,0) translate(40,83.78504672897195)">700</text><text y=".32em" transform="translate(-9,0) translate(40,42.89719626168225)">800</text></g><g aria-label="y-axis label" text-anchor="start"><text y=".71em" transform="translate(-37,-17) translate(40,20)">↑ Frequency</text></g><g aria-label="x-axis tick" fill="none" stroke="currentColor"><path transform="translate(78.66666666666669,370)" d="M0,0L0,6"/><path transform="translate(156,370)" d="M0,0L0,6"/><path transform="translate(233.33333333333331,370)" d="M0,0L0,6"/><path transform="translate(310.6666666666666,370)" d="M0,0L0,6"/><path transform="translate(388,370)" d="M0,0L0,6"/><path transform="translate(465.3333333333333,370)" d="M0,0L0,6"/><path transform="translate(542.6666666666666,370)" d="M0,0L0,6"/><path transform="translate(620,370)" d="M0,0L0,6"/></g><g aria-label="x-axis tick label" font-variant="tabular-nums"><text y=".71em" transform="translate(0,9) translate(78.66666666666669,370)">0.8</text><text y=".71em" transform="translate(0,9) translate(156,370)">1.0</text><text y=".71em" transform="translate(0,9) translate(233.33333333333331,370)">1.2</text><text y=".71em" transform="translate(0,9) translate(310.6666666666666,370)">1.4</text><text y=".71em" transform="translate(0,9) translate(388,370)">1.6</text><text y=".71em" transform="translate(0,9) translate(465.3333333333333,370)">1.8</text><text y=".71em" transform="translate(0,9) translate(542.6666666666666,370)">2.0</text><text y=".71em" transform="translate(0,9) translate(620,370)">2.2</text></g><g aria-label="x-axis label" text-anchor="end"><text transform="translate(17,27) translate(620,370)">Gravity Multiplier →</text></g><g aria-label="rect"><rect x="40.5" y="214.626" width="37.667" height="155.374"/><rect x="79.167" y="142.255" width="37.667" height="227.745"/><rect x="156.5" y="20" width="37.667" height="350"/><rect x="233.833" y="350.374" width="37.667" height="19.626"/><rect x="427.167" y="90.736" width="37.667" height="279.264"/><rect x="581.833" y="362.64" width="37.667" height="7.36"/></g></svg>