<svg class="plot-d6a7b5" fill="currentColor" font-family="system-ui, sans-serif" font-size="10" text-anchor="middle" width="640" height="400" viewBox="0 0 640 400" xmlns="http://www.w3.org/2000/svg" xmlns:xlink="http://www.w3.org/1999/xlink" color="#1e90ff"><style>:where(.plot-d6a7b5){--plot-background: white;display:block;height:intrinsic;max-width:100%}:where(.plot-d6a7b5 text),:where(.plot-d6a7b5 tspan){white-space:pre}</style><g aria-label="y-axis tick" fill="none" stroke="currentColor"><path transform="translate(40,370)" d="M0,0L-6,0"/><path transform="translate(40,336.28131021194605)" d="M0,0L-6,0"/><path transform="translate(40,302.56262042389216)" d="M0,0L-6,0"/><path transform="translate(40,268.84393063583815)" d="M0,0L-6,0"/><path transform="translate(40,235.1252408477842)" d="M0,0L-6,0"/><path transform="translate(40,201.40655105973028)" d="M0,0L-6,0"/><path transform="translate(40,167.68786127167627)" d="M0,0L-6,0"/><path transform="translate(40,133.96917148362235)" d="M0,0L-6,0"/><path transform="translate(40,100.2504816955684)" d="M0,0L-6,0"/><path transform="translate(40,66.53179190751445)" d="M0,0L-6,0"/><path transform="translate(40,32.8131021194605)" d="M0,0L-6,0"/></g><g aria-label="y-axis tick label" text-anchor="end" font-variant="tabular-nums"><text y=".32em" transform="translate(-9,0) translate(40,370)">0</text><text y=".32em" transform="translate(-9,0) translate(40,336.28131021194605)">100</text><text y=".32em" transform="translate(-9,0) translate(40,302.56262042389216)">200</text><text y=".32em" transform="translate(-9,0) translate(40,268.84393063583815)">300</text><text y=".32em" transform="translate(-9,0) translate(40,235.1252408477842)">400</text><text y=".32em" transform="translate(-9,0) translate(40,201.40655105973028)">500</text><text y=".32em" transform="translate(-9,0) translate(40,167.68786127167627)">600</text><text y=".32em" transform="translate(-9,0) translate(40,133.96917148362235)">700</text><text y=".32em" transform="translate(-9,0) translate(40,100.2504816955684)">800</text><text y=".32em" transform="translate(-9,0) translate(40,66.53179190751445)">900</text><text y=".32em" transform="translate(-9,0) translate(40,32.8131021194605)">1,000</text></g><g aria-label="y-axis label" text-anchor="start"><text y=".71em" transform="translate(-37,-17) translate(40,20)">↑ Frequency</text></g><g aria-label="x-axis tick" fill="none" stroke="currentColor"><path transform="translate(40,370)" d="M0,0L0,6"/><path transform="translate(101.05263157894737,370)" d="M0,0L0,6"/><path transform="translate(162.10526315789474,370)" d="M0,0L0,6"/><path transform="translate(223.1578947368421,370)" d="M0,0L0,6"/><path transform="translate(284.2105263157894,370)" d="M0,0L0,6"/><path transform="translate(345.2631578947369,370)" d="M0,0L0,6"/><path transform="translate(406.3157894736843,370)" d="M0,0L0,6"/><path transform="translate(467.36842105263156,370)" d="M0,0L0,6"/><path transform="translate(528.421052631579,370)" d="M0,0L0,6"/><path transform="translate(589.4736842105264,370)" d="M0,0L0,6"/></g><g aria-label="x-axis tick label" font-variant="tabular-nums"><text y=".71em" transform="translate(0,9) translate(40,370)">0.4</text><text y=".71em" transform="translate(0,9) translate(101.05263157894737,370)">0.6</text><text y=".71em" transform="translate(0,9) translate(162.10526315789474,370)">0.8</text><text y=".71em" transform="translate(0,9) translate(223.1578947368421,370)">1.0</text><text y=".71em" transform="translate(0,9) translate(284.2105263157894,370)">1.2</text><text y=".71em" transform="translate(0,9) translate(345.2631578947369,370)">1.4</text><text y=".71em" transform="translate(0,9) translate(406.3157894736843,370)">1.6</text><text y=".71em" transform="translate(0,9) translate(467.36842105263156,370)">1.8</text><text y=".71em" transform="translate(0,9) translate(528.421052631579,370)">2.0</text><text y=".71em" transform="translate(0,9) translate(589.4736842105264,370)">2.2</text></g><g aria-label="x-axis label" text-anchor="end"><text transform="translate(17,27) translate(620,370)">Airspeed Multiplier →</text></g><g aria-label="rect"><rect x="40.5" y="313.353" width="14.263" height="56.647"/><rect x="86.289" y="148.805" width="14.263" height="221.195"/><rect x="147.342" y="314.701" width="14.263" height="55.299"/><rect x="162.605" y="321.445" width="14.263" height="48.555"/><rect x="223.658" y="20" width="14.263" height="350"/><rect x="254.184" y="176.455" width="14.263" height="193.545"/><rect x="528.921" y="360.896" width="14.263" height="9.104"/><rect x="605.237" y="361.908" width="14.263" height="8.092"/></g></svg>