<svg class="plot-d6a7b5" fill="currentColor" font-family="system-ui, sans-serif" font-size="10" text-anchor="middle" width="640" height="400" viewBox="0 0 640 400" xmlns="http://www.w3.org/2000/svg" xmlns:xlink="http://www.w3.org/1999/xlink" color="#1e90ff"><style>:where(.plot-d6a7b5){--plot-background: white;display:block;height:intrinsic;max-width:100%}:where(.plot-d6a7b5 text),:where(.plot-d6a7b5 tspan){white-space:pre}</style><g aria-label="y-axis tick" fill="none" stroke="currentColor"><path transform="translate(40,370)" d="M0,0L-6,0"/><path transform="translate(40,339.20369555653315)" d="M0,0L-6,0"/><path transform="translate(40,308.40739111306647)" d="M0,0L-6,0"/><path transform="translate(40,277.6110866695996)" d="M0,0L-6,0"/><path transform="translate(40,246.8147822261329)" d="M0,0L-6,0"/><path transform="translate(40,216.01847778266608)" d="M0,0L-6,0"/><path transform="translate(40,185.2221733391993)" d="M0,0L-6,0"/><path transform="translate(40,154.42586889573252)" d="M0,0L-6,0"/><path transform="translate(40,123.62956445226573)" d="M0,0L-6,0"/><path transform="translate(40,92.83326000879893)" d="M0,0L-6,0"/><path transform="translate(40,62.036955565332164)" d="M0,0L-6,0"/><path transform="translate(40,31.24065112186537)" d="M0,0L-6,0"/></g><g aria-label="y-axis tick label" text-anchor="end" font-variant="tabular-nums"><text y=".32em" transform="translate(-9,0) translate(40,370)">0</text><text y=".32em" transform="translate(-9,0) translate(40,339.20369555653315)">200</text><text y=".32em" transform="translate(-9,0) translate(40,308.40739111306647)">400</text><text y=".32em" transform="translate(-9,0) translate(40,277.6110866695996)">600</text><text y=".32em" transform="translate(-9,0) translate(40,246.8147822261329)">800</text><text y=".32em" transform="translate(-9,0) translate(40,216.01847778266608)">1,000</text><text y=".32em" transform="translate(-9,0) translate(40,185.2221733391993)">1,200</text><text y=".32em" transform="translate(-9,0) translate(40,154.42586889573252)">1,400</text><text y=".32em" transform="translate(-9,0) translate(40,123.62956445226573)">1,600</text><text y=".32em" transform="translate(-9,0) translate(40,92.83326000879893)">1,800</text><text y=".32em" transform="translate(-9,0) translate(40,62.036955565332164)">2,000</text><text y=".32em" transform="translate(-9,0) translate(40,31.24065112186537)">2,200</text></g><g aria-label="y-axis label" text-anchor="start"><text y=".71em" transform="translate(-37,-17) translate(40,20)">↑ Frequency</text></g><g aria-label="x-axis tick" fill="none" stroke="currentColor"><path transform="translate(40,370)" d="M0,0L0,6"/><path transform="translate(135.08196721311478,370)" d="M0,0L0,6"/><path transform="translate(230.16393442622953,370)" d="M0,0L0,6"/><path transform="translate(325.24590163934425,370)" d="M0,0L0,6"/><path transform="translate(420.32786885245906,370)" d="M0,0L0,6"/><path transform="translate(515.4098360655738,370)" d="M0,0L0,6"/><path transform="translate(610.4918032786885,370)" d="M0,0L0,6"/></g><g aria-label="x-axis tick label" font-variant="tabular-nums"><text y=".71em" transform="translate(0,9) translate(40,370)">0</text><text y=".71em" transform="translate(0,9) translate(135.08196721311478,370)">1</text><text y=".71em" transform="translate(0,9) translate(230.16393442622953,370)">2</text><text y=".71em" transform="translate(0,9) translate(325.24590163934425,370)">3</text><text y=".71em" transform="translate(0,9) translate(420.32786885245906,370)">4</text><text y=".71em" transform="translate(0,9) translate(515.4098360655738,370)">5</text><text y=".71em" transform="translate(0,9) translate(610.4918032786885,370)">6</text></g><g aria-label="x-axis label" text-anchor="end"><text transform="translate(17,27) translate(620,370)">Item Output Amount →</text></g><g aria-label="rect"><rect x="40.5" y="367.536" width="8.508" height="2.464"/><rect x="610.992" y="20" width="8.508" height="350"/></g></svg>