<svg class="plot-d6a7b5" fill="currentColor" font-family="system-ui, sans-serif" font-size="10" text-anchor="middle" width="640" height="400" viewBox="0 0 640 400" xmlns="http://www.w3.org/2000/svg" xmlns:xlink="http://www.w3.org/1999/xlink" color="#1e90ff"><style>:where(.plot-d6a7b5){--plot-background: white;display:block;height:intrinsic;max-width:100%}:where(.plot-d6a7b5 text),:where(.plot-d6a7b5 tspan){white-space:pre}</style><g aria-label="y-axis tick" fill="none" stroke="currentColor"><path transform="translate(40,370)" d="M0,0L-6,0"/><path transform="translate(40,340.53872053872055)" d="M0,0L-6,0"/><path transform="translate(40,311.07744107744105)" d="M0,0L-6,0"/><path transform="translate(40,281.61616161616155)" d="M0,0L-6,0"/><path transform="translate(40,252.15488215488213)" d="M0,0L-6,0"/><path transform="translate(40,222.6936026936027)" d="M0,0L-6,0"/><path transform="translate(40,193.2323232323232)" d="M0,0L-6,0"/><path transform="translate(40,163.77104377104376)" d="M0,0L-6,0"/><path transform="translate(40,134.3097643097643)" d="M0,0L-6,0"/><path transform="translate(40,104.84848484848486)" d="M0,0L-6,0"/><path transform="translate(40,75.38720538720537)" d="M0,0L-6,0"/><path transform="translate(40,45.925925925925924)" d="M0,0L-6,0"/></g><g aria-label="y-axis tick label" text-anchor="end" font-variant="tabular-nums"><text y=".32em" transform="translate(-9,0) translate(40,370)">0</text><text y=".32em" transform="translate(-9,0) translate(40,340.53872053872055)">50</text><text y=".32em" transform="translate(-9,0) translate(40,311.07744107744105)">100</text><text y=".32em" transform="translate(-9,0) translate(40,281.61616161616155)">150</text><text y=".32em" transform="translate(-9,0) translate(40,252.15488215488213)">200</text><text y=".32em" transform="translate(-9,0) translate(40,222.6936026936027)">250</text><text y=".32em" transform="translate(-9,0) translate(40,193.2323232323232)">300</text><text y=".32em" transform="translate(-9,0) translate(40,163.77104377104376)">350</text><text y=".32em" transform="translate(-9,0) translate(40,134.3097643097643)">400</text><text y=".32em" transform="translate(-9,0) translate(40,104.84848484848486)">450</text><text y=".32em" transform="translate(-9,0) translate(40,75.38720538720537)">500</text><text y=".32em" transform="translate(-9,0) translate(40,45.925925925925924)">550</text></g><g aria-label="y-axis label" text-anchor="start"><text y=".71em" transform="translate(-37,-17) translate(40,20)">↑ Frequency</text></g><g aria-label="x-axis tick" fill="none" stroke="currentColor"><path transform="translate(40,370)" d="M0,0L0,6"/><path transform="translate(151.53846153846155,370)" d="M0,0L0,6"/><path transform="translate(263.0769230769231,370)" d="M0,0L0,6"/><path transform="translate(374.6153846153846,370)" d="M0,0L0,6"/><path transform="translate(486.15384615384613,370)" d="M0,0L0,6"/><path transform="translate(597.6923076923076,370)" d="M0,0L0,6"/></g><g aria-label="x-axis tick label" font-variant="tabular-nums"><text y=".71em" transform="translate(0,9) translate(40,370)">1</text><text y=".71em" transform="translate(0,9) translate(151.53846153846155,370)">2</text><text y=".71em" transform="translate(0,9) translate(263.0769230769231,370)">3</text><text y=".71em" transform="translate(0,9) translate(374.6153846153846,370)">4</text><text y=".71em" transform="translate(0,9) translate(486.15384615384613,370)">5</text><text y=".71em" transform="translate(0,9) translate(597.6923076923076,370)">6</text></g><g aria-label="x-axis label" text-anchor="end"><text transform="translate(17,27) translate(620,370)">Maximum Fire Stack →</text></g><g aria-label="rect"><rect x="40.5" y="20" width="21.308" height="350"/><rect x="152.038" y="151.987" width="21.308" height="218.013"/><rect x="263.577" y="271.01" width="21.308" height="98.99"/><rect x="375.115" y="315.791" width="21.308" height="54.209"/><rect x="486.654" y="365.286" width="21.308" height="4.714"/><rect x="598.192" y="367.643" width="21.308" height="2.357"/></g></svg>