<svg class="plot-d6a7b5" fill="currentColor" font-family="system-ui, sans-serif" font-size="10" text-anchor="middle" width="640" height="400" viewBox="0 0 640 400" xmlns="http://www.w3.org/2000/svg" xmlns:xlink="http://www.w3.org/1999/xlink" color="#1e90ff"><style>:where(.plot-d6a7b5){--plot-background: white;display:block;height:intrinsic;max-width:100%}:where(.plot-d6a7b5 text),:where(.plot-d6a7b5 tspan){white-space:pre}</style><g aria-label="y-axis tick" fill="none" stroke="currentColor"><path transform="translate(40,370)" d="M0,0L-6,0"/><path transform="translate(40,328.5308056872038)" d="M0,0L-6,0"/><path transform="translate(40,287.06161137440756)" d="M0,0L-6,0"/><path transform="translate(40,245.59241706161137)" d="M0,0L-6,0"/><path transform="translate(40,204.12322274881518)" d="M0,0L-6,0"/><path transform="translate(40,162.65402843601896)" d="M0,0L-6,0"/><path transform="translate(40,121.18483412322274)" d="M0,0L-6,0"/><path transform="translate(40,79.71563981042652)" d="M0,0L-6,0"/><path transform="translate(40,38.246445497630326)" d="M0,0L-6,0"/></g><g aria-label="y-axis tick label" text-anchor="end" font-variant="tabular-nums"><text y=".32em" transform="translate(-9,0) translate(40,370)">0</text><text y=".32em" transform="translate(-9,0) translate(40,328.5308056872038)">200</text><text y=".32em" transform="translate(-9,0) translate(40,287.06161137440756)">400</text><text y=".32em" transform="translate(-9,0) translate(40,245.59241706161137)">600</text><text y=".32em" transform="translate(-9,0) translate(40,204.12322274881518)">800</text><text y=".32em" transform="translate(-9,0) translate(40,162.65402843601896)">1,000</text><text y=".32em" transform="translate(-9,0) translate(40,121.18483412322274)">1,200</text><text y=".32em" transform="translate(-9,0) translate(40,79.71563981042652)">1,400</text><text y=".32em" transform="translate(-9,0) translate(40,38.246445497630326)">1,600</text></g><g aria-label="y-axis label" text-anchor="start"><text y=".71em" transform="translate(-37,-17) translate(40,20)">↑ Frequency</text></g><g aria-label="x-axis tick" fill="none" stroke="currentColor"><path transform="translate(76.25,370)" d="M0,0L0,6"/><path transform="translate(148.75,370)" d="M0,0L0,6"/><path transform="translate(221.25,370)" d="M0,0L0,6"/><path transform="translate(293.75,370)" d="M0,0L0,6"/><path transform="translate(366.25,370)" d="M0,0L0,6"/><path transform="translate(438.75,370)" d="M0,0L0,6"/><path transform="translate(511.25,370)" d="M0,0L0,6"/><path transform="translate(583.75,370)" d="M0,0L0,6"/></g><g aria-label="x-axis tick label" font-variant="tabular-nums"><text y=".71em" transform="translate(0,9) translate(76.25,370)">10</text><text y=".71em" transform="translate(0,9) translate(148.75,370)">20</text><text y=".71em" transform="translate(0,9) translate(221.25,370)">30</text><text y=".71em" transform="translate(0,9) translate(293.75,370)">40</text><text y=".71em" transform="translate(0,9) translate(366.25,370)">50</text><text y=".71em" transform="translate(0,9) translate(438.75,370)">60</text><text y=".71em" transform="translate(0,9) translate(511.25,370)">70</text><text y=".71em" transform="translate(0,9) translate(583.75,370)">80</text></g><g aria-label="x-axis label" text-anchor="end"><text transform="translate(17,27) translate(620,370)">Name Length →</text></g><g aria-label="rect"><rect x="40.5" y="369.793" width="35.25" height=".207"/><rect x="76.75" y="20" width="35.25" height="350"/><rect x="113" y="314.224" width="35.25" height="55.776"/><rect x="149.25" y="357.974" width="35.25" height="12.026"/><rect x="185.5" y="356.523" width="35.25" height="13.477"/><rect x="221.75" y="351.754" width="35.25" height="18.246"/><rect x="258" y="354.449" width="35.25" height="15.551"/><rect x="294.25" y="361.291" width="35.25" height="8.709"/><rect x="330.5" y="355.9" width="35.25" height="14.1"/><rect x="366.75" y="357.974" width="35.25" height="12.026"/><rect x="403" y="359.633" width="35.25" height="10.367"/><rect x="439.25" y="359.84" width="35.25" height="10.16"/><rect x="475.5" y="365.646" width="35.25" height="4.354"/><rect x="511.75" y="368.963" width="35.25" height="1.037"/><rect x="548" y="369.171" width="35.25" height=".829"/><rect x="584.25" y="369.793" width="35.25" height=".207"/></g></svg>