<svg class="plot-d6a7b5" fill="currentColor" font-family="system-ui, sans-serif" font-size="10" text-anchor="middle" width="640" height="400" viewBox="0 0 640 400" xmlns="http://www.w3.org/2000/svg" xmlns:xlink="http://www.w3.org/1999/xlink" color="#1e90ff"><style>:where(.plot-d6a7b5){--plot-background: white;display:block;height:intrinsic;max-width:100%}:where(.plot-d6a7b5 text),:where(.plot-d6a7b5 tspan){white-space:pre}</style><g aria-label="y-axis tick" fill="none" stroke="currentColor"><path transform="translate(40,370)" d="M0,0L-6,0"/><path transform="translate(40,338.6379928315412)" d="M0,0L-6,0"/><path transform="translate(40,307.27598566308245)" d="M0,0L-6,0"/><path transform="translate(40,275.9139784946237)" d="M0,0L-6,0"/><path transform="translate(40,244.55197132616485)" d="M0,0L-6,0"/><path transform="translate(40,213.1899641577061)" d="M0,0L-6,0"/><path transform="translate(40,181.82795698924733)" d="M0,0L-6,0"/><path transform="translate(40,150.46594982078852)" d="M0,0L-6,0"/><path transform="translate(40,119.10394265232975)" d="M0,0L-6,0"/><path transform="translate(40,87.74193548387099)" d="M0,0L-6,0"/><path transform="translate(40,56.37992831541217)" d="M0,0L-6,0"/><path transform="translate(40,25.017921146953412)" d="M0,0L-6,0"/></g><g aria-label="y-axis tick label" text-anchor="end" font-variant="tabular-nums"><text y=".32em" transform="translate(-9,0) translate(40,370)">0</text><text y=".32em" transform="translate(-9,0) translate(40,338.6379928315412)">50</text><text y=".32em" transform="translate(-9,0) translate(40,307.27598566308245)">100</text><text y=".32em" transform="translate(-9,0) translate(40,275.9139784946237)">150</text><text y=".32em" transform="translate(-9,0) translate(40,244.55197132616485)">200</text><text y=".32em" transform="translate(-9,0) translate(40,213.1899641577061)">250</text><text y=".32em" transform="translate(-9,0) translate(40,181.82795698924733)">300</text><text y=".32em" transform="translate(-9,0) translate(40,150.46594982078852)">350</text><text y=".32em" transform="translate(-9,0) translate(40,119.10394265232975)">400</text><text y=".32em" transform="translate(-9,0) translate(40,87.74193548387099)">450</text><text y=".32em" transform="translate(-9,0) translate(40,56.37992831541217)">500</text><text y=".32em" transform="translate(-9,0) translate(40,25.017921146953412)">550</text></g><g aria-label="y-axis label" text-anchor="start"><text y=".71em" transform="translate(-37,-17) translate(40,20)">↑ Frequency</text></g><g aria-label="x-axis tick" fill="none" stroke="currentColor"><path transform="translate(40,370)" d="M0,0L0,6"/><path transform="translate(145.45454545454547,370)" d="M0,0L0,6"/><path transform="translate(250.90909090909093,370)" d="M0,0L0,6"/><path transform="translate(356.3636363636363,370)" d="M0,0L0,6"/><path transform="translate(461.81818181818187,370)" d="M0,0L0,6"/><path transform="translate(567.2727272727273,370)" d="M0,0L0,6"/></g><g aria-label="x-axis tick label" font-variant="tabular-nums"><text y=".71em" transform="translate(0,9) translate(40,370)">1</text><text y=".71em" transform="translate(0,9) translate(145.45454545454547,370)">2</text><text y=".71em" transform="translate(0,9) translate(250.90909090909093,370)">3</text><text y=".71em" transform="translate(0,9) translate(356.3636363636363,370)">4</text><text y=".71em" transform="translate(0,9) translate(461.81818181818187,370)">5</text><text y=".71em" transform="translate(0,9) translate(567.2727272727273,370)">6</text></g><g aria-label="x-axis label" text-anchor="end"><text transform="translate(17,27) translate(620,370)">Maximum Fire Stack →</text></g><g aria-label="rect"><rect x="40.5" y="20" width="51.727" height="350"/><rect x="145.955" y="238.28" width="51.727" height="131.72"/><rect x="251.409" y="298.495" width="51.727" height="71.505"/><rect x="356.864" y="330.484" width="51.727" height="39.516"/><rect x="462.318" y="366.237" width="51.727" height="3.763"/><rect x="567.773" y="368.118" width="51.727" height="1.882"/></g></svg>