<svg class="plot-d6a7b5" fill="currentColor" font-family="system-ui, sans-serif" font-size="10" text-anchor="middle" width="640" height="400" viewBox="0 0 640 400" xmlns="http://www.w3.org/2000/svg" xmlns:xlink="http://www.w3.org/1999/xlink" color="#1e90ff"><style>:where(.plot-d6a7b5){--plot-background: white;display:block;height:intrinsic;max-width:100%}:where(.plot-d6a7b5 text),:where(.plot-d6a7b5 tspan){white-space:pre}</style><g aria-label="y-axis tick" fill="none" stroke="currentColor"><path transform="translate(40,370)" d="M0,0L-6,0"/><path transform="translate(40,344.2173112338858)" d="M0,0L-6,0"/><path transform="translate(40,318.4346224677716)" d="M0,0L-6,0"/><path transform="translate(40,292.65193370165747)" d="M0,0L-6,0"/><path transform="translate(40,266.8692449355433)" d="M0,0L-6,0"/><path transform="translate(40,241.08655616942912)" d="M0,0L-6,0"/><path transform="translate(40,215.3038674033149)" d="M0,0L-6,0"/><path transform="translate(40,189.52117863720073)" d="M0,0L-6,0"/><path transform="translate(40,163.73848987108653)" d="M0,0L-6,0"/><path transform="translate(40,137.95580110497238)" d="M0,0L-6,0"/><path transform="translate(40,112.17311233885819)" d="M0,0L-6,0"/><path transform="translate(40,86.390423572744)" d="M0,0L-6,0"/><path transform="translate(40,60.60773480662984)" d="M0,0L-6,0"/><path transform="translate(40,34.82504604051566)" d="M0,0L-6,0"/></g><g aria-label="y-axis tick label" text-anchor="end" font-variant="tabular-nums"><text y=".32em" transform="translate(-9,0) translate(40,370)">0</text><text y=".32em" transform="translate(-9,0) translate(40,344.2173112338858)">200</text><text y=".32em" transform="translate(-9,0) translate(40,318.4346224677716)">400</text><text y=".32em" transform="translate(-9,0) translate(40,292.65193370165747)">600</text><text y=".32em" transform="translate(-9,0) translate(40,266.8692449355433)">800</text><text y=".32em" transform="translate(-9,0) translate(40,241.08655616942912)">1,000</text><text y=".32em" transform="translate(-9,0) translate(40,215.3038674033149)">1,200</text><text y=".32em" transform="translate(-9,0) translate(40,189.52117863720073)">1,400</text><text y=".32em" transform="translate(-9,0) translate(40,163.73848987108653)">1,600</text><text y=".32em" transform="translate(-9,0) translate(40,137.95580110497238)">1,800</text><text y=".32em" transform="translate(-9,0) translate(40,112.17311233885819)">2,000</text><text y=".32em" transform="translate(-9,0) translate(40,86.390423572744)">2,200</text><text y=".32em" transform="translate(-9,0) translate(40,60.60773480662984)">2,400</text><text y=".32em" transform="translate(-9,0) translate(40,34.82504604051566)">2,600</text></g><g aria-label="y-axis label" text-anchor="start"><text y=".71em" transform="translate(-37,-17) translate(40,20)">↑ Frequency</text></g><g aria-label="x-axis tick" fill="none" stroke="currentColor"><path transform="translate(40,370)" d="M0,0L0,6"/><path transform="translate(151.53846153846155,370)" d="M0,0L0,6"/><path transform="translate(263.0769230769231,370)" d="M0,0L0,6"/><path transform="translate(374.6153846153846,370)" d="M0,0L0,6"/><path transform="translate(486.15384615384613,370)" d="M0,0L0,6"/><path transform="translate(597.6923076923076,370)" d="M0,0L0,6"/></g><g aria-label="x-axis tick label" font-variant="tabular-nums"><text y=".71em" transform="translate(0,9) translate(40,370)">1</text><text y=".71em" transform="translate(0,9) translate(151.53846153846155,370)">2</text><text y=".71em" transform="translate(0,9) translate(263.0769230769231,370)">3</text><text y=".71em" transform="translate(0,9) translate(374.6153846153846,370)">4</text><text y=".71em" transform="translate(0,9) translate(486.15384615384613,370)">5</text><text y=".71em" transform="translate(0,9) translate(597.6923076923076,370)">6</text></g><g aria-label="x-axis label" text-anchor="end"><text transform="translate(17,27) translate(620,370)">Item Output Amount →</text></g><g aria-label="rect"><rect x="40.5" y="367.035" width="21.308" height="2.965"/><rect x="263.577" y="362.652" width="21.308" height="7.348"/><rect x="598.192" y="20" width="21.308" height="350"/></g></svg>