<svg class="plot-d6a7b5" fill="currentColor" font-family="system-ui, sans-serif" font-size="10" text-anchor="middle" width="640" height="400" viewBox="0 0 640 400" xmlns="http://www.w3.org/2000/svg" xmlns:xlink="http://www.w3.org/1999/xlink" color="#1e90ff"><style>:where(.plot-d6a7b5){--plot-background: white;display:block;height:intrinsic;max-width:100%}:where(.plot-d6a7b5 text),:where(.plot-d6a7b5 tspan){white-space:pre}</style><g aria-label="y-axis tick" fill="none" stroke="currentColor"><path transform="translate(40,370)" d="M0,0L-6,0"/><path transform="translate(40,342.6455646737007)" d="M0,0L-6,0"/><path transform="translate(40,315.2911293474013)" d="M0,0L-6,0"/><path transform="translate(40,287.93669402110197)" d="M0,0L-6,0"/><path transform="translate(40,260.58225869480265)" d="M0,0L-6,0"/><path transform="translate(40,233.22782336850332)" d="M0,0L-6,0"/><path transform="translate(40,205.873388042204)" d="M0,0L-6,0"/><path transform="translate(40,178.51895271590465)" d="M0,0L-6,0"/><path transform="translate(40,151.16451738960532)" d="M0,0L-6,0"/><path transform="translate(40,123.810082063306)" d="M0,0L-6,0"/><path transform="translate(40,96.45564673700665)" d="M0,0L-6,0"/><path transform="translate(40,69.10121141070731)" d="M0,0L-6,0"/><path transform="translate(40,41.74677608440797)" d="M0,0L-6,0"/></g><g aria-label="y-axis tick label" text-anchor="end" font-variant="tabular-nums"><text y=".32em" transform="translate(-9,0) translate(40,370)">0</text><text y=".32em" transform="translate(-9,0) translate(40,342.6455646737007)">200</text><text y=".32em" transform="translate(-9,0) translate(40,315.2911293474013)">400</text><text y=".32em" transform="translate(-9,0) translate(40,287.93669402110197)">600</text><text y=".32em" transform="translate(-9,0) translate(40,260.58225869480265)">800</text><text y=".32em" transform="translate(-9,0) translate(40,233.22782336850332)">1,000</text><text y=".32em" transform="translate(-9,0) translate(40,205.873388042204)">1,200</text><text y=".32em" transform="translate(-9,0) translate(40,178.51895271590465)">1,400</text><text y=".32em" transform="translate(-9,0) translate(40,151.16451738960532)">1,600</text><text y=".32em" transform="translate(-9,0) translate(40,123.810082063306)">1,800</text><text y=".32em" transform="translate(-9,0) translate(40,96.45564673700665)">2,000</text><text y=".32em" transform="translate(-9,0) translate(40,69.10121141070731)">2,200</text><text y=".32em" transform="translate(-9,0) translate(40,41.74677608440797)">2,400</text></g><g aria-label="y-axis label" text-anchor="start"><text y=".71em" transform="translate(-37,-17) translate(40,20)">↑ Frequency</text></g><g aria-label="x-axis tick" fill="none" stroke="currentColor"><path transform="translate(40,370)" d="M0,0L0,6"/><path transform="translate(150.47619047619048,370)" d="M0,0L0,6"/><path transform="translate(260.95238095238096,370)" d="M0,0L0,6"/><path transform="translate(371.4285714285715,370)" d="M0,0L0,6"/><path transform="translate(481.904761904762,370)" d="M0,0L0,6"/><path transform="translate(592.3809523809525,370)" d="M0,0L0,6"/></g><g aria-label="x-axis tick label" font-variant="tabular-nums"><text y=".71em" transform="translate(0,9) translate(40,370)">1.0</text><text y=".71em" transform="translate(0,9) translate(150.47619047619048,370)">1.2</text><text y=".71em" transform="translate(0,9) translate(260.95238095238096,370)">1.4</text><text y=".71em" transform="translate(0,9) translate(371.4285714285715,370)">1.6</text><text y=".71em" transform="translate(0,9) translate(481.904761904762,370)">1.8</text><text y=".71em" transform="translate(0,9) translate(592.3809523809525,370)">2.0</text></g><g aria-label="x-axis label" text-anchor="end"><text transform="translate(17,27) translate(620,370)">Minimum Draw Multiplier →</text></g><g aria-label="rect"><rect x="40.5" y="20" width="26.619" height="350"/><rect x="592.881" y="362.614" width="26.619" height="7.386"/></g></svg>