<svg class="plot-d6a7b5" fill="currentColor" font-family="system-ui, sans-serif" font-size="10" text-anchor="middle" width="640" height="400" viewBox="0 0 640 400" xmlns="http://www.w3.org/2000/svg" xmlns:xlink="http://www.w3.org/1999/xlink" color="#1e90ff"><style>:where(.plot-d6a7b5){--plot-background: white;display:block;height:intrinsic;max-width:100%}:where(.plot-d6a7b5 text),:where(.plot-d6a7b5 tspan){white-space:pre}</style><g aria-label="y-grid" stroke="currentColor" stroke-opacity=".1"><line x1="40" x2="620" y1="370" y2="370"/><line x1="40" x2="620" y1="341.564" y2="341.564"/><line x1="40" x2="620" y1="313.127" y2="313.127"/><line x1="40" x2="620" y1="284.691" y2="284.691"/><line x1="40" x2="620" y1="256.254" y2="256.254"/><line x1="40" x2="620" y1="227.818" y2="227.818"/><line x1="40" x2="620" y1="199.382" y2="199.382"/><line x1="40" x2="620" y1="170.945" y2="170.945"/><line x1="40" x2="620" y1="142.509" y2="142.509"/><line x1="40" x2="620" y1="114.073" y2="114.073"/><line x1="40" x2="620" y1="85.636" y2="85.636"/><line x1="40" x2="620" y1="57.2" y2="57.2"/><line x1="40" x2="620" y1="28.763" y2="28.763"/></g><g aria-label="y-axis tick" fill="none" stroke="currentColor"><path transform="translate(40,370)" d="M0,0L-6,0"/><path transform="translate(40,341.5636221705601)" d="M0,0L-6,0"/><path transform="translate(40,313.1272443411202)" d="M0,0L-6,0"/><path transform="translate(40,284.69086651168027)" d="M0,0L-6,0"/><path transform="translate(40,256.2544886822404)" d="M0,0L-6,0"/><path transform="translate(40,227.8181108528005)" d="M0,0L-6,0"/><path transform="translate(40,199.3817330233606)" d="M0,0L-6,0"/><path transform="translate(40,170.9453551939207)" d="M0,0L-6,0"/><path transform="translate(40,142.50897736448078)" d="M0,0L-6,0"/><path transform="translate(40,114.07259953504088)" d="M0,0L-6,0"/><path transform="translate(40,85.63622170560097)" d="M0,0L-6,0"/><path transform="translate(40,57.19984387616108)" d="M0,0L-6,0"/><path transform="translate(40,28.76346604672118)" d="M0,0L-6,0"/></g><g aria-label="y-axis tick label" text-anchor="end" font-variant="tabular-nums"><text y=".32em" transform="translate(-9,0) translate(40,370)">0</text><text y=".32em" transform="translate(-9,0) translate(40,341.5636221705601)">5</text><text y=".32em" transform="translate(-9,0) translate(40,313.1272443411202)">10</text><text y=".32em" transform="translate(-9,0) translate(40,284.69086651168027)">15</text><text y=".32em" transform="translate(-9,0) translate(40,256.2544886822404)">20</text><text y=".32em" transform="translate(-9,0) translate(40,227.8181108528005)">25</text><text y=".32em" transform="translate(-9,0) translate(40,199.3817330233606)">30</text><text y=".32em" transform="translate(-9,0) translate(40,170.9453551939207)">35</text><text y=".32em" transform="translate(-9,0) translate(40,142.50897736448078)">40</text><text y=".32em" transform="translate(-9,0) translate(40,114.07259953504088)">45</text><text y=".32em" transform="translate(-9,0) translate(40,85.63622170560097)">50</text><text y=".32em" transform="translate(-9,0) translate(40,57.19984387616108)">55</text><text y=".32em" transform="translate(-9,0) translate(40,28.76346604672118)">60</text></g><g aria-label="y-axis label" text-anchor="start"><text y=".71em" transform="translate(-37,-17) translate(40,20)">↑ Burn Time (seconds)</text></g><g aria-label="x-grid" stroke="currentColor" stroke-opacity=".1"><line x1="88.333" x2="88.333" y1="20" y2="370"/><line x1="185" x2="185" y1="20" y2="370"/><line x1="281.667" x2="281.667" y1="20" y2="370"/><line x1="378.333" x2="378.333" y1="20" y2="370"/><line x1="475" x2="475" y1="20" y2="370"/><line x1="571.667" x2="571.667" y1="20" y2="370"/></g><g aria-label="x-axis tick" fill="none" stroke="currentColor"><path transform="translate(88.33333333333333,370)" d="M0,0L0,6"/><path transform="translate(185,370)" d="M0,0L0,6"/><path transform="translate(281.6666666666667,370)" d="M0,0L0,6"/><path transform="translate(378.33333333333337,370)" d="M0,0L0,6"/><path transform="translate(475,370)" d="M0,0L0,6"/><path transform="translate(571.6666666666666,370)" d="M0,0L0,6"/></g><g aria-label="x-axis tick label" font-variant="tabular-nums"><text y=".71em" transform="translate(0,9) translate(88.33333333333333,370)">1</text><text y=".71em" transform="translate(0,9) translate(185,370)">2</text><text y=".71em" transform="translate(0,9) translate(281.6666666666667,370)">3</text><text y=".71em" transform="translate(0,9) translate(378.33333333333337,370)">4</text><text y=".71em" transform="translate(0,9) translate(475,370)">5</text><text y=".71em" transform="translate(0,9) translate(571.6666666666666,370)">6</text></g><g aria-label="x-axis label" text-anchor="end"><text transform="translate(17,27) translate(620,370)">Fire Stack →</text></g><g aria-label="area" fill-opacity=".3" stroke-linejoin="round" stroke-linecap="round"><path fill="#23171B" stroke="#23171B" d="M40,337.328L40.483,337.154L40.967,336.98L41.45,336.808L41.933,336.638L42.417,336.469L42.9,336.302L43.383,336.137L43.867,335.972L44.35,335.81L44.833,335.649L45.317,335.489L45.8,335.331L46.283,335.174L46.767,335.018L47.25,334.865L47.733,334.712L48.217,334.561L48.7,334.411L49.183,334.263L49.667,334.116L50.15,333.971L50.633,333.827L51.117,333.684L51.6,333.543L52.083,333.403L52.567,333.264L53.05,333.127L53.533,332.991L54.017,332.856L54.5,332.723L54.983,332.591L55.467,332.46L55.95,332.331L56.433,332.203L56.917,332.076L57.4,331.95L57.883,331.826L58.367,331.702L58.85,331.581L59.333,331.46L59.817,331.34L60.3,331.222L60.783,331.105L61.267,330.989L61.75,330.875L62.233,330.761L62.717,330.649L63.2,330.538L63.683,330.428L64.167,330.319L64.65,330.211L65.133,330.104L65.617,329.999L66.1,329.894L66.583,329.791L67.067,329.689L67.55,329.588L68.033,329.488L68.517,329.389L69,329.291L69.483,329.194L69.967,329.098L70.45,329.003L70.933,328.91L71.417,328.817L71.9,328.725L72.383,328.635L72.867,328.545L73.35,328.456L73.833,328.368L74.317,328.282L74.8,328.196L75.283,328.111L75.767,328.027L76.25,327.944L76.733,327.862L77.217,327.781L77.7,327.701L78.183,327.622L78.667,327.543L79.15,327.466L79.633,327.389L80.117,327.314L80.6,327.239L81.083,327.165L81.567,327.092L82.05,327.02L82.533,326.948L83.017,326.878L83.5,326.808L83.983,326.739L84.467,326.671L84.95,326.604L85.433,326.537L85.917,326.471L86.4,326.407L86.883,326.342L87.367,326.279L87.85,326.216L88.333,326.154L88.817,326.093L89.3,326.033L89.783,325.973L90.267,325.914L90.75,325.856L91.233,325.798L91.717,325.742L92.2,325.685L92.683,325.63L93.167,325.575L93.65,325.521L94.133,325.468L94.617,325.415L95.1,325.363L95.583,325.311L96.067,325.26L96.55,325.21L97.033,325.16L97.517,325.111L98,325.063L98.483,325.015L98.967,324.968L99.45,324.921L99.933,324.875L100.417,324.83L100.9,324.785L101.383,324.74L101.867,324.697L102.35,324.653L102.833,324.611L103.317,324.568L103.8,324.527L104.283,324.485L104.767,324.445L105.25,324.405L105.733,324.365L106.217,324.326L106.7,324.287L107.183,324.249L107.667,324.211L108.15,324.174L108.633,324.137L109.117,324.1L109.6,324.064L110.083,324.029L110.567,323.994L111.05,323.959L111.533,323.925L112.017,323.891L112.5,323.857L112.983,323.824L113.467,323.791L113.95,323.759L114.433,323.727L114.917,323.695L115.4,323.664L115.883,323.633L116.367,323.603L116.85,323.572L117.333,323.543L117.817,323.513L118.3,323.484L118.783,323.455L119.267,323.426L119.75,323.398L120.233,323.37L120.717,323.342L121.2,323.315L121.683,323.287L122.167,323.26L122.65,323.234L123.133,323.207L123.617,323.181L124.1,323.155L124.583,323.13L125.067,323.104L125.55,323.079L126.033,323.054L126.517,323.029L127,323.005L127.483,322.98L127.967,322.956L128.45,322.932L128.933,322.908L129.417,322.885L129.9,322.861L130.383,322.838L130.867,322.815L131.35,322.792L131.833,322.769L132.317,322.746L132.8,322.723L133.283,322.701L133.767,322.679L134.25,322.656L134.733,322.634L135.217,322.612L135.7,322.59L136.183,322.568L136.183,370L135.7,370L135.217,370L134.733,370L134.25,370L133.767,370L133.283,370L132.8,370L132.317,370L131.833,370L131.35,370L130.867,370L130.383,370L129.9,370L129.417,370L128.933,370L128.45,370L127.967,370L127.483,370L127,370L126.517,370L126.033,370L125.55,370L125.067,370L124.583,370L124.1,370L123.617,370L123.133,370L122.65,370L122.167,370L121.683,370L121.2,370L120.717,370L120.233,370L119.75,370L119.267,370L118.783,370L118.3,370L117.817,370L117.333,370L116.85,370L116.367,370L115.883,370L115.4,370L114.917,370L114.433,370L113.95,370L113.467,370L112.983,370L112.5,370L112.017,370L111.533,370L111.05,370L110.567,370L110.083,370L109.6,370L109.117,370L108.633,370L108.15,370L107.667,370L107.183,370L106.7,370L106.217,370L105.733,370L105.25,370L104.767,370L104.283,370L103.8,370L103.317,370L102.833,370L102.35,370L101.867,370L101.383,370L100.9,370L100.417,370L99.933,370L99.45,370L98.967,370L98.483,370L98,370L97.517,370L97.033,370L96.55,370L96.067,370L95.583,370L95.1,370L94.617,370L94.133,370L93.65,370L93.167,370L92.683,370L92.2,370L91.717,370L91.233,370L90.75,370L90.267,370L89.783,370L89.3,370L88.817,370L88.333,370L87.85,370L87.367,370L86.883,370L86.4,370L85.917,370L85.433,370L84.95,370L84.467,370L83.983,370L83.5,370L83.017,370L82.533,370L82.05,370L81.567,370L81.083,370L80.6,370L80.117,370L79.633,370L79.15,370L78.667,370L78.183,370L77.7,370L77.217,370L76.733,370L76.25,370L75.767,370L75.283,370L74.8,370L74.317,370L73.833,370L73.35,370L72.867,370L72.383,370L71.9,370L71.417,370L70.933,370L70.45,370L69.967,370L69.483,370L69,370L68.517,370L68.033,370L67.55,370L67.067,370L66.583,370L66.1,370L65.617,370L65.133,370L64.65,370L64.167,370L63.683,370L63.2,370L62.717,370L62.233,370L61.75,370L61.267,370L60.783,370L60.3,370L59.817,370L59.333,370L58.85,370L58.367,370L57.883,370L57.4,370L56.917,370L56.433,370L55.95,370L55.467,370L54.983,370L54.5,370L54.017,370L53.533,370L53.05,370L52.567,370L52.083,370L51.6,370L51.117,370L50.633,370L50.15,370L49.667,370L49.183,370L48.7,370L48.217,370L47.733,370L47.25,370L46.767,370L46.283,370L45.8,370L45.317,370L44.833,370L44.35,370L43.867,370L43.383,370L42.9,370L42.417,370L41.933,370L41.45,370L40.967,370L40.483,370L40,370Z"/><path fill="#3987F9" stroke="#3987F9" d="M136.667,322.547L137.15,322.525L137.633,322.503L138.117,322.482L138.6,322.46L139.083,322.439L139.567,322.418L140.05,322.396L140.533,322.375L141.017,322.354L141.5,322.332L141.983,322.311L142.467,322.29L142.95,322.269L143.433,322.248L143.917,322.226L144.4,322.205L144.883,322.184L145.367,322.163L145.85,322.142L146.333,322.12L146.817,322.099L147.3,322.078L147.783,322.056L148.267,322.035L148.75,322.013L149.233,321.992L149.717,321.97L150.2,321.948L150.683,321.927L151.167,321.905L151.65,321.883L152.133,321.861L152.617,321.839L153.1,321.816L153.583,321.794L154.067,321.771L154.55,321.749L155.033,321.726L155.517,321.703L156,321.68L156.483,321.657L156.967,321.634L157.45,321.61L157.933,321.587L158.417,321.563L158.9,321.539L159.383,321.515L159.867,321.49L160.35,321.466L160.833,321.441L161.317,321.416L161.8,321.391L162.283,321.366L162.767,321.341L163.25,321.315L163.733,321.289L164.217,321.263L164.7,321.236L165.183,321.21L165.667,321.183L166.15,321.156L166.633,321.129L167.117,321.101L167.6,321.073L168.083,321.045L168.567,321.017L169.05,320.988L169.533,320.959L170.017,320.93L170.5,320.9L170.983,320.87L171.467,320.84L171.95,320.81L172.433,320.779L172.917,320.748L173.4,320.717L173.883,320.685L174.367,320.653L174.85,320.621L175.333,320.588L175.817,320.555L176.3,320.522L176.783,320.488L177.267,320.454L177.75,320.42L178.233,320.385L178.717,320.35L179.2,320.314L179.683,320.279L180.167,320.242L180.65,320.206L181.133,320.169L181.617,320.131L182.1,320.093L182.583,320.055L183.067,320.017L183.55,319.977L184.033,319.938L184.517,319.898L185,319.858L185.483,319.817L185.967,319.776L186.45,319.734L186.933,319.692L187.417,319.65L187.9,319.607L188.383,319.564L188.867,319.52L189.35,319.475L189.833,319.431L190.317,319.385L190.8,319.34L191.283,319.293L191.767,319.247L192.25,319.2L192.733,319.152L193.217,319.104L193.7,319.055L194.183,319.006L194.667,318.956L195.15,318.906L195.633,318.855L196.117,318.804L196.6,318.753L197.083,318.7L197.567,318.647L198.05,318.594L198.533,318.54L199.017,318.486L199.5,318.431L199.983,318.375L200.467,318.319L200.95,318.263L201.433,318.206L201.917,318.148L202.4,318.09L202.883,318.031L203.367,317.971L203.85,317.911L204.333,317.851L204.817,317.789L205.3,317.728L205.783,317.665L206.267,317.602L206.75,317.539L207.233,317.474L207.717,317.41L208.2,317.344L208.683,317.278L209.167,317.212L209.65,317.144L210.133,317.076L210.617,317.008L211.1,316.939L211.583,316.869L212.067,316.798L212.55,316.727L213.033,316.656L213.517,316.583L214,316.51L214.483,316.437L214.967,316.362L215.45,316.287L215.933,316.211L216.417,316.135L216.9,316.058L217.383,315.98L217.867,315.902L218.35,315.823L218.833,315.743L219.317,315.663L219.8,315.582L220.283,315.5L220.767,315.417L221.25,315.334L221.733,315.25L222.217,315.165L222.7,315.08L223.183,314.994L223.667,314.907L224.15,314.82L224.633,314.731L225.117,314.643L225.6,314.553L226.083,314.462L226.567,314.371L227.05,314.279L227.533,314.187L228.017,314.093L228.5,313.999L228.983,313.904L229.467,313.809L229.95,313.712L230.433,313.615L230.917,313.517L231.4,313.419L231.883,313.319L232.367,313.219L232.85,313.118L232.85,370L232.367,370L231.883,370L231.4,370L230.917,370L230.433,370L229.95,370L229.467,370L228.983,370L228.5,370L228.017,370L227.533,370L227.05,370L226.567,370L226.083,370L225.6,370L225.117,370L224.633,370L224.15,370L223.667,370L223.183,370L222.7,370L222.217,370L221.733,370L221.25,370L220.767,370L220.283,370L219.8,370L219.317,370L218.833,370L218.35,370L217.867,370L217.383,370L216.9,370L216.417,370L215.933,370L215.45,370L214.967,370L214.483,370L214,370L213.517,370L213.033,370L212.55,370L212.067,370L211.583,370L211.1,370L210.617,370L210.133,370L209.65,370L209.167,370L208.683,370L208.2,370L207.717,370L207.233,370L206.75,370L206.267,370L205.783,370L205.3,370L204.817,370L204.333,370L203.85,370L203.367,370L202.883,370L202.4,370L201.917,370L201.433,370L200.95,370L200.467,370L199.983,370L199.5,370L199.017,370L198.533,370L198.05,370L197.567,370L197.083,370L196.6,370L196.117,370L195.633,370L195.15,370L194.667,370L194.183,370L193.7,370L193.217,370L192.733,370L192.25,370L191.767,370L191.283,370L190.8,370L190.317,370L189.833,370L189.35,370L188.867,370L188.383,370L187.9,370L187.417,370L186.933,370L186.45,370L185.967,370L185.483,370L185,370L184.517,370L184.033,370L183.55,370L183.067,370L182.583,370L182.1,370L181.617,370L181.133,370L180.65,370L180.167,370L179.683,370L179.2,370L178.717,370L178.233,370L177.75,370L177.267,370L176.783,370L176.3,370L175.817,370L175.333,370L174.85,370L174.367,370L173.883,370L173.4,370L172.917,370L172.433,370L171.95,370L171.467,370L170.983,370L170.5,370L170.017,370L169.533,370L169.05,370L168.567,370L168.083,370L167.6,370L167.117,370L166.633,370L166.15,370L165.667,370L165.183,370L164.7,370L164.217,370L163.733,370L163.25,370L162.767,370L162.283,370L161.8,370L161.317,370L160.833,370L160.35,370L159.867,370L159.383,370L158.9,370L158.417,370L157.933,370L157.45,370L156.967,370L156.483,370L156,370L155.517,370L155.033,370L154.55,370L154.067,370L153.583,370L153.1,370L152.617,370L152.133,370L151.65,370L151.167,370L150.683,370L150.2,370L149.717,370L149.233,370L148.75,370L148.267,370L147.783,370L147.3,370L146.817,370L146.333,370L145.85,370L145.367,370L144.883,370L144.4,370L143.917,370L143.433,370L142.95,370L142.467,370L141.983,370L141.5,370L141.017,370L140.533,370L140.05,370L139.567,370L139.083,370L138.6,370L138.117,370L137.633,370L137.15,370L136.667,370Z"/><path fill="#2EE5AE" stroke="#2EE5AE" d="M233.333,313.016L233.817,312.914L234.3,312.81L234.783,312.706L235.267,312.601L235.75,312.496L236.233,312.389L236.717,312.282L237.2,312.174L237.683,312.065L238.167,311.955L238.65,311.845L239.133,311.734L239.617,311.621L240.1,311.509L240.583,311.395L241.067,311.28L241.55,311.165L242.033,311.049L242.517,310.932L243,310.814L243.483,310.695L243.967,310.576L244.45,310.456L244.933,310.334L245.417,310.212L245.9,310.09L246.383,309.966L246.867,309.841L247.35,309.716L247.833,309.59L248.317,309.463L248.8,309.335L249.283,309.206L249.767,309.076L250.25,308.946L250.733,308.815L251.217,308.682L251.7,308.549L252.183,308.415L252.667,308.28L253.15,308.145L253.633,308.008L254.117,307.871L254.6,307.732L255.083,307.593L255.567,307.453L256.05,307.312L256.533,307.17L257.017,307.027L257.5,306.884L257.983,306.739L258.467,306.594L258.95,306.447L259.433,306.3L259.917,306.152L260.4,306.003L260.883,305.853L261.367,305.702L261.85,305.55L262.333,305.398L262.817,305.244L263.3,305.089L263.783,304.934L264.267,304.778L264.75,304.62L265.233,304.462L265.717,304.303L266.2,304.143L266.683,303.982L267.167,303.82L267.65,303.657L268.133,303.494L268.617,303.329L269.1,303.163L269.583,302.997L270.067,302.829L270.55,302.661L271.033,302.492L271.517,302.321L272,302.15L272.483,301.978L272.967,301.805L273.45,301.631L273.933,301.455L274.417,301.28L274.9,301.103L275.383,300.925L275.867,300.746L276.35,300.566L276.833,300.385L277.317,300.204L277.8,300.021L278.283,299.837L278.767,299.653L279.25,299.467L279.733,299.281L280.217,299.093L280.7,298.905L281.183,298.715L281.667,298.525L282.15,298.333L282.633,298.141L283.117,297.948L283.6,297.754L284.083,297.558L284.567,297.362L285.05,297.165L285.533,296.967L286.017,296.767L286.5,296.567L286.983,296.366L287.467,296.164L287.95,295.961L288.433,295.757L288.917,295.552L289.4,295.346L289.883,295.139L290.367,294.931L290.85,294.722L291.333,294.512L291.817,294.301L292.3,294.089L292.783,293.876L293.267,293.662L293.75,293.447L294.233,293.231L294.717,293.014L295.2,292.796L295.683,292.577L296.167,292.357L296.65,292.136L297.133,291.914L297.617,291.692L298.1,291.468L298.583,291.243L299.067,291.017L299.55,290.79L300.033,290.562L300.517,290.333L301,290.103L301.483,289.872L301.967,289.64L302.45,289.407L302.933,289.173L303.417,288.938L303.9,288.703L304.383,288.466L304.867,288.228L305.35,287.989L305.833,287.749L306.317,287.508L306.8,287.266L307.283,287.023L307.767,286.779L308.25,286.534L308.733,286.288L309.217,286.041L309.7,285.793L310.183,285.544L310.667,285.293L311.15,285.042L311.633,284.79L312.117,284.537L312.6,284.283L313.083,284.028L313.567,283.772L314.05,283.515L314.533,283.257L315.017,282.997L315.5,282.737L315.983,282.476L316.467,282.214L316.95,281.951L317.433,281.687L317.917,281.421L318.4,281.155L318.883,280.888L319.367,280.62L319.85,280.35L320.333,280.08L320.817,279.809L321.3,279.536L321.783,279.263L322.267,278.989L322.75,278.714L323.233,278.437L323.717,278.16L324.2,277.882L324.683,277.602L325.167,277.322L325.65,277.04L326.133,276.758L326.617,276.475L327.1,276.19L327.583,275.905L328.067,275.618L328.55,275.331L329.033,275.043L329.517,274.753L329.517,370L329.033,370L328.55,370L328.067,370L327.583,370L327.1,370L326.617,370L326.133,370L325.65,370L325.167,370L324.683,370L324.2,370L323.717,370L323.233,370L322.75,370L322.267,370L321.783,370L321.3,370L320.817,370L320.333,370L319.85,370L319.367,370L318.883,370L318.4,370L317.917,370L317.433,370L316.95,370L316.467,370L315.983,370L315.5,370L315.017,370L314.533,370L314.05,370L313.567,370L313.083,370L312.6,370L312.117,370L311.633,370L311.15,370L310.667,370L310.183,370L309.7,370L309.217,370L308.733,370L308.25,370L307.767,370L307.283,370L306.8,370L306.317,370L305.833,370L305.35,370L304.867,370L304.383,370L303.9,370L303.417,370L302.933,370L302.45,370L301.967,370L301.483,370L301,370L300.517,370L300.033,370L299.55,370L299.067,370L298.583,370L298.1,370L297.617,370L297.133,370L296.65,370L296.167,370L295.683,370L295.2,370L294.717,370L294.233,370L293.75,370L293.267,370L292.783,370L292.3,370L291.817,370L291.333,370L290.85,370L290.367,370L289.883,370L289.4,370L288.917,370L288.433,370L287.95,370L287.467,370L286.983,370L286.5,370L286.017,370L285.533,370L285.05,370L284.567,370L284.083,370L283.6,370L283.117,370L282.633,370L282.15,370L281.667,370L281.183,370L280.7,370L280.217,370L279.733,370L279.25,370L278.767,370L278.283,370L277.8,370L277.317,370L276.833,370L276.35,370L275.867,370L275.383,370L274.9,370L274.417,370L273.933,370L273.45,370L272.967,370L272.483,370L272,370L271.517,370L271.033,370L270.55,370L270.067,370L269.583,370L269.1,370L268.617,370L268.133,370L267.65,370L267.167,370L266.683,370L266.2,370L265.717,370L265.233,370L264.75,370L264.267,370L263.783,370L263.3,370L262.817,370L262.333,370L261.85,370L261.367,370L260.883,370L260.4,370L259.917,370L259.433,370L258.95,370L258.467,370L257.983,370L257.5,370L257.017,370L256.533,370L256.05,370L255.567,370L255.083,370L254.6,370L254.117,370L253.633,370L253.15,370L252.667,370L252.183,370L251.7,370L251.217,370L250.733,370L250.25,370L249.767,370L249.283,370L248.8,370L248.317,370L247.833,370L247.35,370L246.867,370L246.383,370L245.9,370L245.417,370L244.933,370L244.45,370L243.967,370L243.483,370L243,370L242.517,370L242.033,370L241.55,370L241.067,370L240.583,370L240.1,370L239.617,370L239.133,370L238.65,370L238.167,370L237.683,370L237.2,370L236.717,370L236.233,370L235.75,370L235.267,370L234.783,370L234.3,370L233.817,370L233.333,370Z"/><path fill="#95FB51" stroke="#95FB51" d="M330,274.463L330.483,274.171L330.967,273.879L331.45,273.585L331.933,273.291L332.417,272.995L332.9,272.699L333.383,272.402L333.867,272.103L334.35,271.804L334.833,271.503L335.317,271.202L335.8,270.899L336.283,270.596L336.767,270.291L337.25,269.986L337.733,269.679L338.217,269.372L338.7,269.063L339.183,268.754L339.667,268.444L340.15,268.132L340.633,267.82L341.117,267.506L341.6,267.192L342.083,266.877L342.567,266.56L343.05,266.243L343.533,265.924L344.017,265.605L344.5,265.285L344.983,264.963L345.467,264.641L345.95,264.318L346.433,263.994L346.917,263.668L347.4,263.342L347.883,263.015L348.367,262.687L348.85,262.358L349.333,262.028L349.817,261.696L350.3,261.364L350.783,261.031L351.267,260.697L351.75,260.362L352.233,260.026L352.717,259.689L353.2,259.352L353.683,259.013L354.167,258.673L354.65,258.332L355.133,257.99L355.617,257.648L356.1,257.304L356.583,256.959L357.067,256.614L357.55,256.267L358.033,255.92L358.517,255.571L359,255.222L359.483,254.872L359.967,254.52L360.45,254.168L360.933,253.815L361.417,253.461L361.9,253.106L362.383,252.75L362.867,252.393L363.35,252.035L363.833,251.676L364.317,251.316L364.8,250.956L365.283,250.594L365.767,250.231L366.25,249.868L366.733,249.503L367.217,249.138L367.7,248.772L368.183,248.405L368.667,248.037L369.15,247.668L369.633,247.298L370.117,246.927L370.6,246.555L371.083,246.182L371.567,245.809L372.05,245.434L372.533,245.059L373.017,244.682L373.5,244.305L373.983,243.927L374.467,243.548L374.95,243.168L375.433,242.787L375.917,242.406L376.4,242.023L376.883,241.64L377.367,241.255L377.85,240.87L378.333,240.484L378.817,240.097L379.3,239.709L379.783,239.32L380.267,238.93L380.75,238.54L381.233,238.148L381.717,237.756L382.2,237.363L382.683,236.969L383.167,236.574L383.65,236.178L384.133,235.782L384.617,235.384L385.1,234.986L385.583,234.587L386.067,234.187L386.55,233.786L387.033,233.384L387.517,232.982L388,232.578L388.483,232.174L388.967,231.769L389.45,231.363L389.933,230.956L390.417,230.549L390.9,230.141L391.383,229.731L391.867,229.321L392.35,228.91L392.833,228.499L393.317,228.086L393.8,227.673L394.283,227.259L394.767,226.844L395.25,226.428L395.733,226.012L396.217,225.595L396.7,225.176L397.183,224.758L397.667,224.338L398.15,223.917L398.633,223.496L399.117,223.074L399.6,222.651L400.083,222.228L400.567,221.803L401.05,221.378L401.533,220.952L402.017,220.526L402.5,220.098L402.983,219.67L403.467,219.241L403.95,218.811L404.433,218.381L404.917,217.949L405.4,217.517L405.883,217.085L406.367,216.651L406.85,216.217L407.333,215.782L407.817,215.346L408.3,214.91L408.783,214.473L409.267,214.035L409.75,213.597L410.233,213.157L410.717,212.717L411.2,212.277L411.683,211.835L412.167,211.393L412.65,210.95L413.133,210.507L413.617,210.062L414.1,209.618L414.583,209.172L415.067,208.726L415.55,208.279L416.033,207.831L416.517,207.383L417,206.934L417.483,206.484L417.967,206.034L418.45,205.583L418.933,205.131L419.417,204.679L419.9,204.226L420.383,203.772L420.867,203.318L421.35,202.863L421.833,202.407L422.317,201.951L422.8,201.494L423.283,201.037L423.767,200.579L424.25,200.12L424.733,199.661L425.217,199.201L425.7,198.74L426.183,198.279L426.183,370L425.7,370L425.217,370L424.733,370L424.25,370L423.767,370L423.283,370L422.8,370L422.317,370L421.833,370L421.35,370L420.867,370L420.383,370L419.9,370L419.417,370L418.933,370L418.45,370L417.967,370L417.483,370L417,370L416.517,370L416.033,370L415.55,370L415.067,370L414.583,370L414.1,370L413.617,370L413.133,370L412.65,370L412.167,370L411.683,370L411.2,370L410.717,370L410.233,370L409.75,370L409.267,370L408.783,370L408.3,370L407.817,370L407.333,370L406.85,370L406.367,370L405.883,370L405.4,370L404.917,370L404.433,370L403.95,370L403.467,370L402.983,370L402.5,370L402.017,370L401.533,370L401.05,370L400.567,370L400.083,370L399.6,370L399.117,370L398.633,370L398.15,370L397.667,370L397.183,370L396.7,370L396.217,370L395.733,370L395.25,370L394.767,370L394.283,370L393.8,370L393.317,370L392.833,370L392.35,370L391.867,370L391.383,370L390.9,370L390.417,370L389.933,370L389.45,370L388.967,370L388.483,370L388,370L387.517,370L387.033,370L386.55,370L386.067,370L385.583,370L385.1,370L384.617,370L384.133,370L383.65,370L383.167,370L382.683,370L382.2,370L381.717,370L381.233,370L380.75,370L380.267,370L379.783,370L379.3,370L378.817,370L378.333,370L377.85,370L377.367,370L376.883,370L376.4,370L375.917,370L375.433,370L374.95,370L374.467,370L373.983,370L373.5,370L373.017,370L372.533,370L372.05,370L371.567,370L371.083,370L370.6,370L370.117,370L369.633,370L369.15,370L368.667,370L368.183,370L367.7,370L367.217,370L366.733,370L366.25,370L365.767,370L365.283,370L364.8,370L364.317,370L363.833,370L363.35,370L362.867,370L362.383,370L361.9,370L361.417,370L360.933,370L360.45,370L359.967,370L359.483,370L359,370L358.517,370L358.033,370L357.55,370L357.067,370L356.583,370L356.1,370L355.617,370L355.133,370L354.65,370L354.167,370L353.683,370L353.2,370L352.717,370L352.233,370L351.75,370L351.267,370L350.783,370L350.3,370L349.817,370L349.333,370L348.85,370L348.367,370L347.883,370L347.4,370L346.917,370L346.433,370L345.95,370L345.467,370L344.983,370L344.5,370L344.017,370L343.533,370L343.05,370L342.567,370L342.083,370L341.6,370L341.117,370L340.633,370L340.15,370L339.667,370L339.183,370L338.7,370L338.217,370L337.733,370L337.25,370L336.767,370L336.283,370L335.8,370L335.317,370L334.833,370L334.35,370L333.867,370L333.383,370L332.9,370L332.417,370L331.933,370L331.45,370L330.967,370L330.483,370L330,370Z"/><path fill="#FEB927" stroke="#FEB927" d="M426.667,197.817L427.15,197.355L427.633,196.892L428.117,196.428L428.6,195.964L429.083,195.5L429.567,195.034L430.05,194.568L430.533,194.102L431.017,193.635L431.5,193.167L431.983,192.699L432.467,192.23L432.95,191.761L433.433,191.291L433.917,190.821L434.4,190.35L434.883,189.878L435.367,189.406L435.85,188.934L436.333,188.461L436.817,187.987L437.3,187.513L437.783,187.038L438.267,186.563L438.75,186.087L439.233,185.611L439.717,185.134L440.2,184.657L440.683,184.18L441.167,183.701L441.65,183.223L442.133,182.744L442.617,182.264L443.1,181.784L443.583,181.303L444.067,180.822L444.55,180.341L445.033,179.859L445.517,179.376L446,178.894L446.483,178.41L446.967,177.927L447.45,177.442L447.933,176.958L448.417,176.473L448.9,175.987L449.383,175.501L449.867,175.015L450.35,174.528L450.833,174.041L451.317,173.554L451.8,173.066L452.283,172.577L452.767,172.089L453.25,171.6L453.733,171.11L454.217,170.62L454.7,170.13L455.183,169.64L455.667,169.149L456.15,168.657L456.633,168.166L457.117,167.674L457.6,167.181L458.083,166.689L458.567,166.196L459.05,165.702L459.533,165.209L460.017,164.715L460.5,164.22L460.983,163.726L461.467,163.231L461.95,162.736L462.433,162.24L462.917,161.744L463.4,161.248L463.883,160.752L464.367,160.255L464.85,159.758L465.333,159.261L465.817,158.764L466.3,158.266L466.783,157.768L467.267,157.27L467.75,156.771L468.233,156.272L468.717,155.773L469.2,155.274L469.683,154.775L470.167,154.275L470.65,153.775L471.133,153.275L471.617,152.775L472.1,152.275L472.583,151.774L473.067,151.273L473.55,150.772L474.033,150.271L474.517,149.77L475,149.268L475.483,148.766L475.967,148.265L476.45,147.763L476.933,147.26L477.417,146.758L477.9,146.256L478.383,145.753L478.867,145.25L479.35,144.748L479.833,144.245L480.317,143.742L480.8,143.238L481.283,142.735L481.767,142.232L482.25,141.728L482.733,141.225L483.217,140.721L483.7,140.218L484.183,139.714L484.667,139.21L485.15,138.706L485.633,138.202L486.117,137.698L486.6,137.194L487.083,136.69L487.567,136.186L488.05,135.682L488.533,135.178L489.017,134.674L489.5,134.17L489.983,133.666L490.467,133.162L490.95,132.657L491.433,132.153L491.917,131.649L492.4,131.145L492.883,130.641L493.367,130.137L493.85,129.633L494.333,129.129L494.817,128.626L495.3,128.122L495.783,127.618L496.267,127.114L496.75,126.611L497.233,126.107L497.717,125.604L498.2,125.101L498.683,124.598L499.167,124.095L499.65,123.592L500.133,123.089L500.617,122.586L501.1,122.084L501.583,121.581L502.067,121.079L502.55,120.577L503.033,120.075L503.517,119.573L504,119.071L504.483,118.57L504.967,118.069L505.45,117.567L505.933,117.067L506.417,116.566L506.9,116.065L507.383,115.565L507.867,115.065L508.35,114.565L508.833,114.066L509.317,113.566L509.8,113.067L510.283,112.568L510.767,112.07L511.25,111.571L511.733,111.073L512.217,110.575L512.7,110.078L513.183,109.58L513.667,109.083L514.15,108.587L514.633,108.09L515.117,107.594L515.6,107.099L516.083,106.603L516.567,106.108L517.05,105.614L517.533,105.119L518.017,104.625L518.5,104.131L518.983,103.638L519.467,103.145L519.95,102.653L520.433,102.161L520.917,101.669L521.4,101.177L521.883,100.686L522.367,100.196L522.85,99.706L522.85,370L522.367,370L521.883,370L521.4,370L520.917,370L520.433,370L519.95,370L519.467,370L518.983,370L518.5,370L518.017,370L517.533,370L517.05,370L516.567,370L516.083,370L515.6,370L515.117,370L514.633,370L514.15,370L513.667,370L513.183,370L512.7,370L512.217,370L511.733,370L511.25,370L510.767,370L510.283,370L509.8,370L509.317,370L508.833,370L508.35,370L507.867,370L507.383,370L506.9,370L506.417,370L505.933,370L505.45,370L504.967,370L504.483,370L504,370L503.517,370L503.033,370L502.55,370L502.067,370L501.583,370L501.1,370L500.617,370L500.133,370L499.65,370L499.167,370L498.683,370L498.2,370L497.717,370L497.233,370L496.75,370L496.267,370L495.783,370L495.3,370L494.817,370L494.333,370L493.85,370L493.367,370L492.883,370L492.4,370L491.917,370L491.433,370L490.95,370L490.467,370L489.983,370L489.5,370L489.017,370L488.533,370L488.05,370L487.567,370L487.083,370L486.6,370L486.117,370L485.633,370L485.15,370L484.667,370L484.183,370L483.7,370L483.217,370L482.733,370L482.25,370L481.767,370L481.283,370L480.8,370L480.317,370L479.833,370L479.35,370L478.867,370L478.383,370L477.9,370L477.417,370L476.933,370L476.45,370L475.967,370L475.483,370L475,370L474.517,370L474.033,370L473.55,370L473.067,370L472.583,370L472.1,370L471.617,370L471.133,370L470.65,370L470.167,370L469.683,370L469.2,370L468.717,370L468.233,370L467.75,370L467.267,370L466.783,370L466.3,370L465.817,370L465.333,370L464.85,370L464.367,370L463.883,370L463.4,370L462.917,370L462.433,370L461.95,370L461.467,370L460.983,370L460.5,370L460.017,370L459.533,370L459.05,370L458.567,370L458.083,370L457.6,370L457.117,370L456.633,370L456.15,370L455.667,370L455.183,370L454.7,370L454.217,370L453.733,370L453.25,370L452.767,370L452.283,370L451.8,370L451.317,370L450.833,370L450.35,370L449.867,370L449.383,370L448.9,370L448.417,370L447.933,370L447.45,370L446.967,370L446.483,370L446,370L445.517,370L445.033,370L444.55,370L444.067,370L443.583,370L443.1,370L442.617,370L442.133,370L441.65,370L441.167,370L440.683,370L440.2,370L439.717,370L439.233,370L438.75,370L438.267,370L437.783,370L437.3,370L436.817,370L436.333,370L435.85,370L435.367,370L434.883,370L434.4,370L433.917,370L433.433,370L432.95,370L432.467,370L431.983,370L431.5,370L431.017,370L430.533,370L430.05,370L429.567,370L429.083,370L428.6,370L428.117,370L427.633,370L427.15,370L426.667,370Z"/><path fill="#E54813" stroke="#E54813" d="M523.333,99.216L523.817,98.727L524.3,98.238L524.783,97.75L525.267,97.262L525.75,96.774L526.233,96.287L526.717,95.801L527.2,95.314L527.683,94.829L528.167,94.344L528.65,93.859L529.133,93.375L529.617,92.892L530.1,92.409L530.583,91.926L531.067,91.444L531.55,90.963L532.033,90.482L532.517,90.001L533,89.522L533.483,89.042L533.967,88.564L534.45,88.086L534.933,87.608L535.417,87.131L535.9,86.655L536.383,86.18L536.867,85.705L537.35,85.23L537.833,84.756L538.317,84.283L538.8,83.811L539.283,83.339L539.767,82.868L540.25,82.397L540.733,81.928L541.217,81.459L541.7,80.99L542.183,80.522L542.667,80.055L543.15,79.589L543.633,79.124L544.117,78.659L544.6,78.195L545.083,77.731L545.567,77.269L546.05,76.807L546.533,76.346L547.017,75.885L547.5,75.426L547.983,74.967L548.467,74.509L548.95,74.052L549.433,73.596L549.917,73.14L550.4,72.686L550.883,72.232L551.367,71.779L551.85,71.327L552.333,70.875L552.817,70.425L553.3,69.975L553.783,69.527L554.267,69.079L554.75,68.632L555.233,68.186L555.717,67.741L556.2,67.297L556.683,66.854L557.167,66.411L557.65,65.97L558.133,65.529L558.617,65.09L559.1,64.652L559.583,64.214L560.067,63.778L560.55,63.342L561.033,62.907L561.517,62.474L562,62.041L562.483,61.61L562.967,61.179L563.45,60.75L563.933,60.322L564.417,59.894L564.9,59.468L565.383,59.043L565.867,58.619L566.35,58.196L566.833,57.774L567.317,57.353L567.8,56.933L568.283,56.515L568.767,56.097L569.25,55.681L569.733,55.266L570.217,54.852L570.7,54.439L571.183,54.027L571.667,53.616L572.15,53.207L572.633,52.799L573.117,52.392L573.6,51.986L574.083,51.582L574.567,51.178L575.05,50.776L575.533,50.376L576.017,49.976L576.5,49.578L576.983,49.181L577.467,48.785L577.95,48.39L578.433,47.997L578.917,47.605L579.4,47.215L579.883,46.826L580.367,46.438L580.85,46.051L581.333,45.666L581.817,45.282L582.3,44.899L582.783,44.518L583.267,44.139L583.75,43.76L584.233,43.383L584.717,43.008L585.2,42.633L585.683,42.261L586.167,41.889L586.65,41.52L587.133,41.151L587.617,40.784L588.1,40.419L588.583,40.055L589.067,39.692L589.55,39.331L590.033,38.972L590.517,38.614L591,38.257L591.483,37.902L591.967,37.549L592.45,37.197L592.933,36.847L593.417,36.498L593.9,36.151L594.383,35.805L594.867,35.461L595.35,35.119L595.833,34.778L596.317,34.439L596.8,34.101L597.283,33.766L597.767,33.431L598.25,33.099L598.733,32.768L599.217,32.439L599.7,32.111L600.183,31.785L600.667,31.461L601.15,31.139L601.633,30.818L602.117,30.499L602.6,30.182L603.083,29.866L603.567,29.553L604.05,29.241L604.533,28.93L605.017,28.622L605.5,28.315L605.983,28.011L606.467,27.708L606.95,27.406L607.433,27.107L607.917,26.81L608.4,26.514L608.883,26.22L609.367,25.928L609.85,25.638L610.333,25.35L610.817,25.064L611.3,24.78L611.783,24.497L612.267,24.217L612.75,23.938L613.233,23.662L613.717,23.387L614.2,23.115L614.683,22.844L615.167,22.575L615.65,22.309L616.133,22.044L616.617,21.781L617.1,21.521L617.583,21.262L618.067,21.005L618.55,20.751L619.033,20.499L619.517,20.248L619.517,370L619.033,370L618.55,370L618.067,370L617.583,370L617.1,370L616.617,370L616.133,370L615.65,370L615.167,370L614.683,370L614.2,370L613.717,370L613.233,370L612.75,370L612.267,370L611.783,370L611.3,370L610.817,370L610.333,370L609.85,370L609.367,370L608.883,370L608.4,370L607.917,370L607.433,370L606.95,370L606.467,370L605.983,370L605.5,370L605.017,370L604.533,370L604.05,370L603.567,370L603.083,370L602.6,370L602.117,370L601.633,370L601.15,370L600.667,370L600.183,370L599.7,370L599.217,370L598.733,370L598.25,370L597.767,370L597.283,370L596.8,370L596.317,370L595.833,370L595.35,370L594.867,370L594.383,370L593.9,370L593.417,370L592.933,370L592.45,370L591.967,370L591.483,370L591,370L590.517,370L590.033,370L589.55,370L589.067,370L588.583,370L588.1,370L587.617,370L587.133,370L586.65,370L586.167,370L585.683,370L585.2,370L584.717,370L584.233,370L583.75,370L583.267,370L582.783,370L582.3,370L581.817,370L581.333,370L580.85,370L580.367,370L579.883,370L579.4,370L578.917,370L578.433,370L577.95,370L577.467,370L576.983,370L576.5,370L576.017,370L575.533,370L575.05,370L574.567,370L574.083,370L573.6,370L573.117,370L572.633,370L572.15,370L571.667,370L571.183,370L570.7,370L570.217,370L569.733,370L569.25,370L568.767,370L568.283,370L567.8,370L567.317,370L566.833,370L566.35,370L565.867,370L565.383,370L564.9,370L564.417,370L563.933,370L563.45,370L562.967,370L562.483,370L562,370L561.517,370L561.033,370L560.55,370L560.067,370L559.583,370L559.1,370L558.617,370L558.133,370L557.65,370L557.167,370L556.683,370L556.2,370L555.717,370L555.233,370L554.75,370L554.267,370L553.783,370L553.3,370L552.817,370L552.333,370L551.85,370L551.367,370L550.883,370L550.4,370L549.917,370L549.433,370L548.95,370L548.467,370L547.983,370L547.5,370L547.017,370L546.533,370L546.05,370L545.567,370L545.083,370L544.6,370L544.117,370L543.633,370L543.15,370L542.667,370L542.183,370L541.7,370L541.217,370L540.733,370L540.25,370L539.767,370L539.283,370L538.8,370L538.317,370L537.833,370L537.35,370L536.867,370L536.383,370L535.9,370L535.417,370L534.933,370L534.45,370L533.967,370L533.483,370L533,370L532.517,370L532.033,370L531.55,370L531.067,370L530.583,370L530.1,370L529.617,370L529.133,370L528.65,370L528.167,370L527.683,370L527.2,370L526.717,370L526.233,370L525.75,370L525.267,370L524.783,370L524.3,370L523.817,370L523.333,370Z"/><path fill="#900C00" stroke="#900C00" d="M620,20L620,370Z"/></g><g aria-label="line" fill="none" stroke-width="1.5" stroke-linejoin="round" stroke-linecap="round"><path stroke="#23171B" d="M40,337.328L40.483,337.154L40.967,336.98L41.45,336.808L41.933,336.638L42.417,336.469L42.9,336.302L43.383,336.137L43.867,335.972L44.35,335.81L44.833,335.649L45.317,335.489L45.8,335.331L46.283,335.174L46.767,335.018L47.25,334.865L47.733,334.712L48.217,334.561L48.7,334.411L49.183,334.263L49.667,334.116L50.15,333.971L50.633,333.827L51.117,333.684L51.6,333.543L52.083,333.403L52.567,333.264L53.05,333.127L53.533,332.991L54.017,332.856L54.5,332.723L54.983,332.591L55.467,332.46L55.95,332.331L56.433,332.203L56.917,332.076L57.4,331.95L57.883,331.826L58.367,331.702L58.85,331.581L59.333,331.46L59.817,331.34L60.3,331.222L60.783,331.105L61.267,330.989L61.75,330.875L62.233,330.761L62.717,330.649L63.2,330.538L63.683,330.428L64.167,330.319L64.65,330.211L65.133,330.104L65.617,329.999L66.1,329.894L66.583,329.791L67.067,329.689L67.55,329.588L68.033,329.488L68.517,329.389L69,329.291L69.483,329.194L69.967,329.098L70.45,329.003L70.933,328.91L71.417,328.817L71.9,328.725L72.383,328.635L72.867,328.545L73.35,328.456L73.833,328.368L74.317,328.282L74.8,328.196L75.283,328.111L75.767,328.027L76.25,327.944L76.733,327.862L77.217,327.781L77.7,327.701L78.183,327.622L78.667,327.543L79.15,327.466L79.633,327.389L80.117,327.314L80.6,327.239L81.083,327.165L81.567,327.092L82.05,327.02L82.533,326.948L83.017,326.878L83.5,326.808L83.983,326.739L84.467,326.671L84.95,326.604L85.433,326.537L85.917,326.471L86.4,326.407L86.883,326.342L87.367,326.279L87.85,326.216L88.333,326.154L88.817,326.093L89.3,326.033L89.783,325.973L90.267,325.914L90.75,325.856L91.233,325.798L91.717,325.742L92.2,325.685L92.683,325.63L93.167,325.575L93.65,325.521L94.133,325.468L94.617,325.415L95.1,325.363L95.583,325.311L96.067,325.26L96.55,325.21L97.033,325.16L97.517,325.111L98,325.063L98.483,325.015L98.967,324.968L99.45,324.921L99.933,324.875L100.417,324.83L100.9,324.785L101.383,324.74L101.867,324.697L102.35,324.653L102.833,324.611L103.317,324.568L103.8,324.527L104.283,324.485L104.767,324.445L105.25,324.405L105.733,324.365L106.217,324.326L106.7,324.287L107.183,324.249L107.667,324.211L108.15,324.174L108.633,324.137L109.117,324.1L109.6,324.064L110.083,324.029L110.567,323.994L111.05,323.959L111.533,323.925L112.017,323.891L112.5,323.857L112.983,323.824L113.467,323.791L113.95,323.759L114.433,323.727L114.917,323.695L115.4,323.664L115.883,323.633L116.367,323.603L116.85,323.572L117.333,323.543L117.817,323.513L118.3,323.484L118.783,323.455L119.267,323.426L119.75,323.398L120.233,323.37L120.717,323.342L121.2,323.315L121.683,323.287L122.167,323.26L122.65,323.234L123.133,323.207L123.617,323.181L124.1,323.155L124.583,323.13L125.067,323.104L125.55,323.079L126.033,323.054L126.517,323.029L127,323.005L127.483,322.98L127.967,322.956L128.45,322.932L128.933,322.908L129.417,322.885L129.9,322.861L130.383,322.838L130.867,322.815L131.35,322.792L131.833,322.769L132.317,322.746L132.8,322.723L133.283,322.701L133.767,322.679L134.25,322.656L134.733,322.634L135.217,322.612L135.7,322.59L136.183,322.568"/><path stroke="#3987F9" d="M136.667,322.547L137.15,322.525L137.633,322.503L138.117,322.482L138.6,322.46L139.083,322.439L139.567,322.418L140.05,322.396L140.533,322.375L141.017,322.354L141.5,322.332L141.983,322.311L142.467,322.29L142.95,322.269L143.433,322.248L143.917,322.226L144.4,322.205L144.883,322.184L145.367,322.163L145.85,322.142L146.333,322.12L146.817,322.099L147.3,322.078L147.783,322.056L148.267,322.035L148.75,322.013L149.233,321.992L149.717,321.97L150.2,321.948L150.683,321.927L151.167,321.905L151.65,321.883L152.133,321.861L152.617,321.839L153.1,321.816L153.583,321.794L154.067,321.771L154.55,321.749L155.033,321.726L155.517,321.703L156,321.68L156.483,321.657L156.967,321.634L157.45,321.61L157.933,321.587L158.417,321.563L158.9,321.539L159.383,321.515L159.867,321.49L160.35,321.466L160.833,321.441L161.317,321.416L161.8,321.391L162.283,321.366L162.767,321.341L163.25,321.315L163.733,321.289L164.217,321.263L164.7,321.236L165.183,321.21L165.667,321.183L166.15,321.156L166.633,321.129L167.117,321.101L167.6,321.073L168.083,321.045L168.567,321.017L169.05,320.988L169.533,320.959L170.017,320.93L170.5,320.9L170.983,320.87L171.467,320.84L171.95,320.81L172.433,320.779L172.917,320.748L173.4,320.717L173.883,320.685L174.367,320.653L174.85,320.621L175.333,320.588L175.817,320.555L176.3,320.522L176.783,320.488L177.267,320.454L177.75,320.42L178.233,320.385L178.717,320.35L179.2,320.314L179.683,320.279L180.167,320.242L180.65,320.206L181.133,320.169L181.617,320.131L182.1,320.093L182.583,320.055L183.067,320.017L183.55,319.977L184.033,319.938L184.517,319.898L185,319.858L185.483,319.817L185.967,319.776L186.45,319.734L186.933,319.692L187.417,319.65L187.9,319.607L188.383,319.564L188.867,319.52L189.35,319.475L189.833,319.431L190.317,319.385L190.8,319.34L191.283,319.293L191.767,319.247L192.25,319.2L192.733,319.152L193.217,319.104L193.7,319.055L194.183,319.006L194.667,318.956L195.15,318.906L195.633,318.855L196.117,318.804L196.6,318.753L197.083,318.7L197.567,318.647L198.05,318.594L198.533,318.54L199.017,318.486L199.5,318.431L199.983,318.375L200.467,318.319L200.95,318.263L201.433,318.206L201.917,318.148L202.4,318.09L202.883,318.031L203.367,317.971L203.85,317.911L204.333,317.851L204.817,317.789L205.3,317.728L205.783,317.665L206.267,317.602L206.75,317.539L207.233,317.474L207.717,317.41L208.2,317.344L208.683,317.278L209.167,317.212L209.65,317.144L210.133,317.076L210.617,317.008L211.1,316.939L211.583,316.869L212.067,316.798L212.55,316.727L213.033,316.656L213.517,316.583L214,316.51L214.483,316.437L214.967,316.362L215.45,316.287L215.933,316.211L216.417,316.135L216.9,316.058L217.383,315.98L217.867,315.902L218.35,315.823L218.833,315.743L219.317,315.663L219.8,315.582L220.283,315.5L220.767,315.417L221.25,315.334L221.733,315.25L222.217,315.165L222.7,315.08L223.183,314.994L223.667,314.907L224.15,314.82L224.633,314.731L225.117,314.643L225.6,314.553L226.083,314.462L226.567,314.371L227.05,314.279L227.533,314.187L228.017,314.093L228.5,313.999L228.983,313.904L229.467,313.809L229.95,313.712L230.433,313.615L230.917,313.517L231.4,313.419L231.883,313.319L232.367,313.219L232.85,313.118"/><path stroke="#2EE5AE" d="M233.333,313.016L233.817,312.914L234.3,312.81L234.783,312.706L235.267,312.601L235.75,312.496L236.233,312.389L236.717,312.282L237.2,312.174L237.683,312.065L238.167,311.955L238.65,311.845L239.133,311.734L239.617,311.621L240.1,311.509L240.583,311.395L241.067,311.28L241.55,311.165L242.033,311.049L242.517,310.932L243,310.814L243.483,310.695L243.967,310.576L244.45,310.456L244.933,310.334L245.417,310.212L245.9,310.09L246.383,309.966L246.867,309.841L247.35,309.716L247.833,309.59L248.317,309.463L248.8,309.335L249.283,309.206L249.767,309.076L250.25,308.946L250.733,308.815L251.217,308.682L251.7,308.549L252.183,308.415L252.667,308.28L253.15,308.145L253.633,308.008L254.117,307.871L254.6,307.732L255.083,307.593L255.567,307.453L256.05,307.312L256.533,307.17L257.017,307.027L257.5,306.884L257.983,306.739L258.467,306.594L258.95,306.447L259.433,306.3L259.917,306.152L260.4,306.003L260.883,305.853L261.367,305.702L261.85,305.55L262.333,305.398L262.817,305.244L263.3,305.089L263.783,304.934L264.267,304.778L264.75,304.62L265.233,304.462L265.717,304.303L266.2,304.143L266.683,303.982L267.167,303.82L267.65,303.657L268.133,303.494L268.617,303.329L269.1,303.163L269.583,302.997L270.067,302.829L270.55,302.661L271.033,302.492L271.517,302.321L272,302.15L272.483,301.978L272.967,301.805L273.45,301.631L273.933,301.455L274.417,301.28L274.9,301.103L275.383,300.925L275.867,300.746L276.35,300.566L276.833,300.385L277.317,300.204L277.8,300.021L278.283,299.837L278.767,299.653L279.25,299.467L279.733,299.281L280.217,299.093L280.7,298.905L281.183,298.715L281.667,298.525L282.15,298.333L282.633,298.141L283.117,297.948L283.6,297.754L284.083,297.558L284.567,297.362L285.05,297.165L285.533,296.967L286.017,296.767L286.5,296.567L286.983,296.366L287.467,296.164L287.95,295.961L288.433,295.757L288.917,295.552L289.4,295.346L289.883,295.139L290.367,294.931L290.85,294.722L291.333,294.512L291.817,294.301L292.3,294.089L292.783,293.876L293.267,293.662L293.75,293.447L294.233,293.231L294.717,293.014L295.2,292.796L295.683,292.577L296.167,292.357L296.65,292.136L297.133,291.914L297.617,291.692L298.1,291.468L298.583,291.243L299.067,291.017L299.55,290.79L300.033,290.562L300.517,290.333L301,290.103L301.483,289.872L301.967,289.64L302.45,289.407L302.933,289.173L303.417,288.938L303.9,288.703L304.383,288.466L304.867,288.228L305.35,287.989L305.833,287.749L306.317,287.508L306.8,287.266L307.283,287.023L307.767,286.779L308.25,286.534L308.733,286.288L309.217,286.041L309.7,285.793L310.183,285.544L310.667,285.293L311.15,285.042L311.633,284.79L312.117,284.537L312.6,284.283L313.083,284.028L313.567,283.772L314.05,283.515L314.533,283.257L315.017,282.997L315.5,282.737L315.983,282.476L316.467,282.214L316.95,281.951L317.433,281.687L317.917,281.421L318.4,281.155L318.883,280.888L319.367,280.62L319.85,280.35L320.333,280.08L320.817,279.809L321.3,279.536L321.783,279.263L322.267,278.989L322.75,278.714L323.233,278.437L323.717,278.16L324.2,277.882L324.683,277.602L325.167,277.322L325.65,277.04L326.133,276.758L326.617,276.475L327.1,276.19L327.583,275.905L328.067,275.618L328.55,275.331L329.033,275.043L329.517,274.753"/><path stroke="#95FB51" d="M330,274.463L330.483,274.171L330.967,273.879L331.45,273.585L331.933,273.291L332.417,272.995L332.9,272.699L333.383,272.402L333.867,272.103L334.35,271.804L334.833,271.503L335.317,271.202L335.8,270.899L336.283,270.596L336.767,270.291L337.25,269.986L337.733,269.679L338.217,269.372L338.7,269.063L339.183,268.754L339.667,268.444L340.15,268.132L340.633,267.82L341.117,267.506L341.6,267.192L342.083,266.877L342.567,266.56L343.05,266.243L343.533,265.924L344.017,265.605L344.5,265.285L344.983,264.963L345.467,264.641L345.95,264.318L346.433,263.994L346.917,263.668L347.4,263.342L347.883,263.015L348.367,262.687L348.85,262.358L349.333,262.028L349.817,261.696L350.3,261.364L350.783,261.031L351.267,260.697L351.75,260.362L352.233,260.026L352.717,259.689L353.2,259.352L353.683,259.013L354.167,258.673L354.65,258.332L355.133,257.99L355.617,257.648L356.1,257.304L356.583,256.959L357.067,256.614L357.55,256.267L358.033,255.92L358.517,255.571L359,255.222L359.483,254.872L359.967,254.52L360.45,254.168L360.933,253.815L361.417,253.461L361.9,253.106L362.383,252.75L362.867,252.393L363.35,252.035L363.833,251.676L364.317,251.316L364.8,250.956L365.283,250.594L365.767,250.231L366.25,249.868L366.733,249.503L367.217,249.138L367.7,248.772L368.183,248.405L368.667,248.037L369.15,247.668L369.633,247.298L370.117,246.927L370.6,246.555L371.083,246.182L371.567,245.809L372.05,245.434L372.533,245.059L373.017,244.682L373.5,244.305L373.983,243.927L374.467,243.548L374.95,243.168L375.433,242.787L375.917,242.406L376.4,242.023L376.883,241.64L377.367,241.255L377.85,240.87L378.333,240.484L378.817,240.097L379.3,239.709L379.783,239.32L380.267,238.93L380.75,238.54L381.233,238.148L381.717,237.756L382.2,237.363L382.683,236.969L383.167,236.574L383.65,236.178L384.133,235.782L384.617,235.384L385.1,234.986L385.583,234.587L386.067,234.187L386.55,233.786L387.033,233.384L387.517,232.982L388,232.578L388.483,232.174L388.967,231.769L389.45,231.363L389.933,230.956L390.417,230.549L390.9,230.141L391.383,229.731L391.867,229.321L392.35,228.91L392.833,228.499L393.317,228.086L393.8,227.673L394.283,227.259L394.767,226.844L395.25,226.428L395.733,226.012L396.217,225.595L396.7,225.176L397.183,224.758L397.667,224.338L398.15,223.917L398.633,223.496L399.117,223.074L399.6,222.651L400.083,222.228L400.567,221.803L401.05,221.378L401.533,220.952L402.017,220.526L402.5,220.098L402.983,219.67L403.467,219.241L403.95,218.811L404.433,218.381L404.917,217.949L405.4,217.517L405.883,217.085L406.367,216.651L406.85,216.217L407.333,215.782L407.817,215.346L408.3,214.91L408.783,214.473L409.267,214.035L409.75,213.597L410.233,213.157L410.717,212.717L411.2,212.277L411.683,211.835L412.167,211.393L412.65,210.95L413.133,210.507L413.617,210.062L414.1,209.618L414.583,209.172L415.067,208.726L415.55,208.279L416.033,207.831L416.517,207.383L417,206.934L417.483,206.484L417.967,206.034L418.45,205.583L418.933,205.131L419.417,204.679L419.9,204.226L420.383,203.772L420.867,203.318L421.35,202.863L421.833,202.407L422.317,201.951L422.8,201.494L423.283,201.037L423.767,200.579L424.25,200.12L424.733,199.661L425.217,199.201L425.7,198.74L426.183,198.279"/><path stroke="#FEB927" d="M426.667,197.817L427.15,197.355L427.633,196.892L428.117,196.428L428.6,195.964L429.083,195.5L429.567,195.034L430.05,194.568L430.533,194.102L431.017,193.635L431.5,193.167L431.983,192.699L432.467,192.23L432.95,191.761L433.433,191.291L433.917,190.821L434.4,190.35L434.883,189.878L435.367,189.406L435.85,188.934L436.333,188.461L436.817,187.987L437.3,187.513L437.783,187.038L438.267,186.563L438.75,186.087L439.233,185.611L439.717,185.134L440.2,184.657L440.683,184.18L441.167,183.701L441.65,183.223L442.133,182.744L442.617,182.264L443.1,181.784L443.583,181.303L444.067,180.822L444.55,180.341L445.033,179.859L445.517,179.376L446,178.894L446.483,178.41L446.967,177.927L447.45,177.442L447.933,176.958L448.417,176.473L448.9,175.987L449.383,175.501L449.867,175.015L450.35,174.528L450.833,174.041L451.317,173.554L451.8,173.066L452.283,172.577L452.767,172.089L453.25,171.6L453.733,171.11L454.217,170.62L454.7,170.13L455.183,169.64L455.667,169.149L456.15,168.657L456.633,168.166L457.117,167.674L457.6,167.181L458.083,166.689L458.567,166.196L459.05,165.702L459.533,165.209L460.017,164.715L460.5,164.22L460.983,163.726L461.467,163.231L461.95,162.736L462.433,162.24L462.917,161.744L463.4,161.248L463.883,160.752L464.367,160.255L464.85,159.758L465.333,159.261L465.817,158.764L466.3,158.266L466.783,157.768L467.267,157.27L467.75,156.771L468.233,156.272L468.717,155.773L469.2,155.274L469.683,154.775L470.167,154.275L470.65,153.775L471.133,153.275L471.617,152.775L472.1,152.275L472.583,151.774L473.067,151.273L473.55,150.772L474.033,150.271L474.517,149.77L475,149.268L475.483,148.766L475.967,148.265L476.45,147.763L476.933,147.26L477.417,146.758L477.9,146.256L478.383,145.753L478.867,145.25L479.35,144.748L479.833,144.245L480.317,143.742L480.8,143.238L481.283,142.735L481.767,142.232L482.25,141.728L482.733,141.225L483.217,140.721L483.7,140.218L484.183,139.714L484.667,139.21L485.15,138.706L485.633,138.202L486.117,137.698L486.6,137.194L487.083,136.69L487.567,136.186L488.05,135.682L488.533,135.178L489.017,134.674L489.5,134.17L489.983,133.666L490.467,133.162L490.95,132.657L491.433,132.153L491.917,131.649L492.4,131.145L492.883,130.641L493.367,130.137L493.85,129.633L494.333,129.129L494.817,128.626L495.3,128.122L495.783,127.618L496.267,127.114L496.75,126.611L497.233,126.107L497.717,125.604L498.2,125.101L498.683,124.598L499.167,124.095L499.65,123.592L500.133,123.089L500.617,122.586L501.1,122.084L501.583,121.581L502.067,121.079L502.55,120.577L503.033,120.075L503.517,119.573L504,119.071L504.483,118.57L504.967,118.069L505.45,117.567L505.933,117.067L506.417,116.566L506.9,116.065L507.383,115.565L507.867,115.065L508.35,114.565L508.833,114.066L509.317,113.566L509.8,113.067L510.283,112.568L510.767,112.07L511.25,111.571L511.733,111.073L512.217,110.575L512.7,110.078L513.183,109.58L513.667,109.083L514.15,108.587L514.633,108.09L515.117,107.594L515.6,107.099L516.083,106.603L516.567,106.108L517.05,105.614L517.533,105.119L518.017,104.625L518.5,104.131L518.983,103.638L519.467,103.145L519.95,102.653L520.433,102.161L520.917,101.669L521.4,101.177L521.883,100.686L522.367,100.196L522.85,99.706"/><path stroke="#E54813" d="M523.333,99.216L523.817,98.727L524.3,98.238L524.783,97.75L525.267,97.262L525.75,96.774L526.233,96.287L526.717,95.801L527.2,95.314L527.683,94.829L528.167,94.344L528.65,93.859L529.133,93.375L529.617,92.892L530.1,92.409L530.583,91.926L531.067,91.444L531.55,90.963L532.033,90.482L532.517,90.001L533,89.522L533.483,89.042L533.967,88.564L534.45,88.086L534.933,87.608L535.417,87.131L535.9,86.655L536.383,86.18L536.867,85.705L537.35,85.23L537.833,84.756L538.317,84.283L538.8,83.811L539.283,83.339L539.767,82.868L540.25,82.397L540.733,81.928L541.217,81.459L541.7,80.99L542.183,80.522L542.667,80.055L543.15,79.589L543.633,79.124L544.117,78.659L544.6,78.195L545.083,77.731L545.567,77.269L546.05,76.807L546.533,76.346L547.017,75.885L547.5,75.426L547.983,74.967L548.467,74.509L548.95,74.052L549.433,73.596L549.917,73.14L550.4,72.686L550.883,72.232L551.367,71.779L551.85,71.327L552.333,70.875L552.817,70.425L553.3,69.975L553.783,69.527L554.267,69.079L554.75,68.632L555.233,68.186L555.717,67.741L556.2,67.297L556.683,66.854L557.167,66.411L557.65,65.97L558.133,65.529L558.617,65.09L559.1,64.652L559.583,64.214L560.067,63.778L560.55,63.342L561.033,62.907L561.517,62.474L562,62.041L562.483,61.61L562.967,61.179L563.45,60.75L563.933,60.322L564.417,59.894L564.9,59.468L565.383,59.043L565.867,58.619L566.35,58.196L566.833,57.774L567.317,57.353L567.8,56.933L568.283,56.515L568.767,56.097L569.25,55.681L569.733,55.266L570.217,54.852L570.7,54.439L571.183,54.027L571.667,53.616L572.15,53.207L572.633,52.799L573.117,52.392L573.6,51.986L574.083,51.582L574.567,51.178L575.05,50.776L575.533,50.376L576.017,49.976L576.5,49.578L576.983,49.181L577.467,48.785L577.95,48.39L578.433,47.997L578.917,47.605L579.4,47.215L579.883,46.826L580.367,46.438L580.85,46.051L581.333,45.666L581.817,45.282L582.3,44.899L582.783,44.518L583.267,44.139L583.75,43.76L584.233,43.383L584.717,43.008L585.2,42.633L585.683,42.261L586.167,41.889L586.65,41.52L587.133,41.151L587.617,40.784L588.1,40.419L588.583,40.055L589.067,39.692L589.55,39.331L590.033,38.972L590.517,38.614L591,38.257L591.483,37.902L591.967,37.549L592.45,37.197L592.933,36.847L593.417,36.498L593.9,36.151L594.383,35.805L594.867,35.461L595.35,35.119L595.833,34.778L596.317,34.439L596.8,34.101L597.283,33.766L597.767,33.431L598.25,33.099L598.733,32.768L599.217,32.439L599.7,32.111L600.183,31.785L600.667,31.461L601.15,31.139L601.633,30.818L602.117,30.499L602.6,30.182L603.083,29.866L603.567,29.553L604.05,29.241L604.533,28.93L605.017,28.622L605.5,28.315L605.983,28.011L606.467,27.708L606.95,27.406L607.433,27.107L607.917,26.81L608.4,26.514L608.883,26.22L609.367,25.928L609.85,25.638L610.333,25.35L610.817,25.064L611.3,24.78L611.783,24.497L612.267,24.217L612.75,23.938L613.233,23.662L613.717,23.387L614.2,23.115L614.683,22.844L615.167,22.575L615.65,22.309L616.133,22.044L616.617,21.781L617.1,21.521L617.583,21.262L618.067,21.005L618.55,20.751L619.033,20.499L619.517,20.248"/><path stroke="#900C00" d="M620,20Z"/></g><g aria-label="text" font-variant="tabular-nums"><text transform="translate(0,-6) translate(40,337.32839336577683)">5.745</text><text transform="translate(0,-6) translate(136.66666666666666,322.54663809704414)">8.344</text><text transform="translate(0,-6) translate(233.33333333333331,313.01611497656273)">10.02</text><text transform="translate(0,-6) translate(330,274.46268529753155)">16.798</text><text transform="translate(0,-6) translate(426.66666666666663,197.81730569707398)">30.275</text><text transform="translate(0,-6) translate(523.3333333333334,99.21602815623885)">47.612</text><text transform="translate(0,-6) translate(620,20)">61.541</text></g><g aria-label="dot" fill="none" stroke="currentColor" stroke-width="1.5"><circle cx="40" cy="337.328" r="3"/><circle cx="136.667" cy="322.547" r="3"/><circle cx="233.333" cy="313.016" r="3"/><circle cx="330" cy="274.463" r="3"/><circle cx="426.667" cy="197.817" r="3"/><circle cx="523.333" cy="99.216" r="3"/><circle cx="620" cy="20" r="3"/></g></svg>