<svg class="plot-d6a7b5" fill="currentColor" font-family="system-ui, sans-serif" font-size="10" text-anchor="middle" width="640" height="400" viewBox="0 0 640 400" xmlns="http://www.w3.org/2000/svg" xmlns:xlink="http://www.w3.org/1999/xlink" color="#1e90ff"><style>:where(.plot-d6a7b5){--plot-background: white;display:block;height:intrinsic;max-width:100%}:where(.plot-d6a7b5 text),:where(.plot-d6a7b5 tspan){white-space:pre}</style><g aria-label="y-axis tick" fill="none" stroke="currentColor"><path transform="translate(40,370)" d="M0,0L-6,0"/><path transform="translate(40,321.048951048951)" d="M0,0L-6,0"/><path transform="translate(40,272.0979020979021)" d="M0,0L-6,0"/><path transform="translate(40,223.14685314685315)" d="M0,0L-6,0"/><path transform="translate(40,174.1958041958042)" d="M0,0L-6,0"/><path transform="translate(40,125.24475524475525)" d="M0,0L-6,0"/><path transform="translate(40,76.2937062937063)" d="M0,0L-6,0"/><path transform="translate(40,27.342657342657326)" d="M0,0L-6,0"/></g><g aria-label="y-axis tick label" text-anchor="end" font-variant="tabular-nums"><text y=".32em" transform="translate(-9,0) translate(40,370)">0</text><text y=".32em" transform="translate(-9,0) translate(40,321.048951048951)">100</text><text y=".32em" transform="translate(-9,0) translate(40,272.0979020979021)">200</text><text y=".32em" transform="translate(-9,0) translate(40,223.14685314685315)">300</text><text y=".32em" transform="translate(-9,0) translate(40,174.1958041958042)">400</text><text y=".32em" transform="translate(-9,0) translate(40,125.24475524475525)">500</text><text y=".32em" transform="translate(-9,0) translate(40,76.2937062937063)">600</text><text y=".32em" transform="translate(-9,0) translate(40,27.342657342657326)">700</text></g><g aria-label="y-axis label" text-anchor="start"><text y=".71em" transform="translate(-37,-17) translate(40,20)">↑ Frequency</text></g><g aria-label="x-axis tick" fill="none" stroke="currentColor"><path transform="translate(40,370)" d="M0,0L0,6"/><path transform="translate(101.05263157894737,370)" d="M0,0L0,6"/><path transform="translate(162.10526315789474,370)" d="M0,0L0,6"/><path transform="translate(223.1578947368421,370)" d="M0,0L0,6"/><path transform="translate(284.2105263157894,370)" d="M0,0L0,6"/><path transform="translate(345.2631578947369,370)" d="M0,0L0,6"/><path transform="translate(406.3157894736843,370)" d="M0,0L0,6"/><path transform="translate(467.36842105263156,370)" d="M0,0L0,6"/><path transform="translate(528.421052631579,370)" d="M0,0L0,6"/><path transform="translate(589.4736842105264,370)" d="M0,0L0,6"/></g><g aria-label="x-axis tick label" font-variant="tabular-nums"><text y=".71em" transform="translate(0,9) translate(40,370)">0.4</text><text y=".71em" transform="translate(0,9) translate(101.05263157894737,370)">0.6</text><text y=".71em" transform="translate(0,9) translate(162.10526315789474,370)">0.8</text><text y=".71em" transform="translate(0,9) translate(223.1578947368421,370)">1.0</text><text y=".71em" transform="translate(0,9) translate(284.2105263157894,370)">1.2</text><text y=".71em" transform="translate(0,9) translate(345.2631578947369,370)">1.4</text><text y=".71em" transform="translate(0,9) translate(406.3157894736843,370)">1.6</text><text y=".71em" transform="translate(0,9) translate(467.36842105263156,370)">1.8</text><text y=".71em" transform="translate(0,9) translate(528.421052631579,370)">2.0</text><text y=".71em" transform="translate(0,9) translate(589.4736842105264,370)">2.2</text></g><g aria-label="x-axis label" text-anchor="end"><text transform="translate(17,27) translate(620,370)">Airspeed Multiplier →</text></g><g aria-label="rect"><rect x="40.5" y="303.427" width="29.526" height="66.573"/><rect x="71.026" y="87.063" width="29.526" height="282.937"/><rect x="132.079" y="251.538" width="29.526" height="118.462"/><rect x="162.605" y="314.196" width="29.526" height="55.804"/><rect x="223.658" y="20" width="29.526" height="350"/><rect x="254.184" y="150.699" width="29.526" height="219.301"/><rect x="376.289" y="354.336" width="29.526" height="15.664"/><rect x="528.921" y="364.126" width="29.526" height="5.874"/><rect x="589.974" y="364.126" width="29.526" height="5.874"/></g></svg>