<svg class="plot-d6a7b5" fill="currentColor" font-family="system-ui, sans-serif" font-size="10" text-anchor="middle" width="640" height="400" viewBox="0 0 640 400" xmlns="http://www.w3.org/2000/svg" xmlns:xlink="http://www.w3.org/1999/xlink" color="#1e90ff"><style>:where(.plot-d6a7b5){--plot-background: white;display:block;height:intrinsic;max-width:100%}:where(.plot-d6a7b5 text),:where(.plot-d6a7b5 tspan){white-space:pre}</style><g aria-label="y-axis tick" fill="none" stroke="currentColor"><path transform="translate(40,370)" d="M0,0L-6,0"/><path transform="translate(40,324.75113122171945)" d="M0,0L-6,0"/><path transform="translate(40,279.5022624434389)" d="M0,0L-6,0"/><path transform="translate(40,234.2533936651584)" d="M0,0L-6,0"/><path transform="translate(40,189.0045248868778)" d="M0,0L-6,0"/><path transform="translate(40,143.7556561085973)" d="M0,0L-6,0"/><path transform="translate(40,98.50678733031674)" d="M0,0L-6,0"/><path transform="translate(40,53.257918552036195)" d="M0,0L-6,0"/></g><g aria-label="y-axis tick label" text-anchor="end" font-variant="tabular-nums"><text y=".32em" transform="translate(-9,0) translate(40,370)">0</text><text y=".32em" transform="translate(-9,0) translate(40,324.75113122171945)">200</text><text y=".32em" transform="translate(-9,0) translate(40,279.5022624434389)">400</text><text y=".32em" transform="translate(-9,0) translate(40,234.2533936651584)">600</text><text y=".32em" transform="translate(-9,0) translate(40,189.0045248868778)">800</text><text y=".32em" transform="translate(-9,0) translate(40,143.7556561085973)">1,000</text><text y=".32em" transform="translate(-9,0) translate(40,98.50678733031674)">1,200</text><text y=".32em" transform="translate(-9,0) translate(40,53.257918552036195)">1,400</text></g><g aria-label="y-axis label" text-anchor="start"><text y=".71em" transform="translate(-37,-17) translate(40,20)">↑ Frequency</text></g><g aria-label="x-axis tick" fill="none" stroke="currentColor"><path transform="translate(81.42857142857143,370)" d="M0,0L0,6"/><path transform="translate(164.28571428571428,370)" d="M0,0L0,6"/><path transform="translate(247.14285714285717,370)" d="M0,0L0,6"/><path transform="translate(330,370)" d="M0,0L0,6"/><path transform="translate(412.8571428571429,370)" d="M0,0L0,6"/><path transform="translate(495.71428571428567,370)" d="M0,0L0,6"/><path transform="translate(578.5714285714287,370)" d="M0,0L0,6"/></g><g aria-label="x-axis tick label" font-variant="tabular-nums"><text y=".71em" transform="translate(0,9) translate(81.42857142857143,370)">10</text><text y=".71em" transform="translate(0,9) translate(164.28571428571428,370)">20</text><text y=".71em" transform="translate(0,9) translate(247.14285714285717,370)">30</text><text y=".71em" transform="translate(0,9) translate(330,370)">40</text><text y=".71em" transform="translate(0,9) translate(412.8571428571429,370)">50</text><text y=".71em" transform="translate(0,9) translate(495.71428571428567,370)">60</text><text y=".71em" transform="translate(0,9) translate(578.5714285714287,370)">70</text></g><g aria-label="x-axis label" text-anchor="end"><text transform="translate(17,27) translate(620,370)">Name Length →</text></g><g aria-label="rect"><rect x="40.5" y="369.774" width="40.429" height=".226"/><rect x="81.929" y="20" width="40.429" height="350"/><rect x="123.357" y="314.344" width="40.429" height="55.656"/><rect x="164.786" y="356.878" width="40.429" height="13.122"/><rect x="206.214" y="355.973" width="40.429" height="14.027"/><rect x="247.643" y="353.032" width="40.429" height="16.968"/><rect x="289.071" y="356.652" width="40.429" height="13.348"/><rect x="330.5" y="362.534" width="40.429" height="7.466"/><rect x="371.929" y="359.367" width="40.429" height="10.633"/><rect x="413.357" y="359.14" width="40.429" height="10.86"/><rect x="454.786" y="360.498" width="40.429" height="9.502"/><rect x="496.214" y="362.081" width="40.429" height="7.919"/><rect x="537.643" y="365.928" width="40.429" height="4.072"/><rect x="579.071" y="369.548" width="40.429" height=".452"/></g></svg>