<svg class="plot-d6a7b5" fill="currentColor" font-family="system-ui, sans-serif" font-size="10" text-anchor="middle" width="640" height="400" viewBox="0 0 640 400" xmlns="http://www.w3.org/2000/svg" xmlns:xlink="http://www.w3.org/1999/xlink" color="#1e90ff"><style>:where(.plot-d6a7b5){--plot-background: white;display:block;height:intrinsic;max-width:100%}:where(.plot-d6a7b5 text),:where(.plot-d6a7b5 tspan){white-space:pre}</style><g aria-label="y-axis tick" fill="none" stroke="currentColor"><path transform="translate(40,370)" d="M0,0L-6,0"/><path transform="translate(40,345.15968772178854)" d="M0,0L-6,0"/><path transform="translate(40,320.319375443577)" d="M0,0L-6,0"/><path transform="translate(40,295.4790631653655)" d="M0,0L-6,0"/><path transform="translate(40,270.638750887154)" d="M0,0L-6,0"/><path transform="translate(40,245.79843860894252)" d="M0,0L-6,0"/><path transform="translate(40,220.95812633073103)" d="M0,0L-6,0"/><path transform="translate(40,196.11781405251952)" d="M0,0L-6,0"/><path transform="translate(40,171.277501774308)" d="M0,0L-6,0"/><path transform="translate(40,146.4371894960965)" d="M0,0L-6,0"/><path transform="translate(40,121.59687721788501)" d="M0,0L-6,0"/><path transform="translate(40,96.75656493967354)" d="M0,0L-6,0"/><path transform="translate(40,71.91625266146204)" d="M0,0L-6,0"/><path transform="translate(40,47.075940383250526)" d="M0,0L-6,0"/><path transform="translate(40,22.235628105039016)" d="M0,0L-6,0"/></g><g aria-label="y-axis tick label" text-anchor="end" font-variant="tabular-nums"><text y=".32em" transform="translate(-9,0) translate(40,370)">0</text><text y=".32em" transform="translate(-9,0) translate(40,345.15968772178854)">100</text><text y=".32em" transform="translate(-9,0) translate(40,320.319375443577)">200</text><text y=".32em" transform="translate(-9,0) translate(40,295.4790631653655)">300</text><text y=".32em" transform="translate(-9,0) translate(40,270.638750887154)">400</text><text y=".32em" transform="translate(-9,0) translate(40,245.79843860894252)">500</text><text y=".32em" transform="translate(-9,0) translate(40,220.95812633073103)">600</text><text y=".32em" transform="translate(-9,0) translate(40,196.11781405251952)">700</text><text y=".32em" transform="translate(-9,0) translate(40,171.277501774308)">800</text><text y=".32em" transform="translate(-9,0) translate(40,146.4371894960965)">900</text><text y=".32em" transform="translate(-9,0) translate(40,121.59687721788501)">1,000</text><text y=".32em" transform="translate(-9,0) translate(40,96.75656493967354)">1,100</text><text y=".32em" transform="translate(-9,0) translate(40,71.91625266146204)">1,200</text><text y=".32em" transform="translate(-9,0) translate(40,47.075940383250526)">1,300</text><text y=".32em" transform="translate(-9,0) translate(40,22.235628105039016)">1,400</text></g><g aria-label="y-axis label" text-anchor="start"><text y=".71em" transform="translate(-37,-17) translate(40,20)">↑ Frequency</text></g><g aria-label="x-axis tick" fill="none" stroke="currentColor"><path transform="translate(76.25,370)" d="M0,0L0,6"/><path transform="translate(148.75,370)" d="M0,0L0,6"/><path transform="translate(221.25,370)" d="M0,0L0,6"/><path transform="translate(293.75,370)" d="M0,0L0,6"/><path transform="translate(366.25,370)" d="M0,0L0,6"/><path transform="translate(438.75,370)" d="M0,0L0,6"/><path transform="translate(511.25,370)" d="M0,0L0,6"/><path transform="translate(583.75,370)" d="M0,0L0,6"/></g><g aria-label="x-axis tick label" font-variant="tabular-nums"><text y=".71em" transform="translate(0,9) translate(76.25,370)">10</text><text y=".71em" transform="translate(0,9) translate(148.75,370)">20</text><text y=".71em" transform="translate(0,9) translate(221.25,370)">30</text><text y=".71em" transform="translate(0,9) translate(293.75,370)">40</text><text y=".71em" transform="translate(0,9) translate(366.25,370)">50</text><text y=".71em" transform="translate(0,9) translate(438.75,370)">60</text><text y=".71em" transform="translate(0,9) translate(511.25,370)">70</text><text y=".71em" transform="translate(0,9) translate(583.75,370)">80</text></g><g aria-label="x-axis label" text-anchor="end"><text transform="translate(17,27) translate(620,370)">Name Length →</text></g><g aria-label="rect"><rect x="40.5" y="369.752" width="35.25" height=".248"/><rect x="76.75" y="20" width="35.25" height="350"/><rect x="113" y="318.084" width="35.25" height="51.916"/><rect x="149.25" y="368.013" width="35.25" height="1.987"/><rect x="185.5" y="363.293" width="35.25" height="6.707"/><rect x="221.75" y="355.344" width="35.25" height="14.656"/><rect x="258" y="351.618" width="35.25" height="18.382"/><rect x="294.25" y="348.637" width="35.25" height="21.363"/><rect x="330.5" y="334.975" width="35.25" height="35.025"/><rect x="366.75" y="335.224" width="35.25" height="34.776"/><rect x="403" y="339.943" width="35.25" height="30.057"/><rect x="439.25" y="330.752" width="35.25" height="39.248"/><rect x="475.5" y="343.421" width="35.25" height="26.579"/><rect x="511.75" y="364.784" width="35.25" height="5.216"/><rect x="548" y="368.261" width="35.25" height="1.739"/><rect x="584.25" y="369.503" width="35.25" height=".497"/></g></svg>