<svg class="plot-d6a7b5" fill="currentColor" font-family="system-ui, sans-serif" font-size="10" text-anchor="middle" width="640" height="400" viewBox="0 0 640 400" xmlns="http://www.w3.org/2000/svg" xmlns:xlink="http://www.w3.org/1999/xlink" color="#1e90ff"><style>:where(.plot-d6a7b5){--plot-background: white;display:block;height:intrinsic;max-width:100%}:where(.plot-d6a7b5 text),:where(.plot-d6a7b5 tspan){white-space:pre}</style><g aria-label="y-axis tick" fill="none" stroke="currentColor"><path transform="translate(40,370)" d="M0,0L-6,0"/><path transform="translate(40,338.425800631484)" d="M0,0L-6,0"/><path transform="translate(40,306.85160126296796)" d="M0,0L-6,0"/><path transform="translate(40,275.277401894452)" d="M0,0L-6,0"/><path transform="translate(40,243.70320252593595)" d="M0,0L-6,0"/><path transform="translate(40,212.1290031574199)" d="M0,0L-6,0"/><path transform="translate(40,180.5548037889039)" d="M0,0L-6,0"/><path transform="translate(40,148.9806044203879)" d="M0,0L-6,0"/><path transform="translate(40,117.4064050518719)" d="M0,0L-6,0"/><path transform="translate(40,85.83220568335588)" d="M0,0L-6,0"/><path transform="translate(40,54.258006314839875)" d="M0,0L-6,0"/><path transform="translate(40,22.68380694632385)" d="M0,0L-6,0"/></g><g aria-label="y-axis tick label" text-anchor="end" font-variant="tabular-nums"><text y=".32em" transform="translate(-9,0) translate(40,370)">0</text><text y=".32em" transform="translate(-9,0) translate(40,338.425800631484)">200</text><text y=".32em" transform="translate(-9,0) translate(40,306.85160126296796)">400</text><text y=".32em" transform="translate(-9,0) translate(40,275.277401894452)">600</text><text y=".32em" transform="translate(-9,0) translate(40,243.70320252593595)">800</text><text y=".32em" transform="translate(-9,0) translate(40,212.1290031574199)">1,000</text><text y=".32em" transform="translate(-9,0) translate(40,180.5548037889039)">1,200</text><text y=".32em" transform="translate(-9,0) translate(40,148.9806044203879)">1,400</text><text y=".32em" transform="translate(-9,0) translate(40,117.4064050518719)">1,600</text><text y=".32em" transform="translate(-9,0) translate(40,85.83220568335588)">1,800</text><text y=".32em" transform="translate(-9,0) translate(40,54.258006314839875)">2,000</text><text y=".32em" transform="translate(-9,0) translate(40,22.68380694632385)">2,200</text></g><g aria-label="y-axis label" text-anchor="start"><text y=".71em" transform="translate(-37,-17) translate(40,20)">↑ Frequency</text></g><g aria-label="x-axis tick" fill="none" stroke="currentColor"><path transform="translate(40,370)" d="M0,0L0,6"/><path transform="translate(150.47619047619048,370)" d="M0,0L0,6"/><path transform="translate(260.95238095238096,370)" d="M0,0L0,6"/><path transform="translate(371.4285714285715,370)" d="M0,0L0,6"/><path transform="translate(481.904761904762,370)" d="M0,0L0,6"/><path transform="translate(592.3809523809525,370)" d="M0,0L0,6"/></g><g aria-label="x-axis tick label" font-variant="tabular-nums"><text y=".71em" transform="translate(0,9) translate(40,370)">1.0</text><text y=".71em" transform="translate(0,9) translate(150.47619047619048,370)">1.2</text><text y=".71em" transform="translate(0,9) translate(260.95238095238096,370)">1.4</text><text y=".71em" transform="translate(0,9) translate(371.4285714285715,370)">1.6</text><text y=".71em" transform="translate(0,9) translate(481.904761904762,370)">1.8</text><text y=".71em" transform="translate(0,9) translate(592.3809523809525,370)">2.0</text></g><g aria-label="x-axis label" text-anchor="end"><text transform="translate(17,27) translate(620,370)">Minimum Draw Multiplier →</text></g><g aria-label="rect"><rect x="40.5" y="20" width="26.619" height="350"/><rect x="592.881" y="358.633" width="26.619" height="11.367"/></g></svg>