<svg class="plot-d6a7b5" fill="currentColor" font-family="system-ui, sans-serif" font-size="10" text-anchor="middle" width="640" height="400" viewBox="0 0 640 400" xmlns="http://www.w3.org/2000/svg" xmlns:xlink="http://www.w3.org/1999/xlink" color="#1e90ff"><style>:where(.plot-d6a7b5){--plot-background: white;display:block;height:intrinsic;max-width:100%}:where(.plot-d6a7b5 text),:where(.plot-d6a7b5 tspan){white-space:pre}</style><g aria-label="y-axis tick" fill="none" stroke="currentColor"><path transform="translate(40,370)" d="M0,0L-6,0"/><path transform="translate(40,324.75113122171945)" d="M0,0L-6,0"/><path transform="translate(40,279.5022624434389)" d="M0,0L-6,0"/><path transform="translate(40,234.2533936651584)" d="M0,0L-6,0"/><path transform="translate(40,189.0045248868778)" d="M0,0L-6,0"/><path transform="translate(40,143.7556561085973)" d="M0,0L-6,0"/><path transform="translate(40,98.50678733031674)" d="M0,0L-6,0"/><path transform="translate(40,53.257918552036195)" d="M0,0L-6,0"/></g><g aria-label="y-axis tick label" text-anchor="end" font-variant="tabular-nums"><text y=".32em" transform="translate(-9,0) translate(40,370)">0</text><text y=".32em" transform="translate(-9,0) translate(40,324.75113122171945)">200</text><text y=".32em" transform="translate(-9,0) translate(40,279.5022624434389)">400</text><text y=".32em" transform="translate(-9,0) translate(40,234.2533936651584)">600</text><text y=".32em" transform="translate(-9,0) translate(40,189.0045248868778)">800</text><text y=".32em" transform="translate(-9,0) translate(40,143.7556561085973)">1,000</text><text y=".32em" transform="translate(-9,0) translate(40,98.50678733031674)">1,200</text><text y=".32em" transform="translate(-9,0) translate(40,53.257918552036195)">1,400</text></g><g aria-label="y-axis label" text-anchor="start"><text y=".71em" transform="translate(-37,-17) translate(40,20)">↑ Frequency</text></g><g aria-label="x-axis tick" fill="none" stroke="currentColor"><path transform="translate(78.66666666666667,370)" d="M0,0L0,6"/><path transform="translate(156,370)" d="M0,0L0,6"/><path transform="translate(233.33333333333331,370)" d="M0,0L0,6"/><path transform="translate(310.66666666666663,370)" d="M0,0L0,6"/><path transform="translate(388,370)" d="M0,0L0,6"/><path transform="translate(465.3333333333333,370)" d="M0,0L0,6"/><path transform="translate(542.6666666666667,370)" d="M0,0L0,6"/><path transform="translate(620,370)" d="M0,0L0,6"/></g><g aria-label="x-axis tick label" font-variant="tabular-nums"><text y=".71em" transform="translate(0,9) translate(78.66666666666667,370)">10</text><text y=".71em" transform="translate(0,9) translate(156,370)">20</text><text y=".71em" transform="translate(0,9) translate(233.33333333333331,370)">30</text><text y=".71em" transform="translate(0,9) translate(310.66666666666663,370)">40</text><text y=".71em" transform="translate(0,9) translate(388,370)">50</text><text y=".71em" transform="translate(0,9) translate(465.3333333333333,370)">60</text><text y=".71em" transform="translate(0,9) translate(542.6666666666667,370)">70</text><text y=".71em" transform="translate(0,9) translate(620,370)">80</text></g><g aria-label="x-axis label" text-anchor="end"><text transform="translate(17,27) translate(620,370)">Name Length →</text></g><g aria-label="rect"><rect x="40.5" y="369.774" width="37.667" height=".226"/><rect x="79.167" y="20" width="37.667" height="350"/><rect x="117.833" y="314.344" width="37.667" height="55.656"/><rect x="156.5" y="356.878" width="37.667" height="13.122"/><rect x="195.167" y="355.973" width="37.667" height="14.027"/><rect x="233.833" y="353.032" width="37.667" height="16.968"/><rect x="272.5" y="356.652" width="37.667" height="13.348"/><rect x="311.167" y="362.534" width="37.667" height="7.466"/><rect x="349.833" y="359.14" width="37.667" height="10.86"/><rect x="388.5" y="359.14" width="37.667" height="10.86"/><rect x="427.167" y="359.819" width="37.667" height="10.181"/><rect x="465.833" y="361.629" width="37.667" height="8.371"/><rect x="504.5" y="365.023" width="37.667" height="4.977"/><rect x="543.167" y="368.416" width="37.667" height="1.584"/><rect x="581.833" y="369.774" width="37.667" height=".226"/></g></svg>