<svg class="plot-d6a7b5" fill="currentColor" font-family="system-ui, sans-serif" font-size="10" text-anchor="middle" width="640" height="400" viewBox="0 0 640 400" xmlns="http://www.w3.org/2000/svg" xmlns:xlink="http://www.w3.org/1999/xlink" color="#1e90ff"><style>:where(.plot-d6a7b5){--plot-background: white;display:block;height:intrinsic;max-width:100%}:where(.plot-d6a7b5 text),:where(.plot-d6a7b5 tspan){white-space:pre}</style><g aria-label="y-axis tick" fill="none" stroke="currentColor"><path transform="translate(40,370)" d="M0,0L-6,0"/><path transform="translate(40,343.88059701492534)" d="M0,0L-6,0"/><path transform="translate(40,317.7611940298508)" d="M0,0L-6,0"/><path transform="translate(40,291.64179104477614)" d="M0,0L-6,0"/><path transform="translate(40,265.5223880597015)" d="M0,0L-6,0"/><path transform="translate(40,239.40298507462688)" d="M0,0L-6,0"/><path transform="translate(40,213.28358208955225)" d="M0,0L-6,0"/><path transform="translate(40,187.16417910447763)" d="M0,0L-6,0"/><path transform="translate(40,161.04477611940302)" d="M0,0L-6,0"/><path transform="translate(40,134.92537313432834)" d="M0,0L-6,0"/><path transform="translate(40,108.80597014925371)" d="M0,0L-6,0"/><path transform="translate(40,82.68656716417908)" d="M0,0L-6,0"/><path transform="translate(40,56.567164179104466)" d="M0,0L-6,0"/><path transform="translate(40,30.44776119402984)" d="M0,0L-6,0"/></g><g aria-label="y-axis tick label" text-anchor="end" font-variant="tabular-nums"><text y=".32em" transform="translate(-9,0) translate(40,370)">0</text><text y=".32em" transform="translate(-9,0) translate(40,343.88059701492534)">50</text><text y=".32em" transform="translate(-9,0) translate(40,317.7611940298508)">100</text><text y=".32em" transform="translate(-9,0) translate(40,291.64179104477614)">150</text><text y=".32em" transform="translate(-9,0) translate(40,265.5223880597015)">200</text><text y=".32em" transform="translate(-9,0) translate(40,239.40298507462688)">250</text><text y=".32em" transform="translate(-9,0) translate(40,213.28358208955225)">300</text><text y=".32em" transform="translate(-9,0) translate(40,187.16417910447763)">350</text><text y=".32em" transform="translate(-9,0) translate(40,161.04477611940302)">400</text><text y=".32em" transform="translate(-9,0) translate(40,134.92537313432834)">450</text><text y=".32em" transform="translate(-9,0) translate(40,108.80597014925371)">500</text><text y=".32em" transform="translate(-9,0) translate(40,82.68656716417908)">550</text><text y=".32em" transform="translate(-9,0) translate(40,56.567164179104466)">600</text><text y=".32em" transform="translate(-9,0) translate(40,30.44776119402984)">650</text></g><g aria-label="y-axis label" text-anchor="start"><text y=".71em" transform="translate(-37,-17) translate(40,20)">↑ Frequency</text></g><g aria-label="x-axis tick" fill="none" stroke="currentColor"><path transform="translate(40,370)" d="M0,0L0,6"/><path transform="translate(120.55555555555556,370)" d="M0,0L0,6"/><path transform="translate(201.11111111111111,370)" d="M0,0L0,6"/><path transform="translate(281.66666666666663,370)" d="M0,0L0,6"/><path transform="translate(362.22222222222223,370)" d="M0,0L0,6"/><path transform="translate(442.77777777777777,370)" d="M0,0L0,6"/><path transform="translate(523.3333333333333,370)" d="M0,0L0,6"/><path transform="translate(603.8888888888888,370)" d="M0,0L0,6"/></g><g aria-label="x-axis tick label" font-variant="tabular-nums"><text y=".71em" transform="translate(0,9) translate(40,370)">0.0</text><text y=".71em" transform="translate(0,9) translate(120.55555555555556,370)">0.5</text><text y=".71em" transform="translate(0,9) translate(201.11111111111111,370)">1.0</text><text y=".71em" transform="translate(0,9) translate(281.66666666666663,370)">1.5</text><text y=".71em" transform="translate(0,9) translate(362.22222222222223,370)">2.0</text><text y=".71em" transform="translate(0,9) translate(442.77777777777777,370)">2.5</text><text y=".71em" transform="translate(0,9) translate(523.3333333333333,370)">3.0</text><text y=".71em" transform="translate(0,9) translate(603.8888888888888,370)">3.5</text></g><g aria-label="x-axis label" text-anchor="end"><text transform="translate(17,27) translate(620,370)">Damage Multiplier →</text></g><g aria-label="rect"><rect x="40.5" y="80.075" width="31.222" height="289.925"/><rect x="72.722" y="235.746" width="31.222" height="134.254"/><rect x="104.944" y="328.731" width="31.222" height="41.269"/><rect x="137.167" y="296.866" width="31.222" height="73.134"/><rect x="169.389" y="235.746" width="31.222" height="134.254"/><rect x="201.611" y="20" width="31.222" height="350"/><rect x="233.833" y="282.761" width="31.222" height="87.239"/><rect x="266.056" y="324.552" width="31.222" height="45.448"/><rect x="298.278" y="137.015" width="31.222" height="232.985"/><rect x="330.5" y="359.552" width="31.222" height="10.448"/><rect x="362.722" y="362.164" width="31.222" height="7.836"/><rect x="459.389" y="324.552" width="31.222" height="45.448"/><rect x="588.278" y="362.164" width="31.222" height="7.836"/></g></svg>