<svg class="plot-d6a7b5" fill="currentColor" font-family="system-ui, sans-serif" font-size="10" text-anchor="middle" width="640" height="400" viewBox="0 0 640 400" xmlns="http://www.w3.org/2000/svg" xmlns:xlink="http://www.w3.org/1999/xlink" color="#1e90ff"><style>:where(.plot-d6a7b5){--plot-background: white;display:block;height:intrinsic;max-width:100%}:where(.plot-d6a7b5 text),:where(.plot-d6a7b5 tspan){white-space:pre}</style><g aria-label="y-axis tick" fill="none" stroke="currentColor"><path transform="translate(40,370)" d="M0,0L-6,0"/><path transform="translate(40,341.28794093519275)" d="M0,0L-6,0"/><path transform="translate(40,312.57588187038556)" d="M0,0L-6,0"/><path transform="translate(40,283.8638228055783)" d="M0,0L-6,0"/><path transform="translate(40,255.15176374077114)" d="M0,0L-6,0"/><path transform="translate(40,226.43970467596392)" d="M0,0L-6,0"/><path transform="translate(40,197.7276456111567)" d="M0,0L-6,0"/><path transform="translate(40,169.01558654634945)" d="M0,0L-6,0"/><path transform="translate(40,140.30352748154223)" d="M0,0L-6,0"/><path transform="translate(40,111.59146841673501)" d="M0,0L-6,0"/><path transform="translate(40,82.87940935192779)" d="M0,0L-6,0"/><path transform="translate(40,54.167350287120584)" d="M0,0L-6,0"/><path transform="translate(40,25.45529122231337)" d="M0,0L-6,0"/></g><g aria-label="y-axis tick label" text-anchor="end" font-variant="tabular-nums"><text y=".32em" transform="translate(-9,0) translate(40,370)">0</text><text y=".32em" transform="translate(-9,0) translate(40,341.28794093519275)">200</text><text y=".32em" transform="translate(-9,0) translate(40,312.57588187038556)">400</text><text y=".32em" transform="translate(-9,0) translate(40,283.8638228055783)">600</text><text y=".32em" transform="translate(-9,0) translate(40,255.15176374077114)">800</text><text y=".32em" transform="translate(-9,0) translate(40,226.43970467596392)">1,000</text><text y=".32em" transform="translate(-9,0) translate(40,197.7276456111567)">1,200</text><text y=".32em" transform="translate(-9,0) translate(40,169.01558654634945)">1,400</text><text y=".32em" transform="translate(-9,0) translate(40,140.30352748154223)">1,600</text><text y=".32em" transform="translate(-9,0) translate(40,111.59146841673501)">1,800</text><text y=".32em" transform="translate(-9,0) translate(40,82.87940935192779)">2,000</text><text y=".32em" transform="translate(-9,0) translate(40,54.167350287120584)">2,200</text><text y=".32em" transform="translate(-9,0) translate(40,25.45529122231337)">2,400</text></g><g aria-label="y-axis label" text-anchor="start"><text y=".71em" transform="translate(-37,-17) translate(40,20)">↑ Frequency</text></g><g aria-label="x-axis tick" fill="none" stroke="currentColor"><path transform="translate(40,370)" d="M0,0L0,6"/><path transform="translate(151.53846153846155,370)" d="M0,0L0,6"/><path transform="translate(263.0769230769231,370)" d="M0,0L0,6"/><path transform="translate(374.6153846153846,370)" d="M0,0L0,6"/><path transform="translate(486.15384615384613,370)" d="M0,0L0,6"/><path transform="translate(597.6923076923076,370)" d="M0,0L0,6"/></g><g aria-label="x-axis tick label" font-variant="tabular-nums"><text y=".71em" transform="translate(0,9) translate(40,370)">1</text><text y=".71em" transform="translate(0,9) translate(151.53846153846155,370)">2</text><text y=".71em" transform="translate(0,9) translate(263.0769230769231,370)">3</text><text y=".71em" transform="translate(0,9) translate(374.6153846153846,370)">4</text><text y=".71em" transform="translate(0,9) translate(486.15384615384613,370)">5</text><text y=".71em" transform="translate(0,9) translate(597.6923076923076,370)">6</text></g><g aria-label="x-axis label" text-anchor="end"><text transform="translate(17,27) translate(620,370)">Item Output Amount →</text></g><g aria-label="rect"><rect x="40.5" y="366.124" width="21.308" height="3.876"/><rect x="263.577" y="354.926" width="21.308" height="15.074"/><rect x="598.192" y="20" width="21.308" height="350"/></g></svg>