<svg class="plot-d6a7b5" fill="currentColor" font-family="system-ui, sans-serif" font-size="10" text-anchor="middle" width="640" height="400" viewBox="0 0 640 400" xmlns="http://www.w3.org/2000/svg" xmlns:xlink="http://www.w3.org/1999/xlink" color="#1e90ff"><style>:where(.plot-d6a7b5){--plot-background: white;display:block;height:intrinsic;max-width:100%}:where(.plot-d6a7b5 text),:where(.plot-d6a7b5 tspan){white-space:pre}</style><g aria-label="y-axis tick" fill="none" stroke="currentColor"><path transform="translate(40,370)" d="M0,0L-6,0"/><path transform="translate(40,333.5036496350365)" d="M0,0L-6,0"/><path transform="translate(40,297.007299270073)" d="M0,0L-6,0"/><path transform="translate(40,260.5109489051095)" d="M0,0L-6,0"/><path transform="translate(40,224.014598540146)" d="M0,0L-6,0"/><path transform="translate(40,187.51824817518246)" d="M0,0L-6,0"/><path transform="translate(40,151.02189781021897)" d="M0,0L-6,0"/><path transform="translate(40,114.52554744525547)" d="M0,0L-6,0"/><path transform="translate(40,78.02919708029198)" d="M0,0L-6,0"/><path transform="translate(40,41.53284671532848)" d="M0,0L-6,0"/></g><g aria-label="y-axis tick label" text-anchor="end" font-variant="tabular-nums"><text y=".32em" transform="translate(-9,0) translate(40,370)">0</text><text y=".32em" transform="translate(-9,0) translate(40,333.5036496350365)">200</text><text y=".32em" transform="translate(-9,0) translate(40,297.007299270073)">400</text><text y=".32em" transform="translate(-9,0) translate(40,260.5109489051095)">600</text><text y=".32em" transform="translate(-9,0) translate(40,224.014598540146)">800</text><text y=".32em" transform="translate(-9,0) translate(40,187.51824817518246)">1,000</text><text y=".32em" transform="translate(-9,0) translate(40,151.02189781021897)">1,200</text><text y=".32em" transform="translate(-9,0) translate(40,114.52554744525547)">1,400</text><text y=".32em" transform="translate(-9,0) translate(40,78.02919708029198)">1,600</text><text y=".32em" transform="translate(-9,0) translate(40,41.53284671532848)">1,800</text></g><g aria-label="y-axis label" text-anchor="start"><text y=".71em" transform="translate(-37,-17) translate(40,20)">↑ Frequency</text></g><g aria-label="x-axis tick" fill="none" stroke="currentColor"><path transform="translate(122.85714285714286,370)" d="M0,0L0,6"/><path transform="translate(233.33333333333331,370)" d="M0,0L0,6"/><path transform="translate(343.8095238095238,370)" d="M0,0L0,6"/><path transform="translate(454.28571428571433,370)" d="M0,0L0,6"/><path transform="translate(564.7619047619047,370)" d="M0,0L0,6"/></g><g aria-label="x-axis tick label" font-variant="tabular-nums"><text y=".71em" transform="translate(0,9) translate(122.85714285714286,370)">0.4</text><text y=".71em" transform="translate(0,9) translate(233.33333333333331,370)">0.6</text><text y=".71em" transform="translate(0,9) translate(343.8095238095238,370)">0.8</text><text y=".71em" transform="translate(0,9) translate(454.28571428571433,370)">1.0</text><text y=".71em" transform="translate(0,9) translate(564.7619047619047,370)">1.2</text></g><g aria-label="x-axis label" text-anchor="end"><text transform="translate(17,27) translate(620,370)">Draw Speed Multiplier →</text></g><g aria-label="rect"><rect x="40.5" y="357.226" width="26.619" height="12.774"/><rect x="454.786" y="20" width="26.619" height="350"/><rect x="592.881" y="317.993" width="26.619" height="52.007"/></g></svg>