<svg class="plot-d6a7b5" fill="currentColor" font-family="system-ui, sans-serif" font-size="10" text-anchor="middle" width="640" height="400" viewBox="0 0 640 400" xmlns="http://www.w3.org/2000/svg" xmlns:xlink="http://www.w3.org/1999/xlink" color="#1e90ff"><style>:where(.plot-d6a7b5){--plot-background: white;display:block;height:intrinsic;max-width:100%}:where(.plot-d6a7b5 text),:where(.plot-d6a7b5 tspan){white-space:pre}</style><g aria-label="y-axis tick" fill="none" stroke="currentColor"><path transform="translate(40,370)" d="M0,0L-6,0"/><path transform="translate(40,333.1384939441811)" d="M0,0L-6,0"/><path transform="translate(40,296.2769878883623)" d="M0,0L-6,0"/><path transform="translate(40,259.41548183254343)" d="M0,0L-6,0"/><path transform="translate(40,222.5539757767246)" d="M0,0L-6,0"/><path transform="translate(40,185.69246972090573)" d="M0,0L-6,0"/><path transform="translate(40,148.8309636650869)" d="M0,0L-6,0"/><path transform="translate(40,111.96945760926802)" d="M0,0L-6,0"/><path transform="translate(40,75.1079515534492)" d="M0,0L-6,0"/><path transform="translate(40,38.246445497630326)" d="M0,0L-6,0"/></g><g aria-label="y-axis tick label" text-anchor="end" font-variant="tabular-nums"><text y=".32em" transform="translate(-9,0) translate(40,370)">0</text><text y=".32em" transform="translate(-9,0) translate(40,333.1384939441811)">200</text><text y=".32em" transform="translate(-9,0) translate(40,296.2769878883623)">400</text><text y=".32em" transform="translate(-9,0) translate(40,259.41548183254343)">600</text><text y=".32em" transform="translate(-9,0) translate(40,222.5539757767246)">800</text><text y=".32em" transform="translate(-9,0) translate(40,185.69246972090573)">1,000</text><text y=".32em" transform="translate(-9,0) translate(40,148.8309636650869)">1,200</text><text y=".32em" transform="translate(-9,0) translate(40,111.96945760926802)">1,400</text><text y=".32em" transform="translate(-9,0) translate(40,75.1079515534492)">1,600</text><text y=".32em" transform="translate(-9,0) translate(40,38.246445497630326)">1,800</text></g><g aria-label="y-axis label" text-anchor="start"><text y=".71em" transform="translate(-37,-17) translate(40,20)">↑ Frequency</text></g><g aria-label="x-axis tick" fill="none" stroke="currentColor"><path transform="translate(76.25,370)" d="M0,0L0,6"/><path transform="translate(148.75,370)" d="M0,0L0,6"/><path transform="translate(221.25,370)" d="M0,0L0,6"/><path transform="translate(293.75,370)" d="M0,0L0,6"/><path transform="translate(366.25,370)" d="M0,0L0,6"/><path transform="translate(438.75,370)" d="M0,0L0,6"/><path transform="translate(511.25,370)" d="M0,0L0,6"/><path transform="translate(583.75,370)" d="M0,0L0,6"/></g><g aria-label="x-axis tick label" font-variant="tabular-nums"><text y=".71em" transform="translate(0,9) translate(76.25,370)">10</text><text y=".71em" transform="translate(0,9) translate(148.75,370)">20</text><text y=".71em" transform="translate(0,9) translate(221.25,370)">30</text><text y=".71em" transform="translate(0,9) translate(293.75,370)">40</text><text y=".71em" transform="translate(0,9) translate(366.25,370)">50</text><text y=".71em" transform="translate(0,9) translate(438.75,370)">60</text><text y=".71em" transform="translate(0,9) translate(511.25,370)">70</text><text y=".71em" transform="translate(0,9) translate(583.75,370)">80</text></g><g aria-label="x-axis label" text-anchor="end"><text transform="translate(17,27) translate(620,370)">Name Length →</text></g><g aria-label="rect"><rect x="40.5" y="369.816" width="35.25" height=".184"/><rect x="76.75" y="20" width="35.25" height="350"/><rect x="113" y="318.578" width="35.25" height="51.422"/><rect x="149.25" y="368.71" width="35.25" height="1.29"/><rect x="185.5" y="365.392" width="35.25" height="4.608"/><rect x="221.75" y="360.232" width="35.25" height="9.768"/><rect x="258" y="359.679" width="35.25" height="10.321"/><rect x="294.25" y="357.467" width="35.25" height="12.533"/><rect x="330.5" y="351.201" width="35.25" height="18.799"/><rect x="366.75" y="354.334" width="35.25" height="15.666"/><rect x="403" y="356.177" width="35.25" height="13.823"/><rect x="439.25" y="354.334" width="35.25" height="15.666"/><rect x="475.5" y="361.706" width="35.25" height="8.294"/><rect x="511.75" y="368.526" width="35.25" height="1.474"/><rect x="548" y="368.894" width="35.25" height="1.106"/><rect x="584.25" y="369.816" width="35.25" height=".184"/></g></svg>