<svg class="plot-d6a7b5" fill="currentColor" font-family="system-ui, sans-serif" font-size="10" text-anchor="middle" width="640" height="400" viewBox="0 0 640 400" xmlns="http://www.w3.org/2000/svg" xmlns:xlink="http://www.w3.org/1999/xlink" color="dodgerblue"><style>:where(.plot-d6a7b5){--plot-background: white;display:block;height:intrinsic;max-width:100%}:where(.plot-d6a7b5 text),:where(.plot-d6a7b5 tspan){white-space:pre}</style><g aria-label="y-axis tick" fill="none" stroke="currentColor"><path transform="translate(40,370)" d="M0,0L-6,0"/><path transform="translate(40,341.0743801652893)" d="M0,0L-6,0"/><path transform="translate(40,312.1487603305785)" d="M0,0L-6,0"/><path transform="translate(40,283.22314049586777)" d="M0,0L-6,0"/><path transform="translate(40,254.29752066115702)" d="M0,0L-6,0"/><path transform="translate(40,225.37190082644628)" d="M0,0L-6,0"/><path transform="translate(40,196.44628099173553)" d="M0,0L-6,0"/><path transform="translate(40,167.52066115702482)" d="M0,0L-6,0"/><path transform="translate(40,138.59504132231405)" d="M0,0L-6,0"/><path transform="translate(40,109.66942148760333)" d="M0,0L-6,0"/><path transform="translate(40,80.74380165289256)" d="M0,0L-6,0"/><path transform="translate(40,51.81818181818183)" d="M0,0L-6,0"/><path transform="translate(40,22.892561983471065)" d="M0,0L-6,0"/></g><g aria-label="y-axis tick label" text-anchor="end" font-variant="tabular-nums"><text y=".32em" transform="translate(-9,0) translate(40,370)">0</text><text y=".32em" transform="translate(-9,0) translate(40,341.0743801652893)">100</text><text y=".32em" transform="translate(-9,0) translate(40,312.1487603305785)">200</text><text y=".32em" transform="translate(-9,0) translate(40,283.22314049586777)">300</text><text y=".32em" transform="translate(-9,0) translate(40,254.29752066115702)">400</text><text y=".32em" transform="translate(-9,0) translate(40,225.37190082644628)">500</text><text y=".32em" transform="translate(-9,0) translate(40,196.44628099173553)">600</text><text y=".32em" transform="translate(-9,0) translate(40,167.52066115702482)">700</text><text y=".32em" transform="translate(-9,0) translate(40,138.59504132231405)">800</text><text y=".32em" transform="translate(-9,0) translate(40,109.66942148760333)">900</text><text y=".32em" transform="translate(-9,0) translate(40,80.74380165289256)">1,000</text><text y=".32em" transform="translate(-9,0) translate(40,51.81818181818183)">1,100</text><text y=".32em" transform="translate(-9,0) translate(40,22.892561983471065)">1,200</text></g><g aria-label="y-axis label" text-anchor="start"><text y=".71em" transform="translate(-37,-17) translate(40,20)">↑ Frequency</text></g><g aria-label="x-axis tick" fill="none" stroke="currentColor"><path transform="translate(81.42857142857143,370)" d="M0,0L0,6"/><path transform="translate(164.28571428571428,370)" d="M0,0L0,6"/><path transform="translate(247.14285714285717,370)" d="M0,0L0,6"/><path transform="translate(330,370)" d="M0,0L0,6"/><path transform="translate(412.8571428571429,370)" d="M0,0L0,6"/><path transform="translate(495.71428571428567,370)" d="M0,0L0,6"/><path transform="translate(578.5714285714287,370)" d="M0,0L0,6"/></g><g aria-label="x-axis tick label" font-variant="tabular-nums"><text y=".71em" transform="translate(0,9) translate(81.42857142857143,370)">10</text><text y=".71em" transform="translate(0,9) translate(164.28571428571428,370)">20</text><text y=".71em" transform="translate(0,9) translate(247.14285714285717,370)">30</text><text y=".71em" transform="translate(0,9) translate(330,370)">40</text><text y=".71em" transform="translate(0,9) translate(412.8571428571429,370)">50</text><text y=".71em" transform="translate(0,9) translate(495.71428571428567,370)">60</text><text y=".71em" transform="translate(0,9) translate(578.5714285714287,370)">70</text></g><g aria-label="x-axis label" text-anchor="end"><text transform="translate(17,27) translate(620,370)">Name Length →</text></g><g aria-label="rect"><rect x="40.5" y="369.711" width="40.429" height=".289"/><rect x="81.929" y="20" width="40.429" height="350"/><rect x="123.357" y="312.727" width="40.429" height="57.273"/><rect x="164.786" y="357.851" width="40.429" height="12.149"/><rect x="206.214" y="352.934" width="40.429" height="17.066"/><rect x="247.643" y="353.802" width="40.429" height="16.198"/><rect x="289.071" y="354.38" width="40.429" height="15.62"/><rect x="330.5" y="362.19" width="40.429" height="7.81"/><rect x="371.929" y="359.298" width="40.429" height="10.702"/><rect x="413.357" y="359.008" width="40.429" height="10.992"/><rect x="454.786" y="360.165" width="40.429" height="9.835"/><rect x="496.214" y="362.769" width="40.429" height="7.231"/><rect x="537.643" y="365.372" width="40.429" height="4.628"/><rect x="579.071" y="369.421" width="40.429" height=".579"/></g></svg>