<svg class="plot-d6a7b5" fill="currentColor" font-family="system-ui, sans-serif" font-size="10" text-anchor="middle" width="640" height="400" viewBox="0 0 640 400" xmlns="http://www.w3.org/2000/svg" xmlns:xlink="http://www.w3.org/1999/xlink" color="#1e90ff"><style>:where(.plot-d6a7b5){--plot-background: white;display:block;height:intrinsic;max-width:100%}:where(.plot-d6a7b5 text),:where(.plot-d6a7b5 tspan){white-space:pre}</style><g aria-label="y-axis tick" fill="none" stroke="currentColor"><path transform="translate(40,370)" d="M0,0L-6,0"/><path transform="translate(40,332.5267665952891)" d="M0,0L-6,0"/><path transform="translate(40,295.0535331905781)" d="M0,0L-6,0"/><path transform="translate(40,257.5802997858672)" d="M0,0L-6,0"/><path transform="translate(40,220.1070663811563)" d="M0,0L-6,0"/><path transform="translate(40,182.6338329764454)" d="M0,0L-6,0"/><path transform="translate(40,145.16059957173448)" d="M0,0L-6,0"/><path transform="translate(40,107.68736616702355)" d="M0,0L-6,0"/><path transform="translate(40,70.21413276231263)" d="M0,0L-6,0"/><path transform="translate(40,32.740899357601734)" d="M0,0L-6,0"/></g><g aria-label="y-axis tick label" text-anchor="end" font-variant="tabular-nums"><text y=".32em" transform="translate(-9,0) translate(40,370)">0</text><text y=".32em" transform="translate(-9,0) translate(40,332.5267665952891)">50</text><text y=".32em" transform="translate(-9,0) translate(40,295.0535331905781)">100</text><text y=".32em" transform="translate(-9,0) translate(40,257.5802997858672)">150</text><text y=".32em" transform="translate(-9,0) translate(40,220.1070663811563)">200</text><text y=".32em" transform="translate(-9,0) translate(40,182.6338329764454)">250</text><text y=".32em" transform="translate(-9,0) translate(40,145.16059957173448)">300</text><text y=".32em" transform="translate(-9,0) translate(40,107.68736616702355)">350</text><text y=".32em" transform="translate(-9,0) translate(40,70.21413276231263)">400</text><text y=".32em" transform="translate(-9,0) translate(40,32.740899357601734)">450</text></g><g aria-label="y-axis label" text-anchor="start"><text y=".71em" transform="translate(-37,-17) translate(40,20)">↑ Frequency</text></g><g aria-label="x-axis tick" fill="none" stroke="currentColor"><path transform="translate(40,370)" d="M0,0L0,6"/><path transform="translate(143.57142857142858,370)" d="M0,0L0,6"/><path transform="translate(247.14285714285717,370)" d="M0,0L0,6"/><path transform="translate(350.71428571428567,370)" d="M0,0L0,6"/><path transform="translate(454.28571428571433,370)" d="M0,0L0,6"/><path transform="translate(557.8571428571429,370)" d="M0,0L0,6"/></g><g aria-label="x-axis tick label" font-variant="tabular-nums"><text y=".71em" transform="translate(0,9) translate(40,370)">0.0</text><text y=".71em" transform="translate(0,9) translate(143.57142857142858,370)">0.5</text><text y=".71em" transform="translate(0,9) translate(247.14285714285717,370)">1.0</text><text y=".71em" transform="translate(0,9) translate(350.71428571428567,370)">1.5</text><text y=".71em" transform="translate(0,9) translate(454.28571428571433,370)">2.0</text><text y=".71em" transform="translate(0,9) translate(557.8571428571429,370)">2.5</text></g><g aria-label="x-axis label" text-anchor="end"><text transform="translate(17,27) translate(620,370)">Damage Multiplier →</text></g><g aria-label="rect"><rect x="40.5" y="31.991" width="40.429" height="338.009"/><rect x="81.929" y="189.379" width="40.429" height="180.621"/><rect x="123.357" y="314.54" width="40.429" height="55.46"/><rect x="164.786" y="284.561" width="40.429" height="85.439"/><rect x="206.214" y="189.379" width="40.429" height="180.621"/><rect x="247.643" y="20" width="40.429" height="350"/><rect x="289.071" y="257.58" width="40.429" height="112.42"/><rect x="330.5" y="314.54" width="40.429" height="55.46"/><rect x="371.929" y="96.445" width="40.429" height="273.555"/><rect x="413.357" y="355.76" width="40.429" height="14.24"/><rect x="579.071" y="312.291" width="40.429" height="57.709"/></g></svg>