<svg class="plot-d6a7b5" fill="currentColor" font-family="system-ui, sans-serif" font-size="10" text-anchor="middle" width="640" height="400" viewBox="0 0 640 400" xmlns="http://www.w3.org/2000/svg" xmlns:xlink="http://www.w3.org/1999/xlink" color="#1e90ff"><style>:where(.plot-d6a7b5){--plot-background: white;display:block;height:intrinsic;max-width:100%}:where(.plot-d6a7b5 text),:where(.plot-d6a7b5 tspan){white-space:pre}</style><g aria-label="y-axis tick" fill="none" stroke="currentColor"><path transform="translate(40,370)" d="M0,0L-6,0"/><path transform="translate(40,329.3495934959349)" d="M0,0L-6,0"/><path transform="translate(40,288.6991869918699)" d="M0,0L-6,0"/><path transform="translate(40,248.04878048780486)" d="M0,0L-6,0"/><path transform="translate(40,207.39837398373984)" d="M0,0L-6,0"/><path transform="translate(40,166.7479674796748)" d="M0,0L-6,0"/><path transform="translate(40,126.09756097560974)" d="M0,0L-6,0"/><path transform="translate(40,85.4471544715447)" d="M0,0L-6,0"/><path transform="translate(40,44.79674796747966)" d="M0,0L-6,0"/></g><g aria-label="y-axis tick label" text-anchor="end" font-variant="tabular-nums"><text y=".32em" transform="translate(-9,0) translate(40,370)">0</text><text y=".32em" transform="translate(-9,0) translate(40,329.3495934959349)">100</text><text y=".32em" transform="translate(-9,0) translate(40,288.6991869918699)">200</text><text y=".32em" transform="translate(-9,0) translate(40,248.04878048780486)">300</text><text y=".32em" transform="translate(-9,0) translate(40,207.39837398373984)">400</text><text y=".32em" transform="translate(-9,0) translate(40,166.7479674796748)">500</text><text y=".32em" transform="translate(-9,0) translate(40,126.09756097560974)">600</text><text y=".32em" transform="translate(-9,0) translate(40,85.4471544715447)">700</text><text y=".32em" transform="translate(-9,0) translate(40,44.79674796747966)">800</text></g><g aria-label="y-axis label" text-anchor="start"><text y=".71em" transform="translate(-37,-17) translate(40,20)">↑ Frequency</text></g><g aria-label="x-axis tick" fill="none" stroke="currentColor"><path transform="translate(40,370)" d="M0,0L0,6"/><path transform="translate(151.53846153846155,370)" d="M0,0L0,6"/><path transform="translate(263.0769230769231,370)" d="M0,0L0,6"/><path transform="translate(374.6153846153846,370)" d="M0,0L0,6"/><path transform="translate(486.15384615384613,370)" d="M0,0L0,6"/><path transform="translate(597.6923076923076,370)" d="M0,0L0,6"/></g><g aria-label="x-axis tick label" font-variant="tabular-nums"><text y=".71em" transform="translate(0,9) translate(40,370)">1</text><text y=".71em" transform="translate(0,9) translate(151.53846153846155,370)">2</text><text y=".71em" transform="translate(0,9) translate(263.0769230769231,370)">3</text><text y=".71em" transform="translate(0,9) translate(374.6153846153846,370)">4</text><text y=".71em" transform="translate(0,9) translate(486.15384615384613,370)">5</text><text y=".71em" transform="translate(0,9) translate(597.6923076923076,370)">6</text></g><g aria-label="x-axis label" text-anchor="end"><text transform="translate(17,27) translate(620,370)">Maximum Fire Stack →</text></g><g aria-label="rect"><rect x="40.5" y="321.22" width="21.308" height="48.78"/><rect x="152.038" y="20" width="21.308" height="350"/><rect x="263.577" y="338.293" width="21.308" height="31.707"/><rect x="375.115" y="306.992" width="21.308" height="63.008"/><rect x="486.654" y="365.122" width="21.308" height="4.878"/><rect x="598.192" y="367.561" width="21.308" height="2.439"/></g></svg>