<svg class="plot-d6a7b5" fill="currentColor" font-family="system-ui, sans-serif" font-size="10" text-anchor="middle" width="640" height="400" viewBox="0 0 640 400" xmlns="http://www.w3.org/2000/svg" xmlns:xlink="http://www.w3.org/1999/xlink" color="dodgerblue"><style>:where(.plot-d6a7b5){--plot-background: white;display:block;height:intrinsic;max-width:100%}:where(.plot-d6a7b5 text),:where(.plot-d6a7b5 tspan){white-space:pre}</style><g aria-label="y-axis tick" fill="none" stroke="currentColor"><path transform="translate(40,370)" d="M0,0L-6,0"/><path transform="translate(40,324.30809399477806)" d="M0,0L-6,0"/><path transform="translate(40,278.6161879895562)" d="M0,0L-6,0"/><path transform="translate(40,232.92428198433421)" d="M0,0L-6,0"/><path transform="translate(40,187.23237597911225)" d="M0,0L-6,0"/><path transform="translate(40,141.54046997389034)" d="M0,0L-6,0"/><path transform="translate(40,95.8485639686684)" d="M0,0L-6,0"/><path transform="translate(40,50.15665796344647)" d="M0,0L-6,0"/></g><g aria-label="y-axis tick label" text-anchor="end" font-variant="tabular-nums"><text y=".32em" transform="translate(-9,0) translate(40,370)">0</text><text y=".32em" transform="translate(-9,0) translate(40,324.30809399477806)">50</text><text y=".32em" transform="translate(-9,0) translate(40,278.6161879895562)">100</text><text y=".32em" transform="translate(-9,0) translate(40,232.92428198433421)">150</text><text y=".32em" transform="translate(-9,0) translate(40,187.23237597911225)">200</text><text y=".32em" transform="translate(-9,0) translate(40,141.54046997389034)">250</text><text y=".32em" transform="translate(-9,0) translate(40,95.8485639686684)">300</text><text y=".32em" transform="translate(-9,0) translate(40,50.15665796344647)">350</text></g><g aria-label="y-axis label" text-anchor="start"><text y=".71em" transform="translate(-37,-17) translate(40,20)">↑ Frequency</text></g><g aria-label="x-axis tick" fill="none" stroke="currentColor"><path transform="translate(40,370)" d="M0,0L0,6"/><path transform="translate(125.29411764705884,370)" d="M0,0L0,6"/><path transform="translate(210.58823529411768,370)" d="M0,0L0,6"/><path transform="translate(295.88235294117646,370)" d="M0,0L0,6"/><path transform="translate(381.17647058823536,370)" d="M0,0L0,6"/><path transform="translate(466.47058823529414,370)" d="M0,0L0,6"/><path transform="translate(551.7647058823529,370)" d="M0,0L0,6"/></g><g aria-label="x-axis tick label" font-variant="tabular-nums"><text y=".71em" transform="translate(0,9) translate(40,370)">0.0</text><text y=".71em" transform="translate(0,9) translate(125.29411764705884,370)">0.5</text><text y=".71em" transform="translate(0,9) translate(210.58823529411768,370)">1.0</text><text y=".71em" transform="translate(0,9) translate(295.88235294117646,370)">1.5</text><text y=".71em" transform="translate(0,9) translate(381.17647058823536,370)">2.0</text><text y=".71em" transform="translate(0,9) translate(466.47058823529414,370)">2.5</text><text y=".71em" transform="translate(0,9) translate(551.7647058823529,370)">3.0</text></g><g aria-label="x-axis label" text-anchor="end"><text transform="translate(17,27) translate(620,370)">Damage Multiplier →</text></g><g aria-label="rect"><rect x="40.5" y="20" width="33.118" height="350"/><rect x="74.618" y="199.112" width="33.118" height="170.888"/><rect x="108.735" y="318.825" width="33.118" height="51.175"/><rect x="142.853" y="265.822" width="33.118" height="104.178"/><rect x="176.971" y="204.595" width="33.118" height="165.405"/><rect x="211.088" y="62.037" width="33.118" height="307.963"/><rect x="245.206" y="245.718" width="33.118" height="124.282"/><rect x="279.324" y="320.653" width="33.118" height="49.347"/><rect x="313.441" y="128.747" width="33.118" height="241.253"/><rect x="347.559" y="350.809" width="33.118" height="19.191"/><rect x="381.676" y="362.689" width="33.118" height="7.311"/><rect x="484.029" y="318.825" width="33.118" height="51.175"/><rect x="586.382" y="368.172" width="33.118" height="1.828"/></g></svg>