<svg class="plot-d6a7b5" fill="currentColor" font-family="system-ui, sans-serif" font-size="10" text-anchor="middle" width="640" height="400" viewBox="0 0 640 400" style="color: dodgerblue;" xmlns="http://www.w3.org/2000/svg" xmlns:xlink="http://www.w3.org/1999/xlink"><style>:where(.plot-d6a7b5) {
  --plot-background: white;
  display: block;
  height: auto;
  height: intrinsic;
  max-width: 100%;
}
:where(.plot-d6a7b5 text),
:where(.plot-d6a7b5 tspan) {
  white-space: pre;
}</style><g aria-label="y-grid" stroke="currentColor" stroke-opacity="0.1"><line x1="40" x2="620" y1="370" y2="370"></line><line x1="40" x2="620" y1="335" y2="335"></line><line x1="40" x2="620" y1="300" y2="300"></line><line x1="40" x2="620" y1="265" y2="265"></line><line x1="40" x2="620" y1="230" y2="230"></line><line x1="40" x2="620" y1="195" y2="195"></line><line x1="40" x2="620" y1="160" y2="160"></line><line x1="40" x2="620" y1="125.00000000000001" y2="125.00000000000001"></line><line x1="40" x2="620" y1="89.99999999999999" y2="89.99999999999999"></line><line x1="40" x2="620" y1="54.99999999999999" y2="54.99999999999999"></line><line x1="40" x2="620" y1="20" y2="20"></line></g><g aria-label="y-axis tick" fill="none" stroke="currentColor"><path transform="translate(40,370)" d="M0,0L-6,0"></path><path transform="translate(40,335)" d="M0,0L-6,0"></path><path transform="translate(40,300)" d="M0,0L-6,0"></path><path transform="translate(40,265)" d="M0,0L-6,0"></path><path transform="translate(40,230)" d="M0,0L-6,0"></path><path transform="translate(40,195)" d="M0,0L-6,0"></path><path transform="translate(40,160)" d="M0,0L-6,0"></path><path transform="translate(40,125.00000000000001)" d="M0,0L-6,0"></path><path transform="translate(40,89.99999999999999)" d="M0,0L-6,0"></path><path transform="translate(40,54.99999999999999)" d="M0,0L-6,0"></path><path transform="translate(40,20)" d="M0,0L-6,0"></path></g><g aria-label="y-axis tick label" text-anchor="end" font-variant="tabular-nums" transform="translate(-9,0)"><text y="0.32em" transform="translate(40,370)">0</text><text y="0.32em" transform="translate(40,335)">10</text><text y="0.32em" transform="translate(40,300)">20</text><text y="0.32em" transform="translate(40,265)">30</text><text y="0.32em" transform="translate(40,230)">40</text><text y="0.32em" transform="translate(40,195)">50</text><text y="0.32em" transform="translate(40,160)">60</text><text y="0.32em" transform="translate(40,125.00000000000001)">70</text><text y="0.32em" transform="translate(40,89.99999999999999)">80</text><text y="0.32em" transform="translate(40,54.99999999999999)">90</text><text y="0.32em" transform="translate(40,20)">100</text></g><g aria-label="y-axis label" text-anchor="start" transform="translate(-37,-17)"><text y="0.71em" transform="translate(40,20)">↑ % Chance</text></g><g aria-label="x-axis tick" fill="none" stroke="currentColor" transform="translate(43,0)"><path transform="translate(50,370)" d="M0,0L0,6"></path><path transform="translate(145,370)" d="M0,0L0,6"></path><path transform="translate(240,370)" d="M0,0L0,6"></path><path transform="translate(335,370)" d="M0,0L0,6"></path><path transform="translate(430,370)" d="M0,0L0,6"></path><path transform="translate(525,370)" d="M0,0L0,6"></path></g><g aria-label="x-axis tick label" transform="translate(43,9)"><text y="0.71em" transform="translate(50,370)">1</text><text y="0.71em" transform="translate(145,370)">2</text><text y="0.71em" transform="translate(240,370)">3</text><text y="0.71em" transform="translate(335,370)">4</text><text y="0.71em" transform="translate(430,370)">5</text><text y="0.71em" transform="translate(525,370)">6</text></g><g aria-label="x-axis label" transform="translate(0,27)"><text transform="translate(330,370)">Fire Stack</text></g><g aria-label="dot" fill="dodgerblue" stroke-width="1.5" transform="translate(43,0)"><path transform="translate(50,195)" d="M0,-3.629L3.142,1.814L-3.142,1.814Z" stroke="rgb(38, 165, 219)"></path><path transform="translate(145,195)" d="M0,-3.629L3.142,1.814L-3.142,1.814Z" stroke="rgb(38, 165, 219)"></path><path transform="translate(50,207.90625000000006)" d="M0,-3.629L3.142,1.814L-3.142,1.814Z" stroke="rgb(109, 66, 174)"></path><path transform="translate(145,207.90625000000006)" d="M0,-3.629L3.142,1.814L-3.142,1.814Z" stroke="rgb(109, 66, 174)"></path><path transform="translate(240,207.90625000000006)" d="M0,-3.629L3.142,1.814L-3.142,1.814Z" stroke="rgb(109, 66, 174)"></path><path transform="translate(335,207.90625000000006)" d="M0,-3.629L3.142,1.814L-3.142,1.814Z" stroke="rgb(109, 66, 174)"></path><path transform="translate(50,116.25000000000004)" d="M0,-3.629L3.142,1.814L-3.142,1.814Z" stroke="rgb(108, 68, 177)"></path><path transform="translate(145,116.25000000000004)" d="M0,-3.629L3.142,1.814L-3.142,1.814Z" stroke="rgb(108, 68, 177)"></path><path transform="translate(50,282.5)" d="M0,-3.629L3.142,1.814L-3.142,1.814Z" stroke="rgb(175, 240, 91)"></path><path transform="translate(50,197.18750000000003)" d="M0,-3.629L3.142,1.814L-3.142,1.814Z" stroke="rgb(80, 106, 217)"></path><path transform="translate(145,197.18750000000003)" d="M0,-3.629L3.142,1.814L-3.142,1.814Z" stroke="rgb(80, 106, 217)"></path><path transform="translate(240,197.18750000000003)" d="M0,-3.629L3.142,1.814L-3.142,1.814Z" stroke="rgb(80, 106, 217)"></path><path transform="translate(50,238.55859375000003)" d="M0,-3.629L3.142,1.814L-3.142,1.814Z" stroke="rgb(110, 64, 170)"></path><path transform="translate(145,238.55859375000003)" d="M0,-3.629L3.142,1.814L-3.142,1.814Z" stroke="rgb(110, 64, 170)"></path><path transform="translate(240,238.55859375000003)" d="M0,-3.629L3.142,1.814L-3.142,1.814Z" stroke="rgb(110, 64, 170)"></path><path transform="translate(335,238.55859375000003)" d="M0,-3.629L3.142,1.814L-3.142,1.814Z" stroke="rgb(110, 64, 170)"></path><path transform="translate(430,238.55859375000003)" d="M0,-3.629L3.142,1.814L-3.142,1.814Z" stroke="rgb(110, 64, 170)"></path><path transform="translate(50,158.90625000000003)" d="M0,-3.629L3.142,1.814L-3.142,1.814Z" stroke="rgb(110, 64, 170)"></path><path transform="translate(145,158.90625000000003)" d="M0,-3.629L3.142,1.814L-3.142,1.814Z" stroke="rgb(110, 64, 170)"></path><path transform="translate(240,158.90625000000003)" d="M0,-3.629L3.142,1.814L-3.142,1.814Z" stroke="rgb(110, 64, 170)"></path><path transform="translate(50,300)" d="M0,-3.629L3.142,1.814L-3.142,1.814Z" stroke="rgb(175, 240, 91)"></path><path transform="translate(50,196.74999999999997)" d="M0,-3.629L3.142,1.814L-3.142,1.814Z" stroke="rgb(80, 106, 217)"></path><path transform="translate(145,196.74999999999997)" d="M0,-3.629L3.142,1.814L-3.142,1.814Z" stroke="rgb(80, 106, 217)"></path><path transform="translate(240,196.74999999999997)" d="M0,-3.629L3.142,1.814L-3.142,1.814Z" stroke="rgb(80, 106, 217)"></path><path transform="translate(50,232.42812499999997)" d="M0,-3.629L3.142,1.814L-3.142,1.814Z" stroke="rgb(110, 64, 170)"></path><path transform="translate(145,232.42812499999997)" d="M0,-3.629L3.142,1.814L-3.142,1.814Z" stroke="rgb(110, 64, 170)"></path><path transform="translate(240,232.42812499999997)" d="M0,-3.629L3.142,1.814L-3.142,1.814Z" stroke="rgb(110, 64, 170)"></path><path transform="translate(335,232.42812499999997)" d="M0,-3.629L3.142,1.814L-3.142,1.814Z" stroke="rgb(110, 64, 170)"></path><path transform="translate(430,232.42812499999997)" d="M0,-3.629L3.142,1.814L-3.142,1.814Z" stroke="rgb(110, 64, 170)"></path><path transform="translate(50,150.37499999999994)" d="M0,-3.629L3.142,1.814L-3.142,1.814Z" stroke="rgb(110, 64, 170)"></path><path transform="translate(145,150.37499999999994)" d="M0,-3.629L3.142,1.814L-3.142,1.814Z" stroke="rgb(110, 64, 170)"></path><path transform="translate(240,150.37499999999994)" d="M0,-3.629L3.142,1.814L-3.142,1.814Z" stroke="rgb(110, 64, 170)"></path><path transform="translate(50,245.31250000000003)" d="M0,-3.629L3.142,1.814L-3.142,1.814Z" stroke="rgb(80, 106, 217)"></path><path transform="translate(145,245.31250000000003)" d="M0,-3.629L3.142,1.814L-3.142,1.814Z" stroke="rgb(80, 106, 217)"></path><path transform="translate(240,245.31250000000003)" d="M0,-3.629L3.142,1.814L-3.142,1.814Z" stroke="rgb(80, 106, 217)"></path><path transform="translate(335,245.31250000000003)" d="M0,-3.629L3.142,1.814L-3.142,1.814Z" stroke="rgb(80, 106, 217)"></path><path transform="translate(50,340.38671875000006)" d="M0,-3.629L3.142,1.814L-3.142,1.814Z" stroke="rgb(110, 64, 170)"></path><path transform="translate(145,340.38671875000006)" d="M0,-3.629L3.142,1.814L-3.142,1.814Z" stroke="rgb(110, 64, 170)"></path><path transform="translate(240,340.38671875000006)" d="M0,-3.629L3.142,1.814L-3.142,1.814Z" stroke="rgb(110, 64, 170)"></path><path transform="translate(335,340.38671875000006)" d="M0,-3.629L3.142,1.814L-3.142,1.814Z" stroke="rgb(110, 64, 170)"></path><path transform="translate(430,340.38671875000006)" d="M0,-3.629L3.142,1.814L-3.142,1.814Z" stroke="rgb(110, 64, 170)"></path><path transform="translate(525,340.38671875000006)" d="M0,-3.629L3.142,1.814L-3.142,1.814Z" stroke="rgb(110, 64, 170)"></path><path transform="translate(50,107.5)" d="M0,-3.629L3.142,1.814L-3.142,1.814Z" stroke="rgb(49, 148, 224)"></path><path transform="translate(145,107.5)" d="M0,-3.629L3.142,1.814L-3.142,1.814Z" stroke="rgb(49, 148, 224)"></path><path transform="translate(50,307.65624999999994)" d="M0,-3.629L3.142,1.814L-3.142,1.814Z" stroke="rgb(110, 64, 170)"></path><path transform="translate(145,307.65624999999994)" d="M0,-3.629L3.142,1.814L-3.142,1.814Z" stroke="rgb(110, 64, 170)"></path><path transform="translate(240,307.65624999999994)" d="M0,-3.629L3.142,1.814L-3.142,1.814Z" stroke="rgb(110, 64, 170)"></path><path transform="translate(335,307.65624999999994)" d="M0,-3.629L3.142,1.814L-3.142,1.814Z" stroke="rgb(110, 64, 170)"></path></g><g aria-label="text" transform="translate(58,0)"><text opacity="0.75" y="0.32em" transform="translate(50,195)" fill="rgb(38, 165, 219)">108</text><text opacity="0.75" y="0.32em" transform="translate(145,195)" fill="rgb(38, 165, 219)">108</text><text opacity="0.75" y="0.32em" transform="translate(50,207.90625000000006)" fill="rgb(109, 66, 174)">6</text><text opacity="0.75" y="0.32em" transform="translate(145,207.90625000000006)" fill="rgb(109, 66, 174)">6</text><text opacity="0.75" y="0.32em" transform="translate(240,207.90625000000006)" fill="rgb(109, 66, 174)">6</text><text opacity="0.75" y="0.32em" transform="translate(335,207.90625000000006)" fill="rgb(109, 66, 174)">6</text><text opacity="0.75" y="0.32em" transform="translate(50,116.25000000000004)" fill="rgb(108, 68, 177)">9</text><text opacity="0.75" y="0.32em" transform="translate(145,116.25000000000004)" fill="rgb(108, 68, 177)">9</text><text opacity="0.75" y="0.32em" transform="translate(50,282.5)" fill="rgb(175, 240, 91)">279</text><text opacity="0.75" y="0.32em" transform="translate(50,197.18750000000003)" fill="rgb(80, 106, 217)">54</text><text opacity="0.75" y="0.32em" transform="translate(145,197.18750000000003)" fill="rgb(80, 106, 217)">54</text><text opacity="0.75" y="0.32em" transform="translate(240,197.18750000000003)" fill="rgb(80, 106, 217)">54</text><text opacity="0.75" y="0.32em" transform="translate(50,238.55859375000003)" fill="rgb(110, 64, 170)">3</text><text opacity="0.75" y="0.32em" transform="translate(145,238.55859375000003)" fill="rgb(110, 64, 170)">3</text><text opacity="0.75" y="0.32em" transform="translate(240,238.55859375000003)" fill="rgb(110, 64, 170)">3</text><text opacity="0.75" y="0.32em" transform="translate(335,238.55859375000003)" fill="rgb(110, 64, 170)">3</text><text opacity="0.75" y="0.32em" transform="translate(430,238.55859375000003)" fill="rgb(110, 64, 170)">3</text><text opacity="0.75" y="0.32em" transform="translate(50,158.90625000000003)" fill="rgb(110, 64, 170)">3</text><text opacity="0.75" y="0.32em" transform="translate(145,158.90625000000003)" fill="rgb(110, 64, 170)">3</text><text opacity="0.75" y="0.32em" transform="translate(240,158.90625000000003)" fill="rgb(110, 64, 170)">3</text><text opacity="0.75" y="0.32em" transform="translate(50,300)" fill="rgb(175, 240, 91)">279</text><text opacity="0.75" y="0.32em" transform="translate(50,196.74999999999997)" fill="rgb(80, 106, 217)">54</text><text opacity="0.75" y="0.32em" transform="translate(145,196.74999999999997)" fill="rgb(80, 106, 217)">54</text><text opacity="0.75" y="0.32em" transform="translate(240,196.74999999999997)" fill="rgb(80, 106, 217)">54</text><text opacity="0.75" y="0.32em" transform="translate(50,232.42812499999997)" fill="rgb(110, 64, 170)">3</text><text opacity="0.75" y="0.32em" transform="translate(145,232.42812499999997)" fill="rgb(110, 64, 170)">3</text><text opacity="0.75" y="0.32em" transform="translate(240,232.42812499999997)" fill="rgb(110, 64, 170)">3</text><text opacity="0.75" y="0.32em" transform="translate(335,232.42812499999997)" fill="rgb(110, 64, 170)">3</text><text opacity="0.75" y="0.32em" transform="translate(430,232.42812499999997)" fill="rgb(110, 64, 170)">3</text><text opacity="0.75" y="0.32em" transform="translate(50,150.37499999999994)" fill="rgb(110, 64, 170)">3</text><text opacity="0.75" y="0.32em" transform="translate(145,150.37499999999994)" fill="rgb(110, 64, 170)">3</text><text opacity="0.75" y="0.32em" transform="translate(240,150.37499999999994)" fill="rgb(110, 64, 170)">3</text><text opacity="0.75" y="0.32em" transform="translate(50,245.31250000000003)" fill="rgb(80, 106, 217)">54</text><text opacity="0.75" y="0.32em" transform="translate(145,245.31250000000003)" fill="rgb(80, 106, 217)">54</text><text opacity="0.75" y="0.32em" transform="translate(240,245.31250000000003)" fill="rgb(80, 106, 217)">54</text><text opacity="0.75" y="0.32em" transform="translate(335,245.31250000000003)" fill="rgb(80, 106, 217)">54</text><text opacity="0.75" y="0.32em" transform="translate(50,340.38671875000006)" fill="rgb(110, 64, 170)">3</text><text opacity="0.75" y="0.32em" transform="translate(145,340.38671875000006)" fill="rgb(110, 64, 170)">3</text><text opacity="0.75" y="0.32em" transform="translate(240,340.38671875000006)" fill="rgb(110, 64, 170)">3</text><text opacity="0.75" y="0.32em" transform="translate(335,340.38671875000006)" fill="rgb(110, 64, 170)">3</text><text opacity="0.75" y="0.32em" transform="translate(430,340.38671875000006)" fill="rgb(110, 64, 170)">3</text><text opacity="0.75" y="0.32em" transform="translate(525,340.38671875000006)" fill="rgb(110, 64, 170)">3</text><text opacity="0.75" y="0.32em" transform="translate(50,107.5)" fill="rgb(49, 148, 224)">93</text><text opacity="0.75" y="0.32em" transform="translate(145,107.5)" fill="rgb(49, 148, 224)">93</text><text opacity="0.75" y="0.32em" transform="translate(50,307.65624999999994)" fill="rgb(110, 64, 170)">3</text><text opacity="0.75" y="0.32em" transform="translate(145,307.65624999999994)" fill="rgb(110, 64, 170)">3</text><text opacity="0.75" y="0.32em" transform="translate(240,307.65624999999994)" fill="rgb(110, 64, 170)">3</text><text opacity="0.75" y="0.32em" transform="translate(335,307.65624999999994)" fill="rgb(110, 64, 170)">3</text></g></svg> 
 
