<svg class="plot-d6a7b5" fill="currentColor" font-family="system-ui, sans-serif" font-size="10" text-anchor="middle" width="640" height="400" viewBox="0 0 640 400" xmlns="http://www.w3.org/2000/svg" xmlns:xlink="http://www.w3.org/1999/xlink" color="#1e90ff"><style>:where(.plot-d6a7b5){--plot-background: white;display:block;height:intrinsic;max-width:100%}:where(.plot-d6a7b5 text),:where(.plot-d6a7b5 tspan){white-space:pre}</style><g aria-label="y-axis tick" fill="none" stroke="currentColor"><path transform="translate(40,370)" d="M0,0L-6,0"/><path transform="translate(40,342.22222222222223)" d="M0,0L-6,0"/><path transform="translate(40,314.44444444444446)" d="M0,0L-6,0"/><path transform="translate(40,286.66666666666663)" d="M0,0L-6,0"/><path transform="translate(40,258.8888888888889)" d="M0,0L-6,0"/><path transform="translate(40,231.11111111111111)" d="M0,0L-6,0"/><path transform="translate(40,203.33333333333334)" d="M0,0L-6,0"/><path transform="translate(40,175.55555555555554)" d="M0,0L-6,0"/><path transform="translate(40,147.7777777777778)" d="M0,0L-6,0"/><path transform="translate(40,120)" d="M0,0L-6,0"/><path transform="translate(40,92.22222222222224)" d="M0,0L-6,0"/><path transform="translate(40,64.44444444444444)" d="M0,0L-6,0"/><path transform="translate(40,36.666666666666686)" d="M0,0L-6,0"/></g><g aria-label="y-axis tick label" text-anchor="end" font-variant="tabular-nums"><text y=".32em" transform="translate(-9,0) translate(40,370)">0</text><text y=".32em" transform="translate(-9,0) translate(40,342.22222222222223)">50</text><text y=".32em" transform="translate(-9,0) translate(40,314.44444444444446)">100</text><text y=".32em" transform="translate(-9,0) translate(40,286.66666666666663)">150</text><text y=".32em" transform="translate(-9,0) translate(40,258.8888888888889)">200</text><text y=".32em" transform="translate(-9,0) translate(40,231.11111111111111)">250</text><text y=".32em" transform="translate(-9,0) translate(40,203.33333333333334)">300</text><text y=".32em" transform="translate(-9,0) translate(40,175.55555555555554)">350</text><text y=".32em" transform="translate(-9,0) translate(40,147.7777777777778)">400</text><text y=".32em" transform="translate(-9,0) translate(40,120)">450</text><text y=".32em" transform="translate(-9,0) translate(40,92.22222222222224)">500</text><text y=".32em" transform="translate(-9,0) translate(40,64.44444444444444)">550</text><text y=".32em" transform="translate(-9,0) translate(40,36.666666666666686)">600</text></g><g aria-label="y-axis label" text-anchor="start"><text y=".71em" transform="translate(-37,-17) translate(40,20)">↑ Frequency</text></g><g aria-label="x-axis tick" fill="none" stroke="currentColor"><path transform="translate(84.61538461538461,370)" d="M0,0L0,6"/><path transform="translate(173.84615384615387,370)" d="M0,0L0,6"/><path transform="translate(263.0769230769231,370)" d="M0,0L0,6"/><path transform="translate(352.30769230769226,370)" d="M0,0L0,6"/><path transform="translate(441.5384615384615,370)" d="M0,0L0,6"/><path transform="translate(530.7692307692308,370)" d="M0,0L0,6"/><path transform="translate(620,370)" d="M0,0L0,6"/></g><g aria-label="x-axis tick label" font-variant="tabular-nums"><text y=".71em" transform="translate(0,9) translate(84.61538461538461,370)">0.6</text><text y=".71em" transform="translate(0,9) translate(173.84615384615387,370)">0.8</text><text y=".71em" transform="translate(0,9) translate(263.0769230769231,370)">1.0</text><text y=".71em" transform="translate(0,9) translate(352.30769230769226,370)">1.2</text><text y=".71em" transform="translate(0,9) translate(441.5384615384615,370)">1.4</text><text y=".71em" transform="translate(0,9) translate(530.7692307692308,370)">1.6</text><text y=".71em" transform="translate(0,9) translate(620,370)">1.8</text></g><g aria-label="x-axis label" text-anchor="end"><text transform="translate(17,27) translate(620,370)">Gravity Multiplier →</text></g><g aria-label="rect"><rect x="40.5" y="350" width="43.615" height="20"/><rect x="85.115" y="350" width="43.615" height="20"/><rect x="129.731" y="27.778" width="43.615" height="342.222"/><rect x="174.346" y="32.778" width="43.615" height="337.222"/><rect x="263.577" y="33.889" width="43.615" height="336.111"/><rect x="397.423" y="347.778" width="43.615" height="22.222"/><rect x="575.885" y="20" width="43.615" height="350"/></g></svg>