<svg class="plot-d6a7b5" fill="currentColor" font-family="system-ui, sans-serif" font-size="10" text-anchor="middle" width="640" height="400" viewBox="0 0 640 400" xmlns="http://www.w3.org/2000/svg" xmlns:xlink="http://www.w3.org/1999/xlink" color="#1e90ff"><style>:where(.plot-d6a7b5){--plot-background: white;display:block;height:intrinsic;max-width:100%}:where(.plot-d6a7b5 text),:where(.plot-d6a7b5 tspan){white-space:pre}</style><g aria-label="y-axis tick" fill="none" stroke="currentColor"><path transform="translate(40,370)" d="M0,0L-6,0"/><path transform="translate(40,334.92985971943887)" d="M0,0L-6,0"/><path transform="translate(40,299.85971943887773)" d="M0,0L-6,0"/><path transform="translate(40,264.7895791583166)" d="M0,0L-6,0"/><path transform="translate(40,229.71943887775555)" d="M0,0L-6,0"/><path transform="translate(40,194.64929859719442)" d="M0,0L-6,0"/><path transform="translate(40,159.57915831663325)" d="M0,0L-6,0"/><path transform="translate(40,124.50901803607213)" d="M0,0L-6,0"/><path transform="translate(40,89.43887775551102)" d="M0,0L-6,0"/><path transform="translate(40,54.368737474949896)" d="M0,0L-6,0"/></g><g aria-label="y-axis tick label" text-anchor="end" font-variant="tabular-nums"><text y=".32em" transform="translate(-9,0) translate(40,370)">0</text><text y=".32em" transform="translate(-9,0) translate(40,334.92985971943887)">100</text><text y=".32em" transform="translate(-9,0) translate(40,299.85971943887773)">200</text><text y=".32em" transform="translate(-9,0) translate(40,264.7895791583166)">300</text><text y=".32em" transform="translate(-9,0) translate(40,229.71943887775555)">400</text><text y=".32em" transform="translate(-9,0) translate(40,194.64929859719442)">500</text><text y=".32em" transform="translate(-9,0) translate(40,159.57915831663325)">600</text><text y=".32em" transform="translate(-9,0) translate(40,124.50901803607213)">700</text><text y=".32em" transform="translate(-9,0) translate(40,89.43887775551102)">800</text><text y=".32em" transform="translate(-9,0) translate(40,54.368737474949896)">900</text></g><g aria-label="y-axis label" text-anchor="start"><text y=".71em" transform="translate(-37,-17) translate(40,20)">↑ Frequency</text></g><g aria-label="x-axis tick" fill="none" stroke="currentColor"><path transform="translate(40,370)" d="M0,0L0,6"/><path transform="translate(117.33333333333334,370)" d="M0,0L0,6"/><path transform="translate(194.66666666666669,370)" d="M0,0L0,6"/><path transform="translate(272,370)" d="M0,0L0,6"/><path transform="translate(349.3333333333334,370)" d="M0,0L0,6"/><path transform="translate(426.6666666666667,370)" d="M0,0L0,6"/><path transform="translate(504,370)" d="M0,0L0,6"/><path transform="translate(581.3333333333335,370)" d="M0,0L0,6"/></g><g aria-label="x-axis tick label" font-variant="tabular-nums"><text y=".71em" transform="translate(0,9) translate(40,370)">0.4</text><text y=".71em" transform="translate(0,9) translate(117.33333333333334,370)">0.5</text><text y=".71em" transform="translate(0,9) translate(194.66666666666669,370)">0.6</text><text y=".71em" transform="translate(0,9) translate(272,370)">0.7</text><text y=".71em" transform="translate(0,9) translate(349.3333333333334,370)">0.8</text><text y=".71em" transform="translate(0,9) translate(426.6666666666667,370)">0.9</text><text y=".71em" transform="translate(0,9) translate(504,370)">1.0</text><text y=".71em" transform="translate(0,9) translate(581.3333333333335,370)">1.1</text></g><g aria-label="x-axis label" text-anchor="end"><text transform="translate(17,27) translate(620,370)">Airspeed Multiplier →</text></g><g aria-label="rect"><rect x="40.5" y="317.395" width="37.667" height="52.605"/><rect x="156.5" y="187.635" width="37.667" height="182.365"/><rect x="311.167" y="279.168" width="37.667" height="90.832"/><rect x="349.833" y="319.85" width="37.667" height="50.15"/><rect x="504.5" y="20" width="37.667" height="350"/><rect x="581.833" y="194.649" width="37.667" height="175.351"/></g></svg>