<svg class="plot-d6a7b5" fill="currentColor" font-family="system-ui, sans-serif" font-size="10" text-anchor="middle" width="640" height="400" viewBox="0 0 640 400" xmlns="http://www.w3.org/2000/svg" xmlns:xlink="http://www.w3.org/1999/xlink" color="dodgerblue"><style>:where(.plot-d6a7b5){--plot-background: white;display:block;height:intrinsic;max-width:100%}:where(.plot-d6a7b5 text),:where(.plot-d6a7b5 tspan){white-space:pre}</style><g aria-label="y-axis tick" fill="none" stroke="currentColor"><path transform="translate(40,370)" d="M0,0L-6,0"/><path transform="translate(40,340.43918918918916)" d="M0,0L-6,0"/><path transform="translate(40,310.8783783783784)" d="M0,0L-6,0"/><path transform="translate(40,281.31756756756755)" d="M0,0L-6,0"/><path transform="translate(40,251.75675675675674)" d="M0,0L-6,0"/><path transform="translate(40,222.1959459459459)" d="M0,0L-6,0"/><path transform="translate(40,192.6351351351351)" d="M0,0L-6,0"/><path transform="translate(40,163.07432432432432)" d="M0,0L-6,0"/><path transform="translate(40,133.51351351351352)" d="M0,0L-6,0"/><path transform="translate(40,103.95270270270271)" d="M0,0L-6,0"/><path transform="translate(40,74.39189189189187)" d="M0,0L-6,0"/><path transform="translate(40,44.83108108108108)" d="M0,0L-6,0"/></g><g aria-label="y-axis tick label" text-anchor="end" font-variant="tabular-nums"><text y=".32em" transform="translate(-9,0) translate(40,370)">0</text><text y=".32em" transform="translate(-9,0) translate(40,340.43918918918916)">50</text><text y=".32em" transform="translate(-9,0) translate(40,310.8783783783784)">100</text><text y=".32em" transform="translate(-9,0) translate(40,281.31756756756755)">150</text><text y=".32em" transform="translate(-9,0) translate(40,251.75675675675674)">200</text><text y=".32em" transform="translate(-9,0) translate(40,222.1959459459459)">250</text><text y=".32em" transform="translate(-9,0) translate(40,192.6351351351351)">300</text><text y=".32em" transform="translate(-9,0) translate(40,163.07432432432432)">350</text><text y=".32em" transform="translate(-9,0) translate(40,133.51351351351352)">400</text><text y=".32em" transform="translate(-9,0) translate(40,103.95270270270271)">450</text><text y=".32em" transform="translate(-9,0) translate(40,74.39189189189187)">500</text><text y=".32em" transform="translate(-9,0) translate(40,44.83108108108108)">550</text></g><g aria-label="y-axis label" text-anchor="start"><text y=".71em" transform="translate(-37,-17) translate(40,20)">↑ Frequency</text></g><g aria-label="x-axis tick" fill="none" stroke="currentColor"><path transform="translate(78.66666666666669,370)" d="M0,0L0,6"/><path transform="translate(156,370)" d="M0,0L0,6"/><path transform="translate(233.33333333333331,370)" d="M0,0L0,6"/><path transform="translate(310.6666666666666,370)" d="M0,0L0,6"/><path transform="translate(388,370)" d="M0,0L0,6"/><path transform="translate(465.3333333333333,370)" d="M0,0L0,6"/><path transform="translate(542.6666666666666,370)" d="M0,0L0,6"/><path transform="translate(620,370)" d="M0,0L0,6"/></g><g aria-label="x-axis tick label" font-variant="tabular-nums"><text y=".71em" transform="translate(0,9) translate(78.66666666666669,370)">0.8</text><text y=".71em" transform="translate(0,9) translate(156,370)">1.0</text><text y=".71em" transform="translate(0,9) translate(233.33333333333331,370)">1.2</text><text y=".71em" transform="translate(0,9) translate(310.6666666666666,370)">1.4</text><text y=".71em" transform="translate(0,9) translate(388,370)">1.6</text><text y=".71em" transform="translate(0,9) translate(465.3333333333333,370)">1.8</text><text y=".71em" transform="translate(0,9) translate(542.6666666666666,370)">2.0</text><text y=".71em" transform="translate(0,9) translate(620,370)">2.2</text></g><g aria-label="x-axis label" text-anchor="end"><text transform="translate(17,27) translate(620,370)">Gravity Multiplier →</text></g><g aria-label="rect"><rect x="40.5" y="257.669" width="37.667" height="112.331"/><rect x="79.167" y="111.047" width="37.667" height="258.953"/><rect x="156.5" y="20" width="37.667" height="350"/><rect x="233.833" y="343.986" width="37.667" height="26.014"/><rect x="427.167" y="61.976" width="37.667" height="308.024"/><rect x="581.833" y="361.723" width="37.667" height="8.277"/></g></svg>