<svg class="plot-d6a7b5" fill="currentColor" font-family="system-ui, sans-serif" font-size="10" text-anchor="middle" width="640" height="400" viewBox="0 0 640 400" xmlns="http://www.w3.org/2000/svg" xmlns:xlink="http://www.w3.org/1999/xlink" color="#1e90ff"><style>:where(.plot-d6a7b5){--plot-background: white;display:block;height:intrinsic;max-width:100%}:where(.plot-d6a7b5 text),:where(.plot-d6a7b5 tspan){white-space:pre}</style><g aria-label="y-axis tick" fill="none" stroke="currentColor"><path transform="translate(40,370)" d="M0,0L-6,0"/><path transform="translate(40,339.20369555653315)" d="M0,0L-6,0"/><path transform="translate(40,308.40739111306647)" d="M0,0L-6,0"/><path transform="translate(40,277.6110866695996)" d="M0,0L-6,0"/><path transform="translate(40,246.8147822261329)" d="M0,0L-6,0"/><path transform="translate(40,216.01847778266608)" d="M0,0L-6,0"/><path transform="translate(40,185.2221733391993)" d="M0,0L-6,0"/><path transform="translate(40,154.42586889573252)" d="M0,0L-6,0"/><path transform="translate(40,123.62956445226573)" d="M0,0L-6,0"/><path transform="translate(40,92.83326000879893)" d="M0,0L-6,0"/><path transform="translate(40,62.036955565332164)" d="M0,0L-6,0"/><path transform="translate(40,31.24065112186537)" d="M0,0L-6,0"/></g><g aria-label="y-axis tick label" text-anchor="end" font-variant="tabular-nums"><text y=".32em" transform="translate(-9,0) translate(40,370)">0</text><text y=".32em" transform="translate(-9,0) translate(40,339.20369555653315)">200</text><text y=".32em" transform="translate(-9,0) translate(40,308.40739111306647)">400</text><text y=".32em" transform="translate(-9,0) translate(40,277.6110866695996)">600</text><text y=".32em" transform="translate(-9,0) translate(40,246.8147822261329)">800</text><text y=".32em" transform="translate(-9,0) translate(40,216.01847778266608)">1,000</text><text y=".32em" transform="translate(-9,0) translate(40,185.2221733391993)">1,200</text><text y=".32em" transform="translate(-9,0) translate(40,154.42586889573252)">1,400</text><text y=".32em" transform="translate(-9,0) translate(40,123.62956445226573)">1,600</text><text y=".32em" transform="translate(-9,0) translate(40,92.83326000879893)">1,800</text><text y=".32em" transform="translate(-9,0) translate(40,62.036955565332164)">2,000</text><text y=".32em" transform="translate(-9,0) translate(40,31.24065112186537)">2,200</text></g><g aria-label="y-axis label" text-anchor="start"><text y=".71em" transform="translate(-37,-17) translate(40,20)">↑ Frequency</text></g><g aria-label="x-axis tick" fill="none" stroke="currentColor"><path transform="translate(40,370)" d="M0,0L0,6"/><path transform="translate(96.86274509803923,370)" d="M0,0L0,6"/><path transform="translate(153.72549019607845,370)" d="M0,0L0,6"/><path transform="translate(210.58823529411768,370)" d="M0,0L0,6"/><path transform="translate(267.4509803921569,370)" d="M0,0L0,6"/><path transform="translate(324.3137254901961,370)" d="M0,0L0,6"/><path transform="translate(381.17647058823536,370)" d="M0,0L0,6"/><path transform="translate(438.03921568627453,370)" d="M0,0L0,6"/><path transform="translate(494.90196078431376,370)" d="M0,0L0,6"/><path transform="translate(551.764705882353,370)" d="M0,0L0,6"/><path transform="translate(608.6274509803922,370)" d="M0,0L0,6"/></g><g aria-label="x-axis tick label" font-variant="tabular-nums"><text y=".71em" transform="translate(0,9) translate(40,370)">1.0</text><text y=".71em" transform="translate(0,9) translate(96.86274509803923,370)">1.5</text><text y=".71em" transform="translate(0,9) translate(153.72549019607845,370)">2.0</text><text y=".71em" transform="translate(0,9) translate(210.58823529411768,370)">2.5</text><text y=".71em" transform="translate(0,9) translate(267.4509803921569,370)">3.0</text><text y=".71em" transform="translate(0,9) translate(324.3137254901961,370)">3.5</text><text y=".71em" transform="translate(0,9) translate(381.17647058823536,370)">4.0</text><text y=".71em" transform="translate(0,9) translate(438.03921568627453,370)">4.5</text><text y=".71em" transform="translate(0,9) translate(494.90196078431376,370)">5.0</text><text y=".71em" transform="translate(0,9) translate(551.764705882353,370)">5.5</text><text y=".71em" transform="translate(0,9) translate(608.6274509803922,370)">6.0</text></g><g aria-label="x-axis label" text-anchor="end"><text transform="translate(17,27) translate(620,370)">Item Output Amount →</text></g><g aria-label="rect"><rect x="40.5" y="367.536" width="10.373" height="2.464"/><rect x="609.127" y="20" width="10.373" height="350"/></g></svg>