<svg class="plot-d6a7b5" fill="currentColor" font-family="system-ui, sans-serif" font-size="10" text-anchor="middle" width="640" height="400" viewBox="0 0 640 400" xmlns="http://www.w3.org/2000/svg" xmlns:xlink="http://www.w3.org/1999/xlink" color="#1e90ff"><style>:where(.plot-d6a7b5){--plot-background: white;display:block;height:intrinsic;max-width:100%}:where(.plot-d6a7b5 text),:where(.plot-d6a7b5 tspan){white-space:pre}</style><g aria-label="y-axis tick" fill="none" stroke="currentColor"><path transform="translate(40,370)" d="M0,0L-6,0"/><path transform="translate(40,324.75113122171945)" d="M0,0L-6,0"/><path transform="translate(40,279.5022624434389)" d="M0,0L-6,0"/><path transform="translate(40,234.2533936651584)" d="M0,0L-6,0"/><path transform="translate(40,189.0045248868778)" d="M0,0L-6,0"/><path transform="translate(40,143.7556561085973)" d="M0,0L-6,0"/><path transform="translate(40,98.50678733031674)" d="M0,0L-6,0"/><path transform="translate(40,53.257918552036195)" d="M0,0L-6,0"/></g><g aria-label="y-axis tick label" text-anchor="end" font-variant="tabular-nums"><text y=".32em" transform="translate(-9,0) translate(40,370)">0</text><text y=".32em" transform="translate(-9,0) translate(40,324.75113122171945)">200</text><text y=".32em" transform="translate(-9,0) translate(40,279.5022624434389)">400</text><text y=".32em" transform="translate(-9,0) translate(40,234.2533936651584)">600</text><text y=".32em" transform="translate(-9,0) translate(40,189.0045248868778)">800</text><text y=".32em" transform="translate(-9,0) translate(40,143.7556561085973)">1,000</text><text y=".32em" transform="translate(-9,0) translate(40,98.50678733031674)">1,200</text><text y=".32em" transform="translate(-9,0) translate(40,53.257918552036195)">1,400</text></g><g aria-label="y-axis label" text-anchor="start"><text y=".71em" transform="translate(-37,-17) translate(40,20)">↑ Frequency</text></g><g aria-label="x-axis tick" fill="none" stroke="currentColor"><path transform="translate(76.25,370)" d="M0,0L0,6"/><path transform="translate(148.75,370)" d="M0,0L0,6"/><path transform="translate(221.25,370)" d="M0,0L0,6"/><path transform="translate(293.75,370)" d="M0,0L0,6"/><path transform="translate(366.25,370)" d="M0,0L0,6"/><path transform="translate(438.75,370)" d="M0,0L0,6"/><path transform="translate(511.25,370)" d="M0,0L0,6"/><path transform="translate(583.75,370)" d="M0,0L0,6"/></g><g aria-label="x-axis tick label" font-variant="tabular-nums"><text y=".71em" transform="translate(0,9) translate(76.25,370)">10</text><text y=".71em" transform="translate(0,9) translate(148.75,370)">20</text><text y=".71em" transform="translate(0,9) translate(221.25,370)">30</text><text y=".71em" transform="translate(0,9) translate(293.75,370)">40</text><text y=".71em" transform="translate(0,9) translate(366.25,370)">50</text><text y=".71em" transform="translate(0,9) translate(438.75,370)">60</text><text y=".71em" transform="translate(0,9) translate(511.25,370)">70</text><text y=".71em" transform="translate(0,9) translate(583.75,370)">80</text></g><g aria-label="x-axis label" text-anchor="end"><text transform="translate(17,27) translate(620,370)">Name Length →</text></g><g aria-label="rect"><rect x="40.5" y="369.774" width="35.25" height=".226"/><rect x="76.75" y="20" width="35.25" height="350"/><rect x="113" y="314.344" width="35.25" height="55.656"/><rect x="149.25" y="356.878" width="35.25" height="13.122"/><rect x="185.5" y="355.973" width="35.25" height="14.027"/><rect x="221.75" y="353.032" width="35.25" height="16.968"/><rect x="258" y="356.652" width="35.25" height="13.348"/><rect x="294.25" y="362.534" width="35.25" height="7.466"/><rect x="330.5" y="359.14" width="35.25" height="10.86"/><rect x="366.75" y="359.14" width="35.25" height="10.86"/><rect x="403" y="360.271" width="35.25" height="9.729"/><rect x="439.25" y="361.176" width="35.25" height="8.824"/><rect x="475.5" y="365.249" width="35.25" height="4.751"/><rect x="511.75" y="368.869" width="35.25" height="1.131"/><rect x="548" y="369.321" width="35.25" height=".679"/><rect x="584.25" y="369.774" width="35.25" height=".226"/></g></svg>