<svg class="plot-d6a7b5" fill="currentColor" font-family="system-ui, sans-serif" font-size="10" text-anchor="middle" width="640" height="400" viewBox="0 0 640 400" xmlns="http://www.w3.org/2000/svg" xmlns:xlink="http://www.w3.org/1999/xlink" color="dodgerblue"><style>:where(.plot-d6a7b5){--plot-background: white;display:block;height:intrinsic;max-width:100%}:where(.plot-d6a7b5 text),:where(.plot-d6a7b5 tspan){white-space:pre}</style><g aria-label="y-axis tick" fill="none" stroke="currentColor"><path transform="translate(40,370)" d="M0,0L-6,0"/><path transform="translate(40,331.1111111111111)" d="M0,0L-6,0"/><path transform="translate(40,292.22222222222223)" d="M0,0L-6,0"/><path transform="translate(40,253.33333333333334)" d="M0,0L-6,0"/><path transform="translate(40,214.44444444444446)" d="M0,0L-6,0"/><path transform="translate(40,175.55555555555554)" d="M0,0L-6,0"/><path transform="translate(40,136.66666666666669)" d="M0,0L-6,0"/><path transform="translate(40,97.77777777777777)" d="M0,0L-6,0"/><path transform="translate(40,58.88888888888891)" d="M0,0L-6,0"/><path transform="translate(40,20)" d="M0,0L-6,0"/></g><g aria-label="y-axis tick label" text-anchor="end" font-variant="tabular-nums"><text y=".32em" transform="translate(-9,0) translate(40,370)">0</text><text y=".32em" transform="translate(-9,0) translate(40,331.1111111111111)">50</text><text y=".32em" transform="translate(-9,0) translate(40,292.22222222222223)">100</text><text y=".32em" transform="translate(-9,0) translate(40,253.33333333333334)">150</text><text y=".32em" transform="translate(-9,0) translate(40,214.44444444444446)">200</text><text y=".32em" transform="translate(-9,0) translate(40,175.55555555555554)">250</text><text y=".32em" transform="translate(-9,0) translate(40,136.66666666666669)">300</text><text y=".32em" transform="translate(-9,0) translate(40,97.77777777777777)">350</text><text y=".32em" transform="translate(-9,0) translate(40,58.88888888888891)">400</text><text y=".32em" transform="translate(-9,0) translate(40,20)">450</text></g><g aria-label="y-axis label" text-anchor="start"><text y=".71em" transform="translate(-37,-17) translate(40,20)">↑ Frequency</text></g><g aria-label="x-axis tick" fill="none" stroke="currentColor"><path transform="translate(40,370)" d="M0,0L0,6"/><path transform="translate(145.45454545454547,370)" d="M0,0L0,6"/><path transform="translate(250.90909090909093,370)" d="M0,0L0,6"/><path transform="translate(356.3636363636363,370)" d="M0,0L0,6"/><path transform="translate(461.81818181818187,370)" d="M0,0L0,6"/><path transform="translate(567.2727272727273,370)" d="M0,0L0,6"/></g><g aria-label="x-axis tick label" font-variant="tabular-nums"><text y=".71em" transform="translate(0,9) translate(40,370)">1</text><text y=".71em" transform="translate(0,9) translate(145.45454545454547,370)">2</text><text y=".71em" transform="translate(0,9) translate(250.90909090909093,370)">3</text><text y=".71em" transform="translate(0,9) translate(356.3636363636363,370)">4</text><text y=".71em" transform="translate(0,9) translate(461.81818181818187,370)">5</text><text y=".71em" transform="translate(0,9) translate(567.2727272727273,370)">6</text></g><g aria-label="x-axis label" text-anchor="end"><text transform="translate(17,27) translate(620,370)">Maximum Fire Stack →</text></g><g aria-label="rect"><rect x="40.5" y="20" width="51.727" height="350"/><rect x="145.955" y="252.556" width="51.727" height="117.444"/><rect x="251.409" y="310.889" width="51.727" height="59.111"/><rect x="356.864" y="337.333" width="51.727" height="32.667"/><rect x="462.318" y="366.889" width="51.727" height="3.111"/><rect x="567.773" y="368.444" width="51.727" height="1.556"/></g></svg>