<svg class="plot-d6a7b5" fill="currentColor" font-family="system-ui, sans-serif" font-size="10" text-anchor="middle" width="640" height="400" viewBox="0 0 640 400" xmlns="http://www.w3.org/2000/svg" xmlns:xlink="http://www.w3.org/1999/xlink" color="dodgerblue"><style>:where(.plot-d6a7b5){--plot-background: white;display:block;height:intrinsic;max-width:100%}:where(.plot-d6a7b5 text),:where(.plot-d6a7b5 tspan){white-space:pre}</style><g aria-label="y-axis tick" fill="none" stroke="currentColor"><path transform="translate(40,370)" d="M0,0L-6,0"/><path transform="translate(40,331.0894941634241)" d="M0,0L-6,0"/><path transform="translate(40,292.17898832684824)" d="M0,0L-6,0"/><path transform="translate(40,253.26848249027242)" d="M0,0L-6,0"/><path transform="translate(40,214.3579766536965)" d="M0,0L-6,0"/><path transform="translate(40,175.4474708171206)" d="M0,0L-6,0"/><path transform="translate(40,136.53696498054475)" d="M0,0L-6,0"/><path transform="translate(40,97.62645914396887)" d="M0,0L-6,0"/><path transform="translate(40,58.715953307393015)" d="M0,0L-6,0"/></g><g aria-label="y-axis tick label" text-anchor="end" font-variant="tabular-nums"><text y=".32em" transform="translate(-9,0) translate(40,370)">0</text><text y=".32em" transform="translate(-9,0) translate(40,331.0894941634241)">200</text><text y=".32em" transform="translate(-9,0) translate(40,292.17898832684824)">400</text><text y=".32em" transform="translate(-9,0) translate(40,253.26848249027242)">600</text><text y=".32em" transform="translate(-9,0) translate(40,214.3579766536965)">800</text><text y=".32em" transform="translate(-9,0) translate(40,175.4474708171206)">1,000</text><text y=".32em" transform="translate(-9,0) translate(40,136.53696498054475)">1,200</text><text y=".32em" transform="translate(-9,0) translate(40,97.62645914396887)">1,400</text><text y=".32em" transform="translate(-9,0) translate(40,58.715953307393015)">1,600</text></g><g aria-label="y-axis label" text-anchor="start"><text y=".71em" transform="translate(-37,-17) translate(40,20)">↑ Frequency</text></g><g aria-label="x-axis tick" fill="none" stroke="currentColor"><path transform="translate(330,370)" d="M0,0L0,6"/></g><g aria-label="x-axis tick label" font-variant="tabular-nums"><text y=".71em" transform="translate(0,9) translate(330,370)">6</text></g><g aria-label="x-axis label" text-anchor="end"><text transform="translate(17,27) translate(620,370)">Item Output Amount</text></g><g aria-label="rect"><rect x="40.5" y="20" width="579" height="350"/></g></svg>