<svg class="plot-d6a7b5" fill="currentColor" font-family="system-ui, sans-serif" font-size="10" text-anchor="middle" width="640" height="400" viewBox="0 0 640 400" xmlns="http://www.w3.org/2000/svg" xmlns:xlink="http://www.w3.org/1999/xlink" color="#1e90ff"><style>:where(.plot-d6a7b5){--plot-background: white;display:block;height:intrinsic;max-width:100%}:where(.plot-d6a7b5 text),:where(.plot-d6a7b5 tspan){white-space:pre}</style><g aria-label="y-axis tick" fill="none" stroke="currentColor"><path transform="translate(40,370)" d="M0,0L-6,0"/><path transform="translate(40,321.59059474412174)" d="M0,0L-6,0"/><path transform="translate(40,273.1811894882434)" d="M0,0L-6,0"/><path transform="translate(40,224.77178423236512)" d="M0,0L-6,0"/><path transform="translate(40,176.36237897648684)" d="M0,0L-6,0"/><path transform="translate(40,127.95297372060858)" d="M0,0L-6,0"/><path transform="translate(40,79.54356846473027)" d="M0,0L-6,0"/><path transform="translate(40,31.134163208852)" d="M0,0L-6,0"/></g><g aria-label="y-axis tick label" text-anchor="end" font-variant="tabular-nums"><text y=".32em" transform="translate(-9,0) translate(40,370)">0</text><text y=".32em" transform="translate(-9,0) translate(40,321.59059474412174)">100</text><text y=".32em" transform="translate(-9,0) translate(40,273.1811894882434)">200</text><text y=".32em" transform="translate(-9,0) translate(40,224.77178423236512)">300</text><text y=".32em" transform="translate(-9,0) translate(40,176.36237897648684)">400</text><text y=".32em" transform="translate(-9,0) translate(40,127.95297372060858)">500</text><text y=".32em" transform="translate(-9,0) translate(40,79.54356846473027)">600</text><text y=".32em" transform="translate(-9,0) translate(40,31.134163208852)">700</text></g><g aria-label="y-axis label" text-anchor="start"><text y=".71em" transform="translate(-37,-17) translate(40,20)">↑ Frequency</text></g><g aria-label="x-axis tick" fill="none" stroke="currentColor"><path transform="translate(40,370)" d="M0,0L0,6"/><path transform="translate(101.05263157894737,370)" d="M0,0L0,6"/><path transform="translate(162.10526315789474,370)" d="M0,0L0,6"/><path transform="translate(223.1578947368421,370)" d="M0,0L0,6"/><path transform="translate(284.2105263157894,370)" d="M0,0L0,6"/><path transform="translate(345.2631578947369,370)" d="M0,0L0,6"/><path transform="translate(406.3157894736843,370)" d="M0,0L0,6"/><path transform="translate(467.36842105263156,370)" d="M0,0L0,6"/><path transform="translate(528.421052631579,370)" d="M0,0L0,6"/><path transform="translate(589.4736842105264,370)" d="M0,0L0,6"/></g><g aria-label="x-axis tick label" font-variant="tabular-nums"><text y=".71em" transform="translate(0,9) translate(40,370)">0.4</text><text y=".71em" transform="translate(0,9) translate(101.05263157894737,370)">0.6</text><text y=".71em" transform="translate(0,9) translate(162.10526315789474,370)">0.8</text><text y=".71em" transform="translate(0,9) translate(223.1578947368421,370)">1.0</text><text y=".71em" transform="translate(0,9) translate(284.2105263157894,370)">1.2</text><text y=".71em" transform="translate(0,9) translate(345.2631578947369,370)">1.4</text><text y=".71em" transform="translate(0,9) translate(406.3157894736843,370)">1.6</text><text y=".71em" transform="translate(0,9) translate(467.36842105263156,370)">1.8</text><text y=".71em" transform="translate(0,9) translate(528.421052631579,370)">2.0</text><text y=".71em" transform="translate(0,9) translate(589.4736842105264,370)">2.2</text></g><g aria-label="x-axis label" text-anchor="end"><text transform="translate(17,27) translate(620,370)">Airspeed Multiplier →</text></g><g aria-label="rect"><rect x="40.5" y="302.711" width="29.526" height="67.289"/><rect x="71.026" y="86.321" width="29.526" height="283.679"/><rect x="132.079" y="251.397" width="29.526" height="118.603"/><rect x="162.605" y="313.361" width="29.526" height="56.639"/><rect x="223.658" y="20" width="29.526" height="350"/><rect x="254.184" y="148.285" width="29.526" height="221.715"/><rect x="376.289" y="354.509" width="29.526" height="15.491"/><rect x="528.921" y="363.223" width="29.526" height="6.777"/><rect x="589.974" y="363.223" width="29.526" height="6.777"/></g></svg>